<svg fill="none" xmlns="http://www.w3.org/2000/svg">
    <symbol id="search-34" fill="none">
        <path d="M29.75 29.75L22.388 22.388M22.388 22.388C24.3108 20.4653 25.5 17.809 25.5 14.875C25.5 9.00697 20.743 4.25 14.875 4.25C9.00697 4.25 4.25 9.00697 4.25 14.875C4.25 20.743 9.00697 25.5 14.875 25.5C17.809 25.5 20.4653 24.3108 22.388 22.388Z" stroke="currentColor" stroke-width="2" stroke-linecap="round" stroke-linejoin="round"/>
    </symbol>
    <symbol id="notification-34" fill="none">
        <path d="M21.0472 24.1991C23.7312 23.8807 26.3193 23.2497 28.7741 22.3435C26.7386 20.0841 25.4997 17.093 25.4997 13.8125V12.8197C25.4999 12.7965 25.5 12.7732 25.5 12.75C25.5 8.05558 21.6944 4.25 17 4.25C12.3056 4.25 8.5 8.05558 8.5 12.75L8.49972 13.8125C8.49972 17.093 7.2608 20.0841 5.22534 22.3435C7.68032 23.2498 10.2686 23.8808 12.9528 24.1992M21.0472 24.1991C19.72 24.3565 18.3693 24.4375 16.9997 24.4375C15.6303 24.4375 14.2798 24.3565 12.9528 24.1992M21.0472 24.1991C21.1789 24.6091 21.25 25.0462 21.25 25.5C21.25 27.8472 19.3472 29.75 17 29.75C14.6528 29.75 12.75 27.8472 12.75 25.5C12.75 25.0463 12.8211 24.6091 12.9528 24.1992" stroke="currentColor" stroke-width="2" stroke-linecap="round" stroke-linejoin="round"/>
    </symbol>
    <symbol id="close-34">
        <path d="M28 7L8 27M8 7L28 27" stroke="currentColor" stroke-width="2" stroke-linecap="round" stroke-linejoin="round"/>
    </symbol>

    <symbol id="search-24" fill="none">
        <path d="M21 21L15.8033 15.8033M15.8033 15.8033C17.1605 14.4461 18 12.5711 18 10.5C18 6.35786 14.6421 3 10.5 3C6.35786 3 3 6.35786 3 10.5C3 14.6421 6.35786 18 10.5 18C12.5711 18 14.4461 17.1605 15.8033 15.8033Z" stroke="currentColor" stroke-width="1.5" stroke-linecap="round" stroke-linejoin="round"/>
    </symbol>
    <symbol id="notification-24" fill="none">
    <path d="M14.8569 17.0817C16.7514 16.857 18.5783 16.4116 20.3111 15.7719C18.8743 14.177 17.9998 12.0656 17.9998 9.75V9.04919C17.9999 9.03281 18 9.01641 18 9C18 5.68629 15.3137 3 12 3C8.68629 3 6 5.68629 6 9L5.9998 9.75C5.9998 12.0656 5.12527 14.177 3.68848 15.7719C5.4214 16.4116 7.24843 16.857 9.14314 17.0818M14.8569 17.0817C13.92 17.1928 12.9666 17.25 11.9998 17.25C11.0332 17.25 10.0799 17.1929 9.14314 17.0818M14.8569 17.0817C14.9498 17.3711 15 17.6797 15 18C15 19.6569 13.6569 21 12 21C10.3431 21 9 19.6569 9 18C9 17.6797 9.05019 17.3712 9.14314 17.0818" stroke="currentColor" stroke-width="1.5" stroke-linecap="round" stroke-linejoin="round"/>
    </symbol>

    <symbol id="close-24">
        <path d="M19 5L5 19M5 5L19 19" stroke="currentColor" stroke-width="2" stroke-linecap="round" stroke-linejoin="round"/>
    </symbol>

    <symbol id="burger">
        <path fill-rule="evenodd" clip-rule="evenodd" d="M3 6.75C3 6.33579 3.33579 6 3.75 6H20.25C20.6642 6 21 6.33579 21 6.75C21 7.16421 20.6642 7.5 20.25 7.5H3.75C3.33579 7.5 3 7.16421 3 6.75ZM3 12C3 11.5858 3.33579 11.25 3.75 11.25H20.25C20.6642 11.25 21 11.5858 21 12C21 12.4142 20.6642 12.75 20.25 12.75H3.75C3.33579 12.75 3 12.4142 3 12ZM11.25 17.25C11.25 16.8358 11.5858 16.5 12 16.5H20.25C20.6642 16.5 21 16.8358 21 17.25C21 17.6642 20.6642 18 20.25 18H12C11.5858 18 11.25 17.6642 11.25 17.25Z" fill="currentColor"/>
    </symbol>
    <symbol id="play" heigth="28" width="28">
        <path fill-rule="evenodd" clip-rule="evenodd" d="M5.75 6.59479C5.75 4.93097 7.53383 3.87624 8.9917 4.67807L22.4557 12.0833C23.9668 12.9144 23.9668 15.0856 22.4557 15.9167L8.9917 23.3219C7.53383 24.1238 5.75 23.069 5.75 21.4052V6.59479Z" fill="currentColor"/>
    </symbol>
</svg>
