<svg width="30" height="30" viewBox="0 0 30 30" fill="none" xmlns="http://www.w3.org/2000/svg">
<g clip-path="url(#clip0_288_4681)">
<g filter="url(#filter0_b_288_4681)">
<mask id="path-1-inside-1_288_4681" fill="white">
<path fill-rule="evenodd" clip-rule="evenodd" d="M14.2602 8.01616H16.0398C16.0398 7.7369 16.0419 7.46379 16.0439 7.19441C16.0478 6.66654 16.0517 6.15298 16.0398 5.63548C16.0218 5.16833 15.6443 4.82695 15.1949 4.8C14.7455 4.78204 14.2961 5.09646 14.2692 5.54565C14.244 6.11679 14.2496 6.68793 14.2553 7.26519C14.2577 7.51421 14.2602 7.76437 14.2602 8.01616ZM2.17163 16.7875C1.89218 17.7184 1.61343 18.647 1.64999 19.641C1.64999 19.7009 1.64899 19.7608 1.64799 19.8207C1.646 19.9405 1.644 20.0603 1.64999 20.18C1.84773 23.3064 4.82276 25.3277 7.79779 24.3395C9.11903 23.8993 10.0628 23.0099 10.611 21.7342C11.1144 20.5753 11.9233 19.7219 13.1097 19.2996C14.3141 18.8684 15.5634 18.8774 16.7858 19.1739C18.125 19.5063 18.9879 20.4136 19.5451 21.6623C20.4709 23.7555 22.7898 24.9504 24.92 24.4563C27.4815 23.8633 29.1713 21.1772 28.4972 18.6349C27.913 16.4069 27.2838 14.1969 26.5827 12.0049C25.4862 8.57315 21.0731 7.19865 18.3857 9.66017C18.2778 9.75899 18.0891 9.82188 17.9453 9.82188C16.0578 9.83086 14.1703 9.83086 12.2828 9.82188C12.121 9.82188 11.9233 9.75899 11.8064 9.65119C9.04713 7.15373 4.53514 8.61806 3.51051 12.1846C3.41389 12.5147 3.31671 12.8449 3.21952 13.175C2.92797 14.1655 2.63643 15.1559 2.36004 16.1464C2.29973 16.3607 2.23566 16.5742 2.17163 16.7875ZM20.3249 15.1629C20.4251 15.0658 20.5348 14.9596 20.6596 14.8348C20.5639 14.7497 20.4724 14.6731 20.3856 14.6004C20.2524 14.4888 20.1303 14.3866 20.0215 14.2778C19.5631 13.8196 19.5361 13.2806 19.9226 12.8943C20.3091 12.508 20.8484 12.5529 21.3068 13.0111C21.4561 13.1604 21.5998 13.3153 21.7736 13.5025C21.8194 13.5519 21.8673 13.6035 21.918 13.6579C21.9899 13.5781 22.0578 13.5006 22.1237 13.4255C22.2802 13.247 22.425 13.082 22.5831 12.9302C22.9875 12.5439 23.5088 12.5349 23.8684 12.8853C24.2459 13.2536 24.2369 13.7927 23.8414 14.2059C23.6905 14.3632 23.5253 14.5062 23.3283 14.6768C23.2553 14.7399 23.178 14.8068 23.0954 14.8797C23.2079 14.9849 23.3146 15.0784 23.416 15.1673C23.5656 15.2985 23.7038 15.4196 23.8324 15.5535C24.2369 15.9757 24.2369 16.5147 23.8684 16.8741C23.4909 17.2424 22.9696 17.2244 22.5561 16.8112C22.422 16.6713 22.2993 16.5201 22.1633 16.3526C22.0897 16.262 22.0122 16.1665 21.927 16.0655C21.8213 16.1778 21.7289 16.2791 21.6437 16.3727C21.497 16.5336 21.3713 16.6715 21.2349 16.8022C20.8035 17.2154 20.2911 17.2424 19.9136 16.8741C19.5272 16.4967 19.5451 15.9577 19.9676 15.5175C20.0795 15.4006 20.1942 15.2895 20.3249 15.1629ZM7.62294 13.9882C7.72746 13.9892 7.83581 13.9903 7.95059 13.9903C7.95059 13.8982 7.94997 13.8123 7.94938 13.7309C7.94773 13.5024 7.94633 13.3086 7.95958 13.1099C7.97755 12.5709 8.35505 12.1846 8.85838 12.1936C9.35272 12.1936 9.73022 12.5799 9.74819 13.1279C9.75407 13.3039 9.75227 13.48 9.75031 13.6711C9.74927 13.7725 9.74819 13.8782 9.74819 13.9903C9.85214 13.9903 9.95296 13.9893 10.0517 13.9882C10.2433 13.9863 10.4272 13.9844 10.611 13.9903C11.1503 14.0083 11.5368 14.3856 11.5368 14.8797C11.5368 15.3828 11.1503 15.7601 10.611 15.778C10.4363 15.7839 10.2653 15.7821 10.0735 15.7802C9.9695 15.7792 9.85936 15.778 9.73921 15.778C9.73921 15.8797 9.74026 15.9771 9.74129 16.0717C9.74326 16.2531 9.74511 16.4244 9.73921 16.5956C9.73022 17.1795 9.37968 17.5658 8.85838 17.5748C8.32809 17.5838 7.95958 17.1885 7.95059 16.5776V15.778C7.83543 15.778 7.72673 15.7791 7.62226 15.7802C7.42506 15.7821 7.24292 15.7839 7.06078 15.778C6.53947 15.7511 6.16198 15.3828 6.15299 14.9066C6.13501 14.4125 6.51251 14.0172 7.05179 13.9903C7.24014 13.9844 7.42463 13.9862 7.62294 13.9882Z"/>
</mask>
<path fill-rule="evenodd" clip-rule="evenodd" d="M14.2602 8.01616H16.0398C16.0398 7.7369 16.0419 7.46379 16.0439 7.19441C16.0478 6.66654 16.0517 6.15298 16.0398 5.63548C16.0218 5.16833 15.6443 4.82695 15.1949 4.8C14.7455 4.78204 14.2961 5.09646 14.2692 5.54565C14.244 6.11679 14.2496 6.68793 14.2553 7.26519C14.2577 7.51421 14.2602 7.76437 14.2602 8.01616ZM2.17163 16.7875C1.89218 17.7184 1.61343 18.647 1.64999 19.641C1.64999 19.7009 1.64899 19.7608 1.64799 19.8207C1.646 19.9405 1.644 20.0603 1.64999 20.18C1.84773 23.3064 4.82276 25.3277 7.79779 24.3395C9.11903 23.8993 10.0628 23.0099 10.611 21.7342C11.1144 20.5753 11.9233 19.7219 13.1097 19.2996C14.3141 18.8684 15.5634 18.8774 16.7858 19.1739C18.125 19.5063 18.9879 20.4136 19.5451 21.6623C20.4709 23.7555 22.7898 24.9504 24.92 24.4563C27.4815 23.8633 29.1713 21.1772 28.4972 18.6349C27.913 16.4069 27.2838 14.1969 26.5827 12.0049C25.4862 8.57315 21.0731 7.19865 18.3857 9.66017C18.2778 9.75899 18.0891 9.82188 17.9453 9.82188C16.0578 9.83086 14.1703 9.83086 12.2828 9.82188C12.121 9.82188 11.9233 9.75899 11.8064 9.65119C9.04713 7.15373 4.53514 8.61806 3.51051 12.1846C3.41389 12.5147 3.31671 12.8449 3.21952 13.175C2.92797 14.1655 2.63643 15.1559 2.36004 16.1464C2.29973 16.3607 2.23566 16.5742 2.17163 16.7875ZM20.3249 15.1629C20.4251 15.0658 20.5348 14.9596 20.6596 14.8348C20.5639 14.7497 20.4724 14.6731 20.3856 14.6004C20.2524 14.4888 20.1303 14.3866 20.0215 14.2778C19.5631 13.8196 19.5361 13.2806 19.9226 12.8943C20.3091 12.508 20.8484 12.5529 21.3068 13.0111C21.4561 13.1604 21.5998 13.3153 21.7736 13.5025C21.8194 13.5519 21.8673 13.6035 21.918 13.6579C21.9899 13.5781 22.0578 13.5006 22.1237 13.4255C22.2802 13.247 22.425 13.082 22.5831 12.9302C22.9875 12.5439 23.5088 12.5349 23.8684 12.8853C24.2459 13.2536 24.2369 13.7927 23.8414 14.2059C23.6905 14.3632 23.5253 14.5062 23.3283 14.6768C23.2553 14.7399 23.178 14.8068 23.0954 14.8797C23.2079 14.9849 23.3146 15.0784 23.416 15.1673C23.5656 15.2985 23.7038 15.4196 23.8324 15.5535C24.2369 15.9757 24.2369 16.5147 23.8684 16.8741C23.4909 17.2424 22.9696 17.2244 22.5561 16.8112C22.422 16.6713 22.2993 16.5201 22.1633 16.3526C22.0897 16.262 22.0122 16.1665 21.927 16.0655C21.8213 16.1778 21.7289 16.2791 21.6437 16.3727C21.497 16.5336 21.3713 16.6715 21.2349 16.8022C20.8035 17.2154 20.2911 17.2424 19.9136 16.8741C19.5272 16.4967 19.5451 15.9577 19.9676 15.5175C20.0795 15.4006 20.1942 15.2895 20.3249 15.1629ZM7.62294 13.9882C7.72746 13.9892 7.83581 13.9903 7.95059 13.9903C7.95059 13.8982 7.94997 13.8123 7.94938 13.7309C7.94773 13.5024 7.94633 13.3086 7.95958 13.1099C7.97755 12.5709 8.35505 12.1846 8.85838 12.1936C9.35272 12.1936 9.73022 12.5799 9.74819 13.1279C9.75407 13.3039 9.75227 13.48 9.75031 13.6711C9.74927 13.7725 9.74819 13.8782 9.74819 13.9903C9.85214 13.9903 9.95296 13.9893 10.0517 13.9882C10.2433 13.9863 10.4272 13.9844 10.611 13.9903C11.1503 14.0083 11.5368 14.3856 11.5368 14.8797C11.5368 15.3828 11.1503 15.7601 10.611 15.778C10.4363 15.7839 10.2653 15.7821 10.0735 15.7802C9.9695 15.7792 9.85936 15.778 9.73921 15.778C9.73921 15.8797 9.74026 15.9771 9.74129 16.0717C9.74326 16.2531 9.74511 16.4244 9.73921 16.5956C9.73022 17.1795 9.37968 17.5658 8.85838 17.5748C8.32809 17.5838 7.95958 17.1885 7.95059 16.5776V15.778C7.83543 15.778 7.72673 15.7791 7.62226 15.7802C7.42506 15.7821 7.24292 15.7839 7.06078 15.778C6.53947 15.7511 6.16198 15.3828 6.15299 14.9066C6.13501 14.4125 6.51251 14.0172 7.05179 13.9903C7.24014 13.9844 7.42463 13.9862 7.62294 13.9882Z" fill="#E60000"/>
<path d="M16.0398 8.01616V9.01615H17.0398V8.01616H16.0398ZM14.2602 8.01616H13.2602V9.01615H14.2602V8.01616ZM16.0439 7.19441L17.0438 7.20193V7.20192L16.0439 7.19441ZM16.0398 5.63548L17.0395 5.61249L17.0394 5.60476L17.0391 5.59703L16.0398 5.63548ZM15.1949 4.8L15.2548 3.8018L15.2448 3.8012L15.2349 3.8008L15.1949 4.8ZM14.2692 5.54565L13.271 5.48573L13.2705 5.49372L13.2701 5.50171L14.2692 5.54565ZM14.2553 7.26519L15.2552 7.2554V7.2554L14.2553 7.26519ZM1.64999 19.641H2.64999V19.6226L2.64931 19.6043L1.64999 19.641ZM2.17163 16.7875L3.12941 17.075L3.12941 17.075L2.17163 16.7875ZM1.64799 19.8207L0.648132 19.804L1.64799 19.8207ZM1.64999 20.18L0.651153 20.23L0.651985 20.2432L1.64999 20.18ZM7.79779 24.3395L8.11302 25.2885L8.11388 25.2882L7.79779 24.3395ZM10.611 21.7342L9.69381 21.3358L9.6923 21.3394L10.611 21.7342ZM13.1097 19.2996L13.445 20.2418L13.4468 20.2411L13.1097 19.2996ZM16.7858 19.1739L17.0267 18.2033L17.0215 18.202L16.7858 19.1739ZM19.5451 21.6623L20.4597 21.2579L20.4583 21.2548L19.5451 21.6623ZM24.92 24.4563L24.6945 23.482L24.694 23.4821L24.92 24.4563ZM28.4972 18.6349L27.5299 18.8885L27.5306 18.8911L28.4972 18.6349ZM26.5827 12.0049L25.6302 12.3093L25.6303 12.3095L26.5827 12.0049ZM18.3857 9.66017L17.7102 8.92275L17.7101 8.92285L18.3857 9.66017ZM17.9453 9.82188V8.82187L17.9405 8.82189L17.9453 9.82188ZM12.2828 9.82188L12.2876 8.82188H12.2828V9.82188ZM11.8064 9.65119L12.4846 8.91619L12.4775 8.90978L11.8064 9.65119ZM3.51051 12.1846L4.47027 12.4655L4.47163 12.4607L3.51051 12.1846ZM3.21952 13.175L2.26022 12.8926L2.26022 12.8927L3.21952 13.175ZM2.36004 16.1464L3.32266 16.4172L3.32325 16.4152L2.36004 16.1464ZM20.6596 14.8348L21.3666 15.542L22.117 14.7919L21.3238 14.0872L20.6596 14.8348ZM20.3249 15.1629L21.0206 15.8812L21.0206 15.8812L20.3249 15.1629ZM20.3856 14.6004L19.7435 15.367L19.7435 15.367L20.3856 14.6004ZM20.0215 14.2778L20.7284 13.5705L20.7284 13.5705L20.0215 14.2778ZM19.9226 12.8943L19.2157 12.187L19.2157 12.187L19.9226 12.8943ZM21.3068 13.0111L22.0137 12.3038L22.0137 12.3038L21.3068 13.0111ZM21.7736 13.5025L21.0405 14.1826L21.0405 14.1826L21.7736 13.5025ZM21.918 13.6579L21.1862 14.3395L21.9305 15.1385L22.6611 14.327L21.918 13.6579ZM22.1237 13.4255L21.3719 12.7661L21.3719 12.7661L22.1237 13.4255ZM22.5831 12.9302L21.8924 12.2071L21.8907 12.2087L22.5831 12.9302ZM23.8684 12.8853L24.5667 12.1696L24.5663 12.1691L23.8684 12.8853ZM23.8414 14.2059L24.5632 14.898L24.5639 14.8973L23.8414 14.2059ZM23.3283 14.6768L22.6739 13.9206L22.6739 13.9206L23.3283 14.6768ZM23.0954 14.8797L22.434 14.1297L21.6081 14.858L22.4124 15.6101L23.0954 14.8797ZM23.416 15.1673L22.7568 15.9193L22.7568 15.9193L23.416 15.1673ZM23.8324 15.5535L24.5546 14.8617L24.5536 14.8607L23.8324 15.5535ZM23.8684 16.8741L23.1702 16.1581L23.17 16.1583L23.8684 16.8741ZM22.5561 16.8112L21.8343 17.5032L21.8417 17.5109L21.8492 17.5184L22.5561 16.8112ZM22.1633 16.3526L22.9397 15.7224L22.9397 15.7224L22.1633 16.3526ZM21.927 16.0655L22.6911 15.4205L21.9677 14.5635L21.1989 15.38L21.927 16.0655ZM21.6437 16.3727L22.3828 17.0462L22.3828 17.0462L21.6437 16.3727ZM21.2349 16.8022L21.9266 17.5243L21.9266 17.5243L21.2349 16.8022ZM19.9136 16.8741L19.2151 17.5896L19.2153 17.5898L19.9136 16.8741ZM19.9676 15.5175L20.6891 16.2099L20.69 16.2089L19.9676 15.5175ZM7.95059 13.9903V14.9903H8.95059V13.9903H7.95059ZM7.62294 13.9882L7.61306 14.9881H7.61307L7.62294 13.9882ZM7.94938 13.7309L8.94935 13.7236V13.7236L7.94938 13.7309ZM7.95958 13.1099L8.95736 13.1764L8.95847 13.1599L8.95902 13.1432L7.95958 13.1099ZM8.85838 12.1936L8.84053 13.1934L8.84946 13.1936H8.85838V12.1936ZM9.74819 13.1279L8.74873 13.1607L8.74875 13.1612L9.74819 13.1279ZM9.75031 13.6711L10.7503 13.6813V13.6813L9.75031 13.6711ZM9.74819 13.9903H8.74819V14.9903H9.74819V13.9903ZM10.0517 13.9882L10.062 14.9882H10.062L10.0517 13.9882ZM10.611 13.9903L10.6443 12.9909L10.6433 12.9908L10.611 13.9903ZM10.611 15.778L10.6443 16.7775H10.6443L10.611 15.778ZM10.0735 15.7802L10.0836 14.7803H10.0836L10.0735 15.7802ZM9.73921 15.778V14.778H8.73921V15.778H9.73921ZM9.74129 16.0717L8.74135 16.0826V16.0826L9.74129 16.0717ZM9.73921 16.5956L8.7398 16.5611L8.73947 16.5706L8.73932 16.5802L9.73921 16.5956ZM8.85838 17.5748L8.87532 18.5746L8.87561 18.5746L8.85838 17.5748ZM7.95059 16.5776H6.95059V16.585L6.9507 16.5923L7.95059 16.5776ZM7.95059 15.778H8.95059V14.778H7.95059V15.778ZM7.62226 15.7802L7.63217 16.7801L7.63217 16.7801L7.62226 15.7802ZM7.06078 15.778L7.00915 16.7767L7.01885 16.7772L7.02855 16.7775L7.06078 15.778ZM6.15299 14.9066L7.15281 14.8878L7.15264 14.879L7.15233 14.8703L6.15299 14.9066ZM7.05179 13.9903L7.02057 12.9908L7.01122 12.9911L7.00188 12.9915L7.05179 13.9903ZM16.0398 7.01616H14.2602V9.01615H16.0398V7.01616ZM15.0439 7.1869C15.0419 7.45572 15.0398 7.73254 15.0398 8.01616H17.0398C17.0398 7.74125 17.0418 7.47185 17.0438 7.20193L15.0439 7.1869ZM15.0401 5.65848C15.0516 6.15817 15.0479 6.65646 15.0439 7.1869L17.0438 7.20192C17.0478 6.67661 17.0518 6.14779 17.0395 5.61249L15.0401 5.65848ZM15.1351 5.79821C15.1252 5.79762 15.1064 5.7931 15.0856 5.77306C15.0746 5.76251 15.0631 5.74753 15.0542 5.72807C15.045 5.70788 15.0411 5.68845 15.0405 5.67394L17.0391 5.59703C16.9993 4.56352 16.1633 3.85628 15.2548 3.8018L15.1351 5.79821ZM15.2674 5.60557C15.2607 5.71672 15.201 5.77668 15.1842 5.78964C15.1756 5.79622 15.171 5.79762 15.1703 5.79785C15.1694 5.79815 15.1648 5.7996 15.155 5.7992L15.2349 3.8008C14.394 3.76718 13.339 4.35237 13.271 5.48573L15.2674 5.60557ZM15.2552 7.2554C15.2495 6.67359 15.2445 6.12938 15.2682 5.58958L13.2701 5.50171C13.2436 6.10419 13.2497 6.70226 13.2553 7.27498L15.2552 7.2554ZM15.2602 8.01616C15.2602 7.75867 15.2577 7.50363 15.2552 7.2554L13.2553 7.27498C13.2578 7.52478 13.2602 7.77007 13.2602 8.01616H15.2602ZM2.64931 19.6043C2.61982 18.8025 2.8423 18.0314 3.12941 17.075L1.21385 16.5C0.942055 17.4054 0.607032 18.4915 0.650667 19.6778L2.64931 19.6043ZM2.64785 19.8374C2.64883 19.7789 2.64999 19.7106 2.64999 19.641H0.649991C0.649991 19.6912 0.649154 19.7427 0.648132 19.804L2.64785 19.8374ZM2.64874 20.1301C2.64469 20.0491 2.64576 19.9627 2.64785 19.8374L0.648132 19.804C0.646228 19.9183 0.643305 20.0714 0.65124 20.23L2.64874 20.1301ZM7.48256 23.3905C5.134 24.1706 2.80462 22.5931 2.648 20.1169L0.651985 20.2432C0.890839 24.0196 4.51152 26.4848 8.11302 25.2885L7.48256 23.3905ZM9.6923 21.3394C9.25322 22.361 8.52399 23.0435 7.4817 23.3908L8.11388 25.2882C9.71408 24.7551 10.8723 23.6588 11.5298 22.1291L9.6923 21.3394ZM12.7744 18.3575C11.2862 18.8872 10.2889 19.9657 9.69382 21.3358L11.5283 22.1326C11.9398 21.185 12.5603 20.5566 13.445 20.2418L12.7744 18.3575ZM17.0215 18.202C15.6508 17.8696 14.1973 17.8481 12.7726 18.3582L13.4468 20.2411C14.4309 19.8888 15.4761 19.8852 16.5501 20.1457L17.0215 18.202ZM20.4583 21.2548C19.8114 19.8051 18.7407 18.6287 17.0267 18.2033L16.5449 20.1444C17.5094 20.3838 18.1644 21.0222 18.6319 22.0699L20.4583 21.2548ZM24.694 23.4821C23.0566 23.8619 21.2019 22.9361 20.4597 21.2579L18.6306 22.0668C19.7399 24.575 22.523 26.0388 25.1459 25.4304L24.694 23.4821ZM27.5306 18.8911C28.054 20.8651 26.7289 23.0111 24.6945 23.482L25.1455 25.4305C28.2342 24.7156 30.2886 21.4894 29.4638 18.3786L27.5306 18.8911ZM25.6303 12.3095C26.3249 14.4813 26.9492 16.6738 27.5299 18.8885L29.4645 18.3812C28.8768 16.14 28.2428 13.9126 27.5352 11.7003L25.6303 12.3095ZM19.0611 10.3976C21.1619 8.47338 24.7354 9.50889 25.6302 12.3093L27.5353 11.7005C26.237 7.6374 20.9843 5.92391 17.7102 8.92275L19.0611 10.3976ZM17.9453 10.8219C18.2977 10.8219 18.7405 10.6913 19.0612 10.3975L17.7101 8.92285C17.7495 8.88677 17.7824 8.86621 17.8005 8.85601C17.8196 8.84525 17.8338 8.83947 17.8428 8.83629C17.8519 8.83303 17.8621 8.83012 17.875 8.8277C17.887 8.82544 17.9105 8.82188 17.9453 8.82188V10.8219ZM12.2781 10.8219C14.1687 10.8309 16.0594 10.8309 17.95 10.8219L17.9405 8.82189C16.0562 8.83086 14.1719 8.83086 12.2876 8.82189L12.2781 10.8219ZM11.1283 10.3862C11.4689 10.7004 11.9284 10.8219 12.2828 10.8219V8.82188C12.323 8.82188 12.3436 8.82806 12.3552 8.83207C12.3635 8.83495 12.3777 8.84056 12.397 8.8514C12.4157 8.86188 12.4473 8.88188 12.4846 8.91622L11.1283 10.3862ZM4.47163 12.4607C5.30936 9.54477 8.97076 8.43339 11.1354 10.3926L12.4775 8.90978C9.12349 5.87407 3.76093 7.69136 2.54939 11.9085L4.47163 12.4607ZM4.17883 13.4574C4.27597 13.1274 4.37338 12.7965 4.47025 12.4655L2.55077 11.9037C2.4544 12.233 2.35744 12.5624 2.26022 12.8926L4.17883 13.4574ZM3.32325 16.4152C3.59741 15.4327 3.88694 14.449 4.17883 13.4574L2.26022 12.8927C1.96901 13.8819 1.67544 14.8792 1.39684 15.8776L3.32325 16.4152ZM3.12941 17.075C3.19302 16.8631 3.2596 16.6413 3.32266 16.4172L1.39743 15.8755C1.33985 16.0801 1.2783 16.2853 1.21385 16.5L3.12941 17.075ZM19.9527 14.1275C19.834 14.2461 19.7296 14.3473 19.6291 14.4446L21.0206 15.8812C21.1207 15.7842 21.2355 15.6731 21.3666 15.542L19.9527 14.1275ZM19.7435 15.367C19.8314 15.4406 19.9122 15.5084 19.9955 15.5823L21.3238 14.0872C21.2156 13.9911 21.1134 13.9055 21.0277 13.8337L19.7435 15.367ZM19.3146 14.985C19.4602 15.1306 19.6176 15.2615 19.7435 15.367L21.0277 13.8337C20.8872 13.7161 20.8005 13.6425 20.7284 13.5705L19.3146 14.985ZM19.2157 12.187C18.8391 12.5634 18.621 13.0692 18.6574 13.6244C18.6926 14.1622 18.9574 14.628 19.3146 14.9851L20.7284 13.5705C20.6272 13.4693 20.6494 13.4366 20.6531 13.4938C20.6549 13.5215 20.6502 13.5525 20.6395 13.5793C20.6292 13.605 20.6199 13.6112 20.6296 13.6016L19.2157 12.187ZM22.0137 12.3038C21.6629 11.9532 21.2042 11.6843 20.6715 11.6395C20.1157 11.5928 19.6009 11.802 19.2157 12.187L20.6296 13.6016C20.6361 13.595 20.6258 13.6072 20.5954 13.6189C20.564 13.6309 20.5307 13.6347 20.504 13.6325C20.4521 13.6281 20.4923 13.6108 20.5998 13.7184L22.0137 12.3038ZM22.5066 12.8223C22.3357 12.6381 22.1788 12.4688 22.0137 12.3038L20.5998 13.7184C20.7334 13.8519 20.864 13.9924 21.0405 14.1826L22.5066 12.8223ZM22.6497 12.9763C22.5998 12.9227 22.5525 12.8718 22.5066 12.8223L21.0405 14.1826C21.0863 14.2319 21.1348 14.2843 21.1862 14.3395L22.6497 12.9763ZM21.3719 12.7661C21.3054 12.8418 21.2417 12.9145 21.1748 12.9888L22.6611 14.327C22.738 14.2416 22.8102 14.1593 22.8755 14.0848L21.3719 12.7661ZM21.8907 12.2087C21.6961 12.3954 21.523 12.5938 21.3719 12.7661L22.8755 14.0848C23.0374 13.9003 23.1538 13.7685 23.2754 13.6518L21.8907 12.2087ZM24.5663 12.1691C24.2028 11.8149 23.7237 11.6167 23.2128 11.632C22.7075 11.647 22.2482 11.8673 21.8924 12.2071L23.2738 13.6534C23.2987 13.6296 23.3127 13.6236 23.3115 13.6242C23.3098 13.6249 23.2963 13.6304 23.2724 13.6311C23.2481 13.6318 23.2228 13.6273 23.2007 13.6184C23.1788 13.6096 23.1693 13.6004 23.1704 13.6015L24.5663 12.1691ZM24.5639 14.8973C24.9098 14.5358 25.1346 14.0657 25.1446 13.5481C25.1547 13.0232 24.9412 12.5349 24.5667 12.1696L23.17 13.601C23.1749 13.6058 23.1669 13.5994 23.1582 13.5788C23.1494 13.558 23.1445 13.5334 23.1449 13.5094C23.1452 13.4982 23.1465 13.4891 23.148 13.4825C23.1495 13.4759 23.1509 13.4727 23.1509 13.4728C23.1508 13.4729 23.1491 13.4767 23.1443 13.4838C23.1395 13.4909 23.1315 13.5014 23.1189 13.5145L24.5639 14.8973ZM23.9827 15.4329C24.1721 15.2689 24.3743 15.095 24.5632 14.898L23.1196 13.5138C23.0068 13.6314 22.8785 13.7435 22.6739 13.9206L23.9827 15.4329ZM23.7568 15.6297C23.8354 15.5604 23.9094 15.4963 23.9827 15.4329L22.6739 13.9206C22.6013 13.9835 22.5205 14.0533 22.434 14.1297L23.7568 15.6297ZM24.0751 14.4153C23.9726 14.3254 23.8775 14.2419 23.7784 14.1492L22.4124 15.6101C22.5383 15.7278 22.6565 15.8314 22.7568 15.9193L24.0751 14.4153ZM24.5536 14.8607C24.3902 14.6906 24.219 14.5413 24.0751 14.4153L22.7568 15.9193C22.9123 16.0556 23.0174 16.1486 23.1112 16.2462L24.5536 14.8607ZM24.5665 17.59C24.9375 17.2283 25.1502 16.7418 25.1401 16.218C25.1301 15.6999 24.905 15.2275 24.5546 14.8617L23.1103 16.2452C23.1378 16.274 23.1456 16.2912 23.146 16.292C23.1462 16.2924 23.1409 16.2801 23.1404 16.2567C23.14 16.2329 23.1448 16.2079 23.154 16.1862C23.163 16.1648 23.1721 16.1562 23.1702 16.1581L24.5665 17.59ZM21.8492 17.5184C22.1992 17.8683 22.6593 18.1117 23.1817 18.1347C23.7128 18.1582 24.1997 17.948 24.5667 17.5898L23.17 16.1583C23.1614 16.1667 23.1665 16.159 23.1887 16.1501C23.2117 16.1409 23.2405 16.1354 23.2698 16.1367C23.2834 16.1373 23.2945 16.1392 23.3026 16.1413C23.3106 16.1434 23.3145 16.1452 23.3142 16.1451C23.3137 16.1449 23.2949 16.1357 23.2631 16.1039L21.8492 17.5184ZM21.387 16.9829C21.5178 17.1441 21.6666 17.3284 21.8343 17.5032L23.2779 16.1191C23.1774 16.0143 23.0808 15.8961 22.9397 15.7224L21.387 16.9829ZM21.1628 16.7106C21.241 16.8032 21.3127 16.8915 21.387 16.9829L22.9397 15.7224C22.8667 15.6324 22.7834 15.5298 22.6911 15.4205L21.1628 16.7106ZM22.3828 17.0462C22.4683 16.9524 22.5556 16.8566 22.655 16.7511L21.1989 15.38C21.0869 15.4989 20.9895 15.6059 20.9045 15.6991L22.3828 17.0462ZM21.9266 17.5243C22.0919 17.366 22.2406 17.2022 22.3828 17.0462L20.9045 15.6991C20.7533 15.865 20.6507 15.977 20.5431 16.08L21.9266 17.5243ZM19.2153 17.5898C19.5848 17.9503 20.0735 18.1586 20.6079 18.1298C21.1268 18.1018 21.5789 17.8574 21.9266 17.5243L20.5431 16.08C20.4594 16.1603 20.4397 16.1359 20.5002 16.1327C20.5295 16.1311 20.5608 16.1362 20.5876 16.1469C20.6134 16.1571 20.6204 16.1665 20.612 16.1583L19.2153 17.5898ZM19.2461 14.8251C18.9004 15.1853 18.658 15.6533 18.638 16.1815C18.6174 16.7227 18.8359 17.2194 19.2151 17.5896L20.6122 16.1585C20.6043 16.1508 20.6129 16.1568 20.6226 16.18C20.6326 16.2039 20.6375 16.2317 20.6365 16.2573C20.6345 16.3116 20.6123 16.2899 20.6891 16.2099L19.2461 14.8251ZM19.6291 14.4446C19.5011 14.5686 19.3724 14.6931 19.2451 14.8261L20.69 16.2089C20.7865 16.1081 20.8874 16.0103 21.0206 15.8812L19.6291 14.4446ZM7.95059 12.9903C7.84148 12.9903 7.7379 12.9893 7.63281 12.9882L7.61307 14.9881C7.71702 14.9892 7.83014 14.9903 7.95059 14.9903V12.9903ZM6.94941 13.7381C6.95 13.8199 6.95059 13.9023 6.95059 13.9903H8.95059C8.95059 13.8941 8.94994 13.8047 8.94935 13.7236L6.94941 13.7381ZM6.96179 13.0433C6.94566 13.2853 6.9478 13.5166 6.94941 13.7381L8.94935 13.7236C8.94765 13.4881 8.947 13.3318 8.95736 13.1764L6.96179 13.0433ZM8.87622 11.1937C7.76099 11.1738 6.99404 12.0598 6.96013 13.0766L8.95902 13.1432C8.96044 13.1007 8.97232 13.1144 8.94126 13.1461C8.92687 13.1608 8.9076 13.1742 8.88546 13.1832C8.86305 13.1924 8.84624 13.1935 8.84053 13.1934L8.87622 11.1937ZM10.7477 13.0951C10.7143 12.0777 9.95954 11.1936 8.85838 11.1936V13.1936C8.85033 13.1936 8.83312 13.1917 8.81175 13.1826C8.79066 13.1736 8.77306 13.1608 8.76041 13.1476C8.73268 13.1187 8.74708 13.1103 8.74873 13.1607L10.7477 13.0951ZM10.7503 13.6813C10.7522 13.4943 10.7544 13.2962 10.7476 13.0945L8.74875 13.1612C8.75377 13.3117 8.75236 13.4657 8.75036 13.6609L10.7503 13.6813ZM10.7482 13.9903C10.7482 13.884 10.7492 13.7833 10.7503 13.6813L8.75036 13.6609C8.74933 13.7617 8.74819 13.8723 8.74819 13.9903H10.7482ZM10.0414 12.9883C9.94194 12.9893 9.84617 12.9903 9.74819 12.9903V14.9903C9.8581 14.9903 9.96399 14.9892 10.062 14.9882L10.0414 12.9883ZM10.6433 12.9908C10.4345 12.9841 10.2293 12.9864 10.0414 12.9883L10.062 14.9882C10.2574 14.9862 10.4198 14.9847 10.5788 14.9898L10.6433 12.9908ZM12.5368 14.8797C12.5368 13.7837 11.6579 13.0246 10.6443 12.9909L10.5777 14.9897C10.6202 14.9912 10.6098 15.0031 10.5816 14.9759C10.5687 14.9635 10.5563 14.9463 10.5476 14.9258C10.5387 14.9049 10.5368 14.8879 10.5368 14.8797H12.5368ZM10.6443 16.7775C11.6647 16.7435 12.5368 15.9783 12.5368 14.8797H10.5368C10.5368 14.8761 10.5378 14.8621 10.5459 14.8427C10.554 14.8236 10.5659 14.8066 10.5791 14.7938C10.6082 14.7655 10.62 14.7772 10.5777 14.7786L10.6443 16.7775ZM10.0634 16.7802C10.2513 16.7821 10.4442 16.7842 10.6443 16.7775L10.5777 14.7786C10.4284 14.7836 10.2792 14.7822 10.0836 14.7803L10.0634 16.7802ZM9.73921 16.778C9.85361 16.778 9.95897 16.7791 10.0634 16.7802L10.0836 14.7803C9.98003 14.7792 9.8651 14.778 9.73921 14.778V16.778ZM10.7412 16.0609C10.7402 15.9656 10.7392 15.8734 10.7392 15.778H8.73921C8.73921 15.8859 8.74033 15.9886 8.74135 16.0826L10.7412 16.0609ZM10.7386 16.63C10.7454 16.4323 10.7432 16.2382 10.7412 16.0609L8.74135 16.0826C8.74336 16.2681 8.74479 16.4164 8.7398 16.5611L10.7386 16.63ZM8.87561 18.5746C9.39271 18.5657 9.88063 18.3618 10.2336 17.9705C10.5787 17.5877 10.7316 17.0977 10.7391 16.611L8.73932 16.5802C8.73783 16.6774 8.71098 16.6724 8.74826 16.6311C8.76582 16.6116 8.78898 16.5948 8.81319 16.5842C8.83679 16.5739 8.84888 16.5748 8.84115 16.5749L8.87561 18.5746ZM6.9507 16.5923C6.95806 17.0928 7.1157 17.5958 7.47181 17.9843C7.83705 18.3828 8.34272 18.5837 8.87532 18.5746L8.84144 16.5749C8.83627 16.575 8.8511 16.5741 8.87736 16.585C8.90419 16.5962 8.92853 16.6137 8.94618 16.633C8.98322 16.6734 8.95211 16.6733 8.95048 16.5629L6.9507 16.5923ZM6.95059 15.778V16.5776H8.95059V15.778H6.95059ZM7.63217 16.7801C7.7372 16.7791 7.84112 16.778 7.95059 16.778V14.778C7.82974 14.778 7.71626 14.7792 7.61235 14.7802L7.63217 16.7801ZM7.02855 16.7775C7.2354 16.7842 7.43891 16.782 7.63217 16.7801L7.61235 14.7802C7.41121 14.7822 7.25043 14.7836 7.093 14.7786L7.02855 16.7775ZM5.15317 14.9255C5.17322 15.988 6.0274 16.726 7.00915 16.7767L7.11241 14.7794C7.07597 14.7775 7.08449 14.7674 7.109 14.791C7.12035 14.802 7.13207 14.8177 7.14076 14.8374C7.14963 14.8576 7.15258 14.8758 7.15281 14.8878L5.15317 14.9255ZM7.00188 12.9915C5.97229 13.043 5.11381 13.8479 5.15365 14.943L7.15233 14.8703C7.15268 14.88 7.1511 14.8977 7.14291 14.9189C7.13487 14.9397 7.12297 14.9575 7.11011 14.9707C7.08177 14.9998 7.06719 14.9908 7.1017 14.9891L7.00188 12.9915ZM7.63282 12.9882C7.43799 12.9863 7.2329 12.9842 7.02057 12.9908L7.08301 14.9898C7.24737 14.9847 7.41127 14.9862 7.61306 14.9881L7.63282 12.9882Z" fill="#E60000" mask="url(#path-1-inside-1_288_4681)"/>
</g>
</g>
<defs>
<filter id="filter0_b_288_4681" x="-10.354" y="-7.20073" width="51" height="43.7927" filterUnits="userSpaceOnUse" color-interpolation-filters="sRGB">
<feFlood flood-opacity="0" result="BackgroundImageFix"/>
<feGaussianBlur in="BackgroundImageFix" stdDeviation="6"/>
<feComposite in2="SourceAlpha" operator="in" result="effect1_backgroundBlur_288_4681"/>
<feBlend mode="normal" in="SourceGraphic" in2="effect1_backgroundBlur_288_4681" result="shape"/>
</filter>
<clipPath id="clip0_288_4681">
<rect width="27" height="19.8" fill="white" transform="translate(1.6499 4.8)"/>
</clipPath>
</defs>
</svg>
