<svg width="24" height="24" viewBox="0 0 24 24" fill="none" xmlns="http://www.w3.org/2000/svg">
<g clip-path="url(#clip0_291_5144)">
<g filter="url(#filter0_b_291_5144)">
<mask id="path-1-inside-1_291_5144" fill="white">
<path fill-rule="evenodd" clip-rule="evenodd" d="M11.4077 6.41292H12.8314C12.8314 6.18951 12.8331 5.97103 12.8347 5.75553C12.8379 5.33323 12.841 4.92238 12.8314 4.50838C12.8171 4.13466 12.5151 3.86156 12.1555 3.84C11.796 3.82562 11.4365 4.07717 11.4149 4.43651C11.3948 4.89343 11.3993 5.35034 11.4038 5.81215C11.4058 6.01136 11.4077 6.21149 11.4077 6.41292ZM1.73691 13.43C1.51335 14.1747 1.29035 14.9176 1.3196 15.7128C1.3196 15.7607 1.3188 15.8086 1.318 15.8566C1.31641 15.9524 1.31481 16.0482 1.3196 16.144C1.47779 18.6451 3.85782 20.2621 6.23784 19.4716C7.29484 19.1194 8.04983 18.4079 8.48844 17.3874C8.89111 16.4603 9.53825 15.7775 10.4874 15.4397C11.4509 15.0947 12.4504 15.1019 13.4283 15.3391C14.4996 15.605 15.1899 16.3309 15.6357 17.3299C16.3763 19.0044 18.2315 19.9603 19.9356 19.565C21.9848 19.0907 23.3366 16.9418 22.7974 14.9079C22.33 13.1255 21.8267 11.3575 21.2658 9.60392C20.3886 6.85851 16.8581 5.75891 14.7082 7.72813C14.6219 7.80719 14.4709 7.8575 14.3558 7.8575C12.8458 7.86468 11.3358 7.86468 9.82586 7.8575C9.69643 7.8575 9.53825 7.80719 9.44477 7.72095C7.23731 5.72298 3.62772 6.89445 2.80802 9.74766C2.73072 10.0118 2.65297 10.2759 2.57523 10.54C2.34199 11.3324 2.10875 12.1247 1.88764 12.9171C1.83939 13.0886 1.78814 13.2593 1.73691 13.43ZM16.2595 12.1303C16.3397 12.0526 16.4274 11.9677 16.5273 11.8678C16.4507 11.7998 16.3775 11.7384 16.3081 11.6803C16.2015 11.591 16.1039 11.5093 16.0168 11.4222C15.6501 11.0557 15.6285 10.6245 15.9377 10.3154C16.2469 10.0064 16.6783 10.0423 17.045 10.4089C17.1645 10.5283 17.2795 10.6522 17.4185 10.802C17.4551 10.8415 17.4935 10.8828 17.534 10.9263C17.5915 10.8624 17.6459 10.8004 17.6986 10.7403C17.8238 10.5976 17.9396 10.4656 18.0661 10.3442C18.3896 10.0351 18.8067 10.028 19.0943 10.3082C19.3963 10.6029 19.3891 11.0341 19.0727 11.3647C18.952 11.4906 18.8199 11.605 18.6622 11.7414C18.6039 11.7919 18.542 11.8455 18.4759 11.9037C18.566 11.9879 18.6513 12.0627 18.7324 12.1338C18.8521 12.2388 18.9627 12.3356 19.0655 12.4428C19.3891 12.7805 19.3891 13.2118 19.0943 13.4992C18.7923 13.7939 18.3753 13.7795 18.0445 13.4489C17.9372 13.337 17.839 13.2161 17.7303 13.0821C17.6714 13.0096 17.6094 12.9332 17.5412 12.8524C17.4566 12.9422 17.3827 13.0233 17.3145 13.0981C17.1972 13.2269 17.0967 13.3372 16.9875 13.4417C16.6424 13.7723 16.2325 13.7939 15.9305 13.4992C15.6213 13.1974 15.6357 12.7662 15.9737 12.414C16.0632 12.3205 16.155 12.2315 16.2595 12.1303ZM6.09796 11.1906C6.18158 11.1914 6.26826 11.1922 6.36008 11.1922C6.36008 11.1186 6.35958 11.0499 6.35911 10.9847C6.35779 10.8019 6.35667 10.6469 6.36727 10.4879C6.38165 10.0567 6.68365 9.74766 7.08631 9.75485C7.48179 9.75485 7.78378 10.0639 7.79816 10.5023C7.80286 10.6431 7.80142 10.784 7.79986 10.9369C7.79903 11.018 7.79816 11.1025 7.79816 11.1922C7.88132 11.1922 7.96198 11.1914 8.04099 11.1906C8.19427 11.189 8.34136 11.1875 8.48844 11.1922C8.91987 11.2066 9.22906 11.5085 9.22906 11.9037C9.22906 12.3062 8.91987 12.6081 8.48844 12.6224C8.34862 12.6271 8.21181 12.6257 8.05844 12.6242C7.97521 12.6233 7.8871 12.6224 7.79097 12.6224C7.79097 12.7037 7.79182 12.7817 7.79264 12.8574C7.79421 13.0025 7.7957 13.1395 7.79097 13.2764C7.78378 13.7436 7.50336 14.0526 7.08631 14.0598C6.66208 14.067 6.36727 13.7508 6.36008 13.2621V12.6224C6.26795 12.6224 6.18099 12.6233 6.09742 12.6241C5.93966 12.6257 5.79394 12.6271 5.64823 12.6224C5.23119 12.6009 4.92919 12.3062 4.922 11.9253C4.90762 11.53 5.20962 11.2138 5.64104 11.1922C5.79172 11.1875 5.93932 11.189 6.09796 11.1906Z"/>
</mask>
<path fill-rule="evenodd" clip-rule="evenodd" d="M11.4077 6.41292H12.8314C12.8314 6.18951 12.8331 5.97103 12.8347 5.75553C12.8379 5.33323 12.841 4.92238 12.8314 4.50838C12.8171 4.13466 12.5151 3.86156 12.1555 3.84C11.796 3.82562 11.4365 4.07717 11.4149 4.43651C11.3948 4.89343 11.3993 5.35034 11.4038 5.81215C11.4058 6.01136 11.4077 6.21149 11.4077 6.41292ZM1.73691 13.43C1.51335 14.1747 1.29035 14.9176 1.3196 15.7128C1.3196 15.7607 1.3188 15.8086 1.318 15.8566C1.31641 15.9524 1.31481 16.0482 1.3196 16.144C1.47779 18.6451 3.85782 20.2621 6.23784 19.4716C7.29484 19.1194 8.04983 18.4079 8.48844 17.3874C8.89111 16.4603 9.53825 15.7775 10.4874 15.4397C11.4509 15.0947 12.4504 15.1019 13.4283 15.3391C14.4996 15.605 15.1899 16.3309 15.6357 17.3299C16.3763 19.0044 18.2315 19.9603 19.9356 19.565C21.9848 19.0907 23.3366 16.9418 22.7974 14.9079C22.33 13.1255 21.8267 11.3575 21.2658 9.60392C20.3886 6.85851 16.8581 5.75891 14.7082 7.72813C14.6219 7.80719 14.4709 7.8575 14.3558 7.8575C12.8458 7.86468 11.3358 7.86468 9.82586 7.8575C9.69643 7.8575 9.53825 7.80719 9.44477 7.72095C7.23731 5.72298 3.62772 6.89445 2.80802 9.74766C2.73072 10.0118 2.65297 10.2759 2.57523 10.54C2.34199 11.3324 2.10875 12.1247 1.88764 12.9171C1.83939 13.0886 1.78814 13.2593 1.73691 13.43ZM16.2595 12.1303C16.3397 12.0526 16.4274 11.9677 16.5273 11.8678C16.4507 11.7998 16.3775 11.7384 16.3081 11.6803C16.2015 11.591 16.1039 11.5093 16.0168 11.4222C15.6501 11.0557 15.6285 10.6245 15.9377 10.3154C16.2469 10.0064 16.6783 10.0423 17.045 10.4089C17.1645 10.5283 17.2795 10.6522 17.4185 10.802C17.4551 10.8415 17.4935 10.8828 17.534 10.9263C17.5915 10.8624 17.6459 10.8004 17.6986 10.7403C17.8238 10.5976 17.9396 10.4656 18.0661 10.3442C18.3896 10.0351 18.8067 10.028 19.0943 10.3082C19.3963 10.6029 19.3891 11.0341 19.0727 11.3647C18.952 11.4906 18.8199 11.605 18.6622 11.7414C18.6039 11.7919 18.542 11.8455 18.4759 11.9037C18.566 11.9879 18.6513 12.0627 18.7324 12.1338C18.8521 12.2388 18.9627 12.3356 19.0655 12.4428C19.3891 12.7805 19.3891 13.2118 19.0943 13.4992C18.7923 13.7939 18.3753 13.7795 18.0445 13.4489C17.9372 13.337 17.839 13.2161 17.7303 13.0821C17.6714 13.0096 17.6094 12.9332 17.5412 12.8524C17.4566 12.9422 17.3827 13.0233 17.3145 13.0981C17.1972 13.2269 17.0967 13.3372 16.9875 13.4417C16.6424 13.7723 16.2325 13.7939 15.9305 13.4992C15.6213 13.1974 15.6357 12.7662 15.9737 12.414C16.0632 12.3205 16.155 12.2315 16.2595 12.1303ZM6.09796 11.1906C6.18158 11.1914 6.26826 11.1922 6.36008 11.1922C6.36008 11.1186 6.35958 11.0499 6.35911 10.9847C6.35779 10.8019 6.35667 10.6469 6.36727 10.4879C6.38165 10.0567 6.68365 9.74766 7.08631 9.75485C7.48179 9.75485 7.78378 10.0639 7.79816 10.5023C7.80286 10.6431 7.80142 10.784 7.79986 10.9369C7.79903 11.018 7.79816 11.1025 7.79816 11.1922C7.88132 11.1922 7.96198 11.1914 8.04099 11.1906C8.19427 11.189 8.34136 11.1875 8.48844 11.1922C8.91987 11.2066 9.22906 11.5085 9.22906 11.9037C9.22906 12.3062 8.91987 12.6081 8.48844 12.6224C8.34862 12.6271 8.21181 12.6257 8.05844 12.6242C7.97521 12.6233 7.8871 12.6224 7.79097 12.6224C7.79097 12.7037 7.79182 12.7817 7.79264 12.8574C7.79421 13.0025 7.7957 13.1395 7.79097 13.2764C7.78378 13.7436 7.50336 14.0526 7.08631 14.0598C6.66208 14.067 6.36727 13.7508 6.36008 13.2621V12.6224C6.26795 12.6224 6.18099 12.6233 6.09742 12.6241C5.93966 12.6257 5.79394 12.6271 5.64823 12.6224C5.23119 12.6009 4.92919 12.3062 4.922 11.9253C4.90762 11.53 5.20962 11.2138 5.64104 11.1922C5.79172 11.1875 5.93932 11.189 6.09796 11.1906Z" fill="#E60000"/>
<path d="M12.8314 6.41292V7.41292H13.8314V6.41292H12.8314ZM11.4077 6.41292H10.4077V7.41292H11.4077V6.41292ZM12.8347 5.75553L13.8347 5.76304V5.76304L12.8347 5.75553ZM12.8314 4.50838L13.8312 4.48539L13.831 4.47766L13.8307 4.46993L12.8314 4.50838ZM12.1555 3.84L12.2154 2.84179L12.2055 2.8412L12.1955 2.8408L12.1555 3.84ZM11.4149 4.43651L10.4167 4.37659L10.4163 4.38458L10.4159 4.39258L11.4149 4.43651ZM11.4038 5.81215L12.4038 5.80236V5.80236L11.4038 5.81215ZM1.3196 15.7128H2.3196V15.6944L2.31893 15.6761L1.3196 15.7128ZM1.73691 13.43L2.69469 13.7175L2.69469 13.7175L1.73691 13.43ZM1.318 15.8566L0.318143 15.8399L1.318 15.8566ZM1.3196 16.144L0.320764 16.194L0.321596 16.2072L1.3196 16.144ZM6.23784 19.4716L6.55307 20.4206L6.55393 20.4203L6.23784 19.4716ZM8.48844 17.3874L7.57121 16.989L7.5697 16.9925L8.48844 17.3874ZM10.4874 15.4397L10.8227 16.3818L10.8245 16.3812L10.4874 15.4397ZM13.4283 15.3391L13.6692 14.3685L13.664 14.3673L13.4283 15.3391ZM15.6357 17.3299L16.5503 16.9254L16.5489 16.9224L15.6357 17.3299ZM19.9356 19.565L19.7101 18.5908L19.7096 18.5909L19.9356 19.565ZM22.7974 14.9079L21.8301 15.1615L21.8308 15.1642L22.7974 14.9079ZM21.2658 9.60392L20.3133 9.90829L20.3133 9.90855L21.2658 9.60392ZM14.7082 7.72813L14.0327 6.99071L14.0326 6.99082L14.7082 7.72813ZM14.3558 7.8575V6.85749L14.3511 6.85751L14.3558 7.8575ZM9.82586 7.8575L9.83062 6.8575H9.82586V7.8575ZM9.44477 7.72095L10.1229 6.98594L10.1158 6.97953L9.44477 7.72095ZM2.80802 9.74766L3.76777 10.0285L3.76914 10.0238L2.80802 9.74766ZM2.57523 10.54L3.53453 10.8224L2.57523 10.54ZM1.88764 12.9171L2.85026 13.188L2.85085 13.1859L1.88764 12.9171ZM16.5273 11.8678L17.2343 12.5751L17.9847 11.825L17.1915 11.1202L16.5273 11.8678ZM16.2595 12.1303L15.5638 11.412L15.5638 11.412L16.2595 12.1303ZM16.3081 11.6803L15.666 12.4469L15.666 12.4469L16.3081 11.6803ZM16.0168 11.4222L15.3099 12.1295L15.3099 12.1295L16.0168 11.4222ZM17.045 10.4089L17.752 9.70158L17.752 9.70158L17.045 10.4089ZM17.4185 10.802L18.1516 10.1219L18.1516 10.1218L17.4185 10.802ZM17.534 10.9263L16.8023 11.6079L17.5465 12.4069L18.2771 11.5955L17.534 10.9263ZM17.6986 10.7403L16.9468 10.081L16.9467 10.081L17.6986 10.7403ZM18.0661 10.3442L17.3754 9.62102L17.3737 9.62262L18.0661 10.3442ZM19.0943 10.3082L19.7927 9.5925L19.7922 9.59207L19.0943 10.3082ZM19.0727 11.3647L19.7945 12.0568L19.7952 12.0561L19.0727 11.3647ZM18.6622 11.7414L18.0078 10.9853L18.0078 10.9853L18.6622 11.7414ZM18.4759 11.9037L17.8145 11.1537L16.9886 11.8821L17.7929 12.6342L18.4759 11.9037ZM18.7324 12.1338L18.0732 12.8858L18.0732 12.8858L18.7324 12.1338ZM19.0655 12.4428L19.7877 11.751L19.7868 11.7501L19.0655 12.4428ZM19.0943 13.4992L18.3962 12.7833L18.3959 12.7835L19.0943 13.4992ZM18.0445 13.4489L17.3227 14.141L17.33 14.1487L17.3376 14.1562L18.0445 13.4489ZM17.7303 13.0821L18.5066 12.4518L18.5066 12.4518L17.7303 13.0821ZM17.5412 12.8524L18.3053 12.2074L17.5819 11.3504L16.8131 12.1669L17.5412 12.8524ZM17.3145 13.0981L16.5754 12.4246L16.5754 12.4246L17.3145 13.0981ZM16.9875 13.4417L16.2958 12.7196L16.2958 12.7196L16.9875 13.4417ZM15.9305 13.4992L15.232 14.2148L15.2322 14.215L15.9305 13.4992ZM15.9737 12.414L16.6952 13.1064L16.6961 13.1054L15.9737 12.414ZM6.36008 11.1922V12.1922H7.36008V11.1922H6.36008ZM6.09796 11.1906L6.10784 10.1906H6.10784L6.09796 11.1906ZM6.35911 10.9847L7.35909 10.9774V10.9774L6.35911 10.9847ZM6.36727 10.4879L7.36506 10.5545L7.36616 10.5379L7.36672 10.5212L6.36727 10.4879ZM7.08631 9.75485L7.06847 10.7547L7.07739 10.7548H7.08631V9.75485ZM7.79816 10.5023L6.7987 10.5351L6.79872 10.5356L7.79816 10.5023ZM7.79986 10.9369L6.79991 10.9267V10.9267L7.79986 10.9369ZM7.79816 11.1922H6.79816V12.1922H7.79816V11.1922ZM8.04099 11.1906L8.0513 12.1905H8.0513L8.04099 11.1906ZM8.48844 11.1922L8.52174 10.1928L8.52067 10.1928L8.48844 11.1922ZM8.48844 12.6224L8.45515 11.623H8.45515L8.48844 12.6224ZM8.05844 12.6242L8.04835 13.6241H8.04835L8.05844 12.6242ZM7.79097 12.6224V11.6224H6.79097V12.6224H7.79097ZM7.79264 12.8574L6.7927 12.8682V12.8682L7.79264 12.8574ZM7.79097 13.2764L6.79157 13.242L6.79124 13.2515L6.79109 13.2611L7.79097 13.2764ZM7.08631 14.0598L7.10325 15.0597L7.10354 15.0597L7.08631 14.0598ZM6.36008 13.2621H5.36008V13.2694L5.36019 13.2768L6.36008 13.2621ZM6.36008 12.6224H7.36008V11.6224H6.36008V12.6224ZM6.09742 12.6241L6.10733 13.6241H6.10733L6.09742 12.6241ZM5.64823 12.6224L5.5966 13.6211L5.6063 13.6216L5.61601 13.6219L5.64823 12.6224ZM4.922 11.9253L5.92182 11.9064L5.92166 11.8977L5.92134 11.8889L4.922 11.9253ZM5.64104 11.1922L5.60982 10.1927L5.60047 10.193L5.59113 10.1935L5.64104 11.1922ZM12.8314 5.41292H11.4077V7.41292H12.8314V5.41292ZM11.8347 5.74801C11.8331 5.96296 11.8314 6.18515 11.8314 6.41292H13.8314C13.8314 6.19387 13.8331 5.97909 13.8347 5.76304L11.8347 5.74801ZM11.8317 4.53138C11.8408 4.92757 11.8379 5.32315 11.8347 5.74801L13.8347 5.76304C13.8378 5.3433 13.8411 4.91719 13.8312 4.48539L11.8317 4.53138ZM12.0957 4.83821C12.0409 4.83492 11.9807 4.81199 11.9294 4.76252C11.8739 4.70909 11.8354 4.62975 11.8322 4.54683L13.8307 4.46993C13.7945 3.52985 13.0341 2.89089 12.2154 2.84179L12.0957 4.83821ZM12.4131 4.49643C12.4038 4.65251 12.3202 4.75065 12.269 4.79011C12.2235 4.82522 12.1737 4.84152 12.1156 4.8392L12.1955 2.8408C11.4445 2.81077 10.4794 3.33307 10.4167 4.37659L12.4131 4.49643ZM12.4038 5.80236C12.3992 5.33601 12.3953 4.90602 12.414 4.48045L10.4159 4.39258C10.3944 4.88083 10.3994 5.36467 10.4039 5.82194L12.4038 5.80236ZM12.4077 6.41292C12.4077 6.20579 12.4057 6.00079 12.4038 5.80236L10.4039 5.82194C10.4058 6.02194 10.4077 6.21719 10.4077 6.41292H12.4077ZM2.31893 15.6761C2.29675 15.0731 2.46348 14.4877 2.69469 13.7175L0.779135 13.1425C0.56323 13.8617 0.283956 14.7621 0.320278 15.7496L2.31893 15.6761ZM2.31787 15.8732C2.31864 15.8267 2.3196 15.7705 2.3196 15.7128H0.319602C0.319602 15.751 0.318965 15.7906 0.318143 15.8399L2.31787 15.8732ZM2.31835 16.0941C2.3155 16.0371 2.31617 15.9746 2.31787 15.8732L0.318143 15.8399C0.316638 15.9302 0.314114 16.0593 0.320851 16.194L2.31835 16.0941ZM5.92261 18.5226C4.16906 19.105 2.43468 17.9319 2.31761 16.0809L0.321596 16.2072C0.520903 19.3583 3.54657 21.4193 6.55307 20.4206L5.92261 18.5226ZM7.5697 16.9925C7.24027 17.759 6.69979 18.2636 5.92176 18.5229L6.55393 20.4203C7.88988 19.9752 8.85939 19.0568 9.40718 17.7822L7.5697 16.9925ZM10.1521 14.4976C8.90119 14.9428 8.06565 15.8506 7.57122 16.989L9.40567 17.7857C9.71657 17.0699 10.1753 16.6122 10.8227 16.3818L10.1521 14.4976ZM13.664 14.3673C12.5377 14.0941 11.3341 14.0744 10.1503 14.4982L10.8245 16.3812C11.5677 16.1151 12.363 16.1097 13.1926 16.3109L13.664 14.3673ZM16.5489 16.9224C16.0134 15.7224 15.1153 14.7275 13.6692 14.3685L13.1874 16.3096C13.884 16.4825 14.3664 16.9394 14.7225 17.7374L16.5489 16.9224ZM19.7096 18.5909C18.4983 18.8719 17.1073 18.185 16.5503 16.9254L14.7212 17.7344C15.6453 19.8239 17.9646 21.0487 20.1615 20.5391L19.7096 18.5909ZM21.8308 15.1642C22.2193 16.6296 21.2322 18.2384 19.7101 18.5908L20.1611 20.5393C22.7375 19.9429 24.454 17.2539 23.764 14.6516L21.8308 15.1642ZM20.3133 9.90855C20.8677 11.6419 21.3662 13.3924 21.8301 15.1615L23.7647 14.6542C23.2938 12.8586 22.7856 11.0732 22.2183 9.2993L20.3133 9.90855ZM15.3836 8.46555C16.9469 7.03365 19.6378 7.79425 20.3133 9.90829L22.2184 9.29955C21.1394 5.92277 16.7693 4.48418 14.0327 6.99071L15.3836 8.46555ZM14.3558 8.8575C14.6795 8.8575 15.0846 8.73953 15.3837 8.46545L14.0326 6.99082C14.0774 6.94979 14.1167 6.92474 14.1418 6.91058C14.1679 6.89586 14.1898 6.88666 14.2066 6.88067C14.2327 6.87136 14.2803 6.8575 14.3558 6.8575V8.8575ZM9.8211 8.85749C11.3343 8.86469 12.8474 8.86469 14.3606 8.85749L14.3511 6.85751C12.8442 6.86468 11.3374 6.86468 9.83062 6.85751L9.8211 8.85749ZM8.76667 8.45591C9.08386 8.74856 9.50379 8.8575 9.82586 8.8575V6.8575C9.88219 6.8575 9.92081 6.86683 9.94923 6.87668C9.9739 6.88522 10.0425 6.91183 10.1229 6.98598L8.76667 8.45591ZM3.76914 10.0238C4.40194 7.82116 7.16095 7.00264 8.77372 8.46236L10.1158 6.97953C7.31368 4.44332 2.85351 5.96774 1.8469 9.47154L3.76914 10.0238ZM3.53453 10.8224C3.61224 10.5584 3.69021 10.2935 3.76776 10.0285L1.84827 9.46678C1.77123 9.73003 1.69371 9.9934 1.61592 10.2576L3.53453 10.8224ZM2.85085 13.1859C3.06973 12.4015 3.30095 11.6159 3.53453 10.8224L1.61592 10.2576C1.38302 11.0489 1.14777 11.848 0.924443 12.6483L2.85085 13.1859ZM2.69469 13.7175C2.7455 13.5482 2.79927 13.3692 2.85026 13.188L0.925028 12.6462C0.879512 12.808 0.830775 12.9704 0.779135 13.1425L2.69469 13.7175ZM15.8204 11.1605C15.7267 11.2542 15.6442 11.3341 15.5638 11.412L16.9553 12.8486C17.0353 12.7711 17.1282 12.6811 17.2343 12.5751L15.8204 11.1605ZM15.666 12.4469C15.7366 12.506 15.799 12.5584 15.8631 12.6154L17.1915 11.1202C17.1025 11.0411 17.0185 10.9709 16.9502 10.9137L15.666 12.4469ZM15.3099 12.1295C15.4337 12.2533 15.5667 12.3637 15.666 12.4469L16.9502 10.9137C16.8364 10.8183 16.774 10.7652 16.7237 10.7149L15.3099 12.1295ZM15.2308 9.60815C14.8928 9.94596 14.6927 10.4054 14.7259 10.9126C14.758 11.4023 14.9985 11.8183 15.3099 12.1295L16.7237 10.7149C16.6684 10.6596 16.7148 10.6767 16.7217 10.7819C16.7251 10.8337 16.7166 10.8883 16.697 10.9375C16.6778 10.9856 16.6544 11.013 16.6446 11.0227L15.2308 9.60815ZM17.752 9.70158C17.447 9.39676 17.0382 9.15306 16.5536 9.11232C16.0458 9.06963 15.5773 9.26179 15.2308 9.60815L16.6446 11.0227C16.6319 11.0355 16.6003 11.0616 16.5475 11.0819C16.4937 11.1025 16.4368 11.1096 16.386 11.1053C16.2861 11.0969 16.2764 11.0544 16.3381 11.1161L17.752 9.70158ZM18.1516 10.1218C18.0154 9.97506 17.8872 9.83676 17.752 9.70158L16.3381 11.1161C16.4418 11.2198 16.5437 11.3294 16.6854 11.4822L18.1516 10.1218ZM18.2657 10.2447C18.226 10.202 18.1883 10.1614 18.1516 10.1219L16.6854 11.4822C16.722 11.5216 16.761 11.5636 16.8023 11.6079L18.2657 10.2447ZM16.9467 10.081C16.8935 10.1417 16.8433 10.1989 16.7909 10.2572L18.2771 11.5955C18.3397 11.526 18.3983 11.4592 18.4504 11.3997L16.9467 10.081ZM17.3737 9.62262C17.2107 9.779 17.0666 9.94436 16.9468 10.081L18.4504 11.3997C18.5809 11.2509 18.6684 11.1521 18.7584 11.0657L17.3737 9.62262ZM19.7922 9.59207C19.4647 9.27287 19.0297 9.09176 18.5639 9.10566C18.1037 9.11938 17.6907 9.31986 17.3754 9.62102L18.7568 11.0673C18.765 11.0595 18.7223 11.1018 18.6235 11.1048C18.519 11.1079 18.4363 11.0633 18.3964 11.0244L19.7922 9.59207ZM19.7952 12.0561C20.1016 11.7359 20.3061 11.3135 20.3152 10.8423C20.3245 10.3639 20.1294 9.92103 19.7927 9.5925L18.3959 11.024C18.382 11.0104 18.3599 10.9833 18.342 10.9411C18.324 10.8985 18.3147 10.8509 18.3156 10.8037C18.3175 10.7045 18.3602 10.6629 18.3503 10.6733L19.7952 12.0561ZM19.3166 12.4976C19.4667 12.3677 19.6358 12.2224 19.7945 12.0568L18.3509 10.6726C18.2683 10.7588 18.1731 10.8423 18.0078 10.9853L19.3166 12.4976ZM19.1374 12.6537C19.1994 12.599 19.2579 12.5484 19.3167 12.4975L18.0078 10.9853C17.9498 11.0355 17.8846 11.092 17.8145 11.1537L19.1374 12.6537ZM19.3916 11.3818C19.3093 11.3097 19.2355 11.245 19.1589 11.1733L17.7929 12.6342C17.8964 12.7309 17.9932 12.8157 18.0732 12.8858L19.3916 11.3818ZM19.7868 11.7501C19.649 11.6067 19.5055 11.4816 19.3916 11.3818L18.0732 12.8858C18.1988 12.9959 18.2763 13.0646 18.3443 13.1355L19.7868 11.7501ZM19.7925 14.2152C20.1266 13.8894 20.3209 13.4479 20.3116 12.9705C20.3025 12.4989 20.0976 12.0746 19.7877 11.751L18.3434 13.1345C18.357 13.1487 18.3139 13.1089 18.312 13.0092C18.31 12.9038 18.3568 12.8216 18.3962 12.7833L19.7925 14.2152ZM17.3376 14.1562C17.6462 14.4647 18.0596 14.6866 18.5361 14.7076C19.0214 14.729 19.4634 14.5363 19.7927 14.215L18.3959 12.7835C18.4062 12.7735 18.432 12.7522 18.4759 12.7346C18.5205 12.7166 18.5721 12.7072 18.6242 12.7095C18.7341 12.7144 18.7735 12.7637 18.7514 12.7417L17.3376 14.1562ZM16.9539 13.7124C17.0575 13.84 17.1818 13.9941 17.3227 14.141L18.7663 12.7569C18.6926 12.68 18.6205 12.5921 18.5066 12.4518L16.9539 13.7124ZM16.777 13.4975C16.8382 13.5699 16.8944 13.6391 16.9539 13.7124L18.5066 12.4518C18.4483 12.38 18.3806 12.2965 18.3053 12.2074L16.777 13.4975ZM18.0536 13.7717C18.1222 13.6965 18.1909 13.6211 18.2692 13.538L16.8131 12.1669C16.7223 12.2634 16.6433 12.3501 16.5754 12.4246L18.0536 13.7717ZM17.6792 14.1639C17.8172 14.0317 17.9408 13.8955 18.0536 13.7717L16.5754 12.4246C16.4535 12.5583 16.3761 12.6427 16.2958 12.7196L17.6792 14.1639ZM15.2322 14.215C15.5639 14.5387 16.0081 14.7298 16.4967 14.7035C16.9698 14.678 17.3747 14.4556 17.6792 14.1639L16.2958 12.7196C16.2552 12.7585 16.2826 12.7121 16.389 12.7064C16.4412 12.7036 16.4951 12.7124 16.5435 12.7316C16.5908 12.7504 16.6184 12.7733 16.6289 12.7835L15.2322 14.215ZM15.2522 11.7216C14.9487 12.0378 14.7284 12.4568 14.7101 12.9376C14.6914 13.4314 14.8914 13.8823 15.232 14.2148L16.6291 12.7837C16.6405 12.7948 16.6634 12.8217 16.6823 12.867C16.7015 12.913 16.7106 12.9641 16.7087 13.0134C16.7048 13.1151 16.6607 13.1424 16.6952 13.1064L15.2522 11.7216ZM15.5638 11.412C15.4618 11.5107 15.3561 11.613 15.2512 11.7226L16.6961 13.1054C16.7703 13.028 16.8481 12.9524 16.9553 12.8486L15.5638 11.412ZM6.36008 10.1922C6.27393 10.1922 6.19201 10.1914 6.10784 10.1906L6.08809 12.1905C6.17114 12.1913 6.26259 12.1922 6.36008 12.1922V10.1922ZM5.35914 10.9919C5.35961 11.0574 5.36008 11.1227 5.36008 11.1922H7.36008C7.36008 11.1144 7.35956 11.0423 7.35909 10.9774L5.35914 10.9919ZM5.36949 10.4214C5.356 10.6236 5.35787 10.8161 5.35914 10.9919L7.35909 10.9774C7.35772 10.7876 7.35734 10.6701 7.36506 10.5545L5.36949 10.4214ZM7.10416 8.75501C6.08959 8.7369 5.39814 9.54558 5.36783 10.4546L7.36672 10.5212C7.36634 10.5326 7.35844 10.5926 7.29548 10.6568C7.22869 10.725 7.13919 10.756 7.06847 10.7547L7.10416 8.75501ZM8.79763 10.4695C8.76785 9.56175 8.0886 8.75485 7.08631 8.75485V10.7548C7.01247 10.7548 6.92602 10.7216 6.86363 10.6566C6.80423 10.5947 6.79885 10.5395 6.7987 10.5351L8.79763 10.4695ZM8.79981 10.9471C8.80133 10.7983 8.80316 10.6354 8.79761 10.469L6.79872 10.5356C6.80257 10.6509 6.80152 10.7697 6.79991 10.9267L8.79981 10.9471ZM8.79816 11.1922C8.79816 11.1084 8.79897 11.0288 8.79981 10.9471L6.79991 10.9267C6.79909 11.0072 6.79816 11.0967 6.79816 11.1922H8.79816ZM8.03068 10.1906C7.95096 10.1915 7.87536 10.1922 7.79816 10.1922V12.1922C7.88728 12.1922 7.973 12.1913 8.0513 12.1905L8.03068 10.1906ZM8.52067 10.1928C8.34871 10.1872 8.1802 10.1891 8.03068 10.1906L8.0513 12.1905C8.20835 12.1889 8.33401 12.1878 8.45622 12.1917L8.52067 10.1928ZM10.2291 11.9037C10.2291 10.9066 9.42746 10.223 8.52174 10.1928L8.45515 12.1917C8.44365 12.1913 8.38701 12.1835 8.32603 12.1246C8.26218 12.063 8.22906 11.9777 8.22906 11.9037H10.2291ZM8.52174 13.6219C9.43422 13.5915 10.2291 12.9017 10.2291 11.9037H8.22906C8.22906 11.8383 8.25858 11.7547 8.32349 11.6916C8.38538 11.6314 8.44347 11.6234 8.45515 11.623L8.52174 13.6219ZM8.04835 13.6241C8.19782 13.6256 8.35652 13.6274 8.52174 13.6219L8.45515 11.623C8.34072 11.6268 8.22581 11.6258 8.06853 11.6242L8.04835 13.6241ZM7.79097 13.6224C7.88135 13.6224 7.96467 13.6233 8.04835 13.6241L8.06854 11.6242C7.98574 11.6234 7.89284 11.6224 7.79097 11.6224V13.6224ZM8.79258 12.8465C8.79175 12.7701 8.79097 12.6975 8.79097 12.6224H6.79097C6.79097 12.71 6.79189 12.7932 6.7927 12.8682L8.79258 12.8465ZM8.79038 13.3109C8.79602 13.1474 8.79411 12.9876 8.79258 12.8465L6.7927 12.8682C6.79432 13.0175 6.79538 13.1315 6.79157 13.242L8.79038 13.3109ZM7.10354 15.0597C7.56851 15.0517 8.01284 14.8675 8.33498 14.5103C8.64933 14.1617 8.78426 13.7202 8.79086 13.2918L6.79109 13.2611C6.79049 13.2999 6.78162 13.2464 6.84969 13.1709C6.88264 13.1344 6.9244 13.1041 6.96987 13.0842C7.01473 13.0645 7.05075 13.0603 7.06908 13.06L7.10354 15.0597ZM5.36019 13.2768C5.36665 13.7162 5.50542 14.1689 5.82962 14.5226C6.16296 14.8863 6.62369 15.0678 7.10325 15.0597L7.06938 13.06C7.09072 13.0596 7.13004 13.0633 7.17815 13.0833C7.22683 13.1035 7.27039 13.1346 7.30399 13.1712C7.37293 13.2464 7.3607 13.2967 7.35997 13.2474L5.36019 13.2768ZM5.36008 12.6224V13.2621H7.36008V12.6224H5.36008ZM6.10733 13.6241C6.19147 13.6232 6.27364 13.6224 6.36008 13.6224V11.6224C6.26226 11.6224 6.17052 11.6234 6.0875 11.6242L6.10733 13.6241ZM5.61601 13.6219C5.78643 13.6274 5.9535 13.6256 6.10733 13.6241L6.08751 11.6242C5.92581 11.6258 5.80146 11.6269 5.68046 11.623L5.61601 13.6219ZM3.92218 11.9442C3.94044 12.9115 4.71912 13.5757 5.5966 13.6211L5.69986 11.6238C5.71556 11.6246 5.76902 11.6342 5.82566 11.6889C5.88466 11.7458 5.92033 11.8277 5.92182 11.9064L3.92218 11.9442ZM5.59113 10.1935C4.6694 10.2395 3.88641 10.9654 3.92266 11.9617L5.92134 11.8889C5.92411 11.9652 5.89315 12.0522 5.83103 12.116C5.77079 12.1779 5.71037 12.19 5.69095 12.191L5.59113 10.1935ZM6.10784 10.1906C5.95268 10.1891 5.78449 10.1873 5.60982 10.1927L5.67226 12.1917C5.79895 12.1878 5.92595 12.1889 6.08809 12.1905L6.10784 10.1906Z" fill="#E60000" mask="url(#path-1-inside-1_291_5144)"/>
</g>
</g>
<defs>
<filter id="filter0_b_291_5144" x="-10.6836" y="-8.16059" width="45.6001" height="39.8342" filterUnits="userSpaceOnUse" color-interpolation-filters="sRGB">
<feFlood flood-opacity="0" result="BackgroundImageFix"/>
<feGaussianBlur in="BackgroundImageFix" stdDeviation="6"/>
<feComposite in2="SourceAlpha" operator="in" result="effect1_backgroundBlur_291_5144"/>
<feBlend mode="normal" in="SourceGraphic" in2="effect1_backgroundBlur_291_5144" result="shape"/>
</filter>
<clipPath id="clip0_291_5144">
<rect width="21.6" height="15.84" fill="white" transform="translate(1.31982 3.84)"/>
</clipPath>
</defs>
</svg>
