<svg width="30" height="30" viewBox="0 0 30 30" fill="none" xmlns="http://www.w3.org/2000/svg">
<g clip-path="url(#clip0_288_4671)">
<g filter="url(#filter0_b_288_4671)">
<mask id="path-1-inside-1_288_4671" fill="white">
<path fill-rule="evenodd" clip-rule="evenodd" d="M24.8524 4.64999H15.0979H5.35253C4.36334 4.64999 4.08857 4.92408 4.08857 5.8834V16.2075C4.08857 17.1577 4.3725 17.4409 5.30674 17.4409H24.8524C25.7866 17.4409 26.0705 17.1577 26.0705 16.2075V5.8834C26.0705 4.93322 25.7866 4.64999 24.8524 4.64999ZM2.53151 24.75H15.0338H27.6368C27.8566 24.75 28.0947 24.7409 28.3054 24.6678C28.7908 24.5033 28.9374 24.1013 28.6901 23.6536C27.82 22.064 26.9407 20.4834 26.0615 18.9029L26.0614 18.9027C25.8507 18.5373 25.5485 18.3545 25.1272 18.3545H5.0228C4.60148 18.3545 4.29923 18.5373 4.09773 18.9027L4.09763 18.9029C3.21838 20.4834 2.33914 22.064 1.46905 23.6536C1.22175 24.1013 1.37746 24.5033 1.86289 24.6678C2.0644 24.7409 2.30253 24.75 2.53151 24.75ZM15.6474 22.9248C15.4551 22.9237 15.2627 22.9227 15.0704 22.9227C14.8784 22.9227 14.6864 22.9237 14.4941 22.9247C14.1084 22.9268 13.7213 22.9288 13.3302 22.9227C12.744 22.9136 12.341 22.5481 12.3318 22.0274C12.3227 21.4883 12.7348 21.1046 13.3485 21.1046C14.5025 21.0954 15.6657 21.0954 16.8198 21.1046C17.406 21.1137 17.809 21.4792 17.8181 21.9999C17.8273 22.5299 17.4151 22.9136 16.8015 22.9227C16.4168 22.9288 16.0321 22.9268 15.6474 22.9248Z"/>
</mask>
<path fill-rule="evenodd" clip-rule="evenodd" d="M24.8524 4.64999H15.0979H5.35253C4.36334 4.64999 4.08857 4.92408 4.08857 5.8834V16.2075C4.08857 17.1577 4.3725 17.4409 5.30674 17.4409H24.8524C25.7866 17.4409 26.0705 17.1577 26.0705 16.2075V5.8834C26.0705 4.93322 25.7866 4.64999 24.8524 4.64999ZM2.53151 24.75H15.0338H27.6368C27.8566 24.75 28.0947 24.7409 28.3054 24.6678C28.7908 24.5033 28.9374 24.1013 28.6901 23.6536C27.82 22.064 26.9407 20.4834 26.0615 18.9029L26.0614 18.9027C25.8507 18.5373 25.5485 18.3545 25.1272 18.3545H5.0228C4.60148 18.3545 4.29923 18.5373 4.09773 18.9027L4.09763 18.9029C3.21838 20.4834 2.33914 22.064 1.46905 23.6536C1.22175 24.1013 1.37746 24.5033 1.86289 24.6678C2.0644 24.7409 2.30253 24.75 2.53151 24.75ZM15.6474 22.9248C15.4551 22.9237 15.2627 22.9227 15.0704 22.9227C14.8784 22.9227 14.6864 22.9237 14.4941 22.9247C14.1084 22.9268 13.7213 22.9288 13.3302 22.9227C12.744 22.9136 12.341 22.5481 12.3318 22.0274C12.3227 21.4883 12.7348 21.1046 13.3485 21.1046C14.5025 21.0954 15.6657 21.0954 16.8198 21.1046C17.406 21.1137 17.809 21.4792 17.8181 21.9999C17.8273 22.5299 17.4151 22.9136 16.8015 22.9227C16.4168 22.9288 16.0321 22.9268 15.6474 22.9248Z" fill="#E60000"/>
<path d="M28.3054 24.6678L27.9845 23.7206L27.9776 23.723L28.3054 24.6678ZM28.6901 23.6536L27.8129 24.1338L27.8147 24.1372L28.6901 23.6536ZM26.0615 18.9029L25.1847 19.3837L25.1876 19.389L26.0615 18.9029ZM26.0614 18.9027L26.9382 18.4219L26.9331 18.4125L26.9278 18.4033L26.0614 18.9027ZM4.09773 18.9027L4.97156 19.389L4.97344 19.3856L4.09773 18.9027ZM4.09763 18.9029L3.22381 18.4167L3.22375 18.4168L4.09763 18.9029ZM1.46905 23.6536L2.34439 24.1372L2.34625 24.1338L1.46905 23.6536ZM1.86289 24.6678L2.20389 23.7277L2.19386 23.7241L2.18376 23.7206L1.86289 24.6678ZM15.6474 22.9248L15.6527 21.9248H15.6527L15.6474 22.9248ZM14.4941 22.9247L14.4888 21.9248H14.4888L14.4941 22.9247ZM13.3302 22.9227L13.3146 23.9226H13.3146L13.3302 22.9227ZM12.3318 22.0274L11.332 22.0443L11.332 22.0449L12.3318 22.0274ZM13.3485 21.1046V22.1046L13.3564 22.1046L13.3485 21.1046ZM16.8198 21.1046L16.8354 20.1047L16.8277 20.1046L16.8198 21.1046ZM17.8181 21.9999L18.818 21.9827L18.818 21.9824L17.8181 21.9999ZM16.8015 22.9227L16.7866 21.9228L16.7857 21.9228L16.8015 22.9227ZM15.0979 5.64999H24.8524V3.64999H15.0979V5.64999ZM5.35253 5.64999H15.0979V3.64999H5.35253V5.64999ZM5.08857 5.8834C5.08857 5.68102 5.10422 5.57876 5.11557 5.53455C5.12388 5.50215 5.11544 5.55659 5.04942 5.62127C4.98472 5.68466 4.93462 5.68922 4.97732 5.67868C5.02994 5.6657 5.14148 5.64999 5.35253 5.64999V3.64999C4.8426 3.64999 4.15165 3.70096 3.64979 4.19263C3.14091 4.69118 3.08857 5.38317 3.08857 5.8834H5.08857ZM5.08857 16.2075V5.8834H3.08857V16.2075H5.08857ZM5.30674 16.4409C5.11427 16.4409 5.01687 16.4252 4.97574 16.4145C4.94553 16.4065 4.99633 16.4147 5.05782 16.4768C5.11873 16.5383 5.12504 16.5871 5.11598 16.5519C5.10433 16.5066 5.08857 16.4045 5.08857 16.2075H3.08857C3.08857 16.7137 3.14718 17.3898 3.63681 17.8842C4.12961 18.3818 4.806 18.4409 5.30674 18.4409V16.4409ZM24.8524 16.4409H5.30674V18.4409H24.8524V16.4409ZM25.0705 16.2075C25.0705 16.4045 25.0548 16.5066 25.0431 16.5519C25.0341 16.5871 25.0404 16.5383 25.1013 16.4768C25.1628 16.4147 25.2136 16.4065 25.1834 16.4145C25.1423 16.4252 25.0449 16.4409 24.8524 16.4409V18.4409C25.3531 18.4409 26.0295 18.3818 26.5223 17.8842C27.0119 17.3898 27.0705 16.7137 27.0705 16.2075H25.0705ZM25.0705 5.8834V16.2075H27.0705V5.8834H25.0705ZM24.8524 5.64999C25.0449 5.64999 25.1423 5.66566 25.1834 5.67644C25.2136 5.68435 25.1628 5.67616 25.1013 5.61407C25.0404 5.55257 25.0341 5.50384 25.0431 5.53903C25.0548 5.58431 25.0705 5.68638 25.0705 5.8834H27.0705C27.0705 5.37724 27.0119 4.70105 26.5223 4.20669C26.0295 3.70912 25.3531 3.64999 24.8524 3.64999V5.64999ZM15.0338 23.75H2.53151V25.75H15.0338V23.75ZM27.6368 23.75H15.0338V25.75H27.6368V23.75ZM27.9776 23.723C27.9405 23.7359 27.8527 23.75 27.6368 23.75V25.75C27.8605 25.75 28.2489 25.7458 28.6332 25.6125L27.9776 23.723ZM27.8147 24.1372C27.8397 24.1824 27.7725 24.0856 27.8362 23.9157C27.9018 23.7408 28.0237 23.7074 27.9845 23.7206L28.6262 25.6149C29.0725 25.4637 29.5104 25.147 29.7088 24.6181C29.9053 24.0942 29.7877 23.5726 29.5654 23.1701L27.8147 24.1372ZM25.1876 19.389C26.0671 20.9701 26.9447 22.5476 27.8129 24.1338L29.5673 23.1735C28.6953 21.5803 27.8143 19.9968 26.9354 18.4168L25.1876 19.389ZM25.1846 19.3836L25.1847 19.3837L26.9383 18.4221L26.9382 18.4219L25.1846 19.3836ZM25.1272 19.3545C25.1601 19.3545 25.1753 19.3581 25.1775 19.3586C25.1787 19.3589 25.1729 19.3574 25.1644 19.3524C25.1561 19.3475 25.1539 19.3443 25.1579 19.3485C25.1625 19.3535 25.1759 19.369 25.195 19.4021L26.9278 18.4033C26.754 18.1018 26.5126 17.8261 26.1821 17.6307C25.8498 17.4343 25.4872 17.3545 25.1272 17.3545V19.3545ZM5.0228 19.3545H25.1272V17.3545H5.0228V19.3545ZM4.97344 19.3856C4.98983 19.3558 5.00078 19.3434 5.00282 19.3412C5.00418 19.3397 4.99967 19.3447 4.9895 19.3508C4.97928 19.3569 4.97218 19.3587 4.97297 19.3585C4.97472 19.3581 4.98976 19.3545 5.0228 19.3545V17.3545C4.66358 17.3545 4.29938 17.434 3.96617 17.6324C3.63363 17.8304 3.39231 18.111 3.22202 18.4199L4.97344 19.3856ZM4.97146 19.3891L4.97155 19.389L3.2239 18.4165L3.22381 18.4167L4.97146 19.3891ZM2.34625 24.1338C3.21442 22.5476 4.09199 20.9701 4.97151 19.389L3.22375 18.4168C2.34478 19.9968 1.46386 21.5803 0.591851 23.1735L2.34625 24.1338ZM2.18376 23.7206C2.14139 23.7063 2.25784 23.736 2.32346 23.9051C2.38914 24.0744 2.32327 24.1754 2.34438 24.1372L0.593722 23.1701C0.367538 23.5796 0.255865 24.1054 0.458933 24.6287C0.661947 25.1518 1.09896 25.4648 1.54203 25.6149L2.18376 23.7206ZM2.53151 23.75C2.42649 23.75 2.3497 23.7476 2.28715 23.7413C2.22445 23.735 2.20193 23.727 2.20389 23.7277L1.5219 25.6078C1.90668 25.7474 2.30659 25.75 2.53151 25.75V23.75ZM15.0704 23.9227C15.2597 23.9227 15.4494 23.9237 15.6422 23.9247L15.6527 21.9248C15.4608 21.9238 15.2658 21.9227 15.0704 21.9227V23.9227ZM14.4993 23.9247C14.6921 23.9237 14.8815 23.9227 15.0704 23.9227V21.9227C14.8753 21.9227 14.6807 21.9237 14.4888 21.9248L14.4993 23.9247ZM13.3146 23.9226C13.7178 23.9289 14.1153 23.9268 14.4993 23.9247L14.4888 21.9248C14.1014 21.9268 13.7247 21.9288 13.3457 21.9228L13.3146 23.9226ZM11.332 22.0449C11.3413 22.573 11.5573 23.0608 11.9458 23.4103C12.3271 23.7534 12.8181 23.9149 13.3146 23.9226L13.3457 21.9228C13.256 21.9214 13.2525 21.8956 13.2835 21.9235C13.2979 21.9365 13.3121 21.9551 13.3218 21.9768C13.3315 21.9983 13.3317 22.0117 13.3317 22.0098L11.332 22.0449ZM13.3485 20.1046C12.8342 20.1046 12.3237 20.2674 11.9318 20.6258C11.532 20.9914 11.3227 21.5015 11.332 22.0443L13.3317 22.0104C13.3316 22.0064 13.3322 22.0198 13.3225 22.043C13.3127 22.0663 13.2975 22.0871 13.2814 22.1018C13.2466 22.1336 13.2491 22.1046 13.3485 22.1046V20.1046ZM16.8277 20.1046C15.6684 20.0954 14.4999 20.0954 13.3406 20.1046L13.3564 22.1046C14.5052 22.0955 15.6631 22.0955 16.8119 22.1046L16.8277 20.1046ZM18.818 21.9824C18.8087 21.4543 18.5927 20.9665 18.2042 20.617C17.8229 20.2739 17.3318 20.1124 16.8354 20.1047L16.8042 22.1045C16.894 22.1059 16.8975 22.1317 16.8665 22.1038C16.8521 22.0908 16.8378 22.0722 16.8281 22.0505C16.8185 22.029 16.8183 22.0156 16.8183 22.0175L18.818 21.9824ZM16.8164 23.9226C17.3266 23.915 17.8308 23.7489 18.2182 23.3946C18.6139 23.0328 18.8274 22.5268 18.818 21.9827L16.8183 22.0172C16.8183 22.0175 16.8182 22.0132 16.8197 22.0053C16.8212 21.9974 16.824 21.9873 16.8289 21.9758C16.8392 21.9515 16.8543 21.9317 16.8686 21.9186C16.8988 21.891 16.8901 21.9213 16.7866 21.9228L16.8164 23.9226ZM15.6421 23.9247C16.0251 23.9268 16.4203 23.9289 16.8173 23.9226L16.7857 21.9228C16.4133 21.9287 16.0391 21.9268 15.6527 21.9248L15.6421 23.9247Z" fill="#E60000" mask="url(#path-1-inside-1_288_4671)"/>
</g>
</g>
<defs>
<filter id="filter0_b_288_4671" x="-10.647" y="-7.35001" width="51.4553" height="44.1" filterUnits="userSpaceOnUse" color-interpolation-filters="sRGB">
<feFlood flood-opacity="0" result="BackgroundImageFix"/>
<feGaussianBlur in="BackgroundImageFix" stdDeviation="6"/>
<feComposite in2="SourceAlpha" operator="in" result="effect1_backgroundBlur_288_4671"/>
<feBlend mode="normal" in="SourceGraphic" in2="effect1_backgroundBlur_288_4671" result="shape"/>
</filter>
<clipPath id="clip0_288_4671">
<rect width="27.45" height="20.1" fill="white" transform="translate(1.3501 4.64999)"/>
</clipPath>
</defs>
</svg>
