<svg width="24" height="24" viewBox="0 0 24 24" fill="none" xmlns="http://www.w3.org/2000/svg">
<g clip-path="url(#clip0_291_5134)">
<g filter="url(#filter0_b_291_5134)">
<mask id="path-1-inside-1_291_5134" fill="white">
<path fill-rule="evenodd" clip-rule="evenodd" d="M19.882 3.72H12.0784H4.28212C3.49077 3.72 3.27095 3.93927 3.27095 4.70673V12.966C3.27095 13.7261 3.4981 13.9527 4.24549 13.9527H19.882C20.6294 13.9527 20.8565 13.7261 20.8565 12.966V4.70673C20.8565 3.94658 20.6294 3.72 19.882 3.72ZM2.02531 19.8H12.0271H22.1095C22.2854 19.8 22.4759 19.7927 22.6444 19.7342C23.0328 19.6027 23.15 19.2811 22.9522 18.9229C22.2562 17.6513 21.5529 16.3871 20.8496 15.1228L20.8492 15.1222C20.6807 14.8298 20.4389 14.6836 20.1018 14.6836H4.01834C3.68128 14.6836 3.43948 14.8298 3.27828 15.1222C2.57486 16.3867 1.87143 17.6511 1.17534 18.9229C0.9775 19.2811 1.10206 19.6027 1.49041 19.7342C1.65161 19.7927 1.84212 19.8 2.02531 19.8ZM12.518 18.3398C12.3642 18.339 12.2103 18.3382 12.0564 18.3382C11.9028 18.3382 11.7492 18.339 11.5953 18.3398C11.2868 18.3414 10.9771 18.3431 10.6642 18.3382C10.1953 18.3309 9.87288 18.0385 9.86555 17.6219C9.85822 17.1907 10.188 16.8837 10.6789 16.8837C11.6021 16.8764 12.5327 16.8764 13.4559 16.8837C13.9249 16.891 14.2473 17.1833 14.2546 17.6C14.2619 18.0239 13.9322 18.3309 13.4413 18.3382C13.1335 18.3431 12.8258 18.3414 12.518 18.3398Z"/>
</mask>
<path fill-rule="evenodd" clip-rule="evenodd" d="M19.882 3.72H12.0784H4.28212C3.49077 3.72 3.27095 3.93927 3.27095 4.70673V12.966C3.27095 13.7261 3.4981 13.9527 4.24549 13.9527H19.882C20.6294 13.9527 20.8565 13.7261 20.8565 12.966V4.70673C20.8565 3.94658 20.6294 3.72 19.882 3.72ZM2.02531 19.8H12.0271H22.1095C22.2854 19.8 22.4759 19.7927 22.6444 19.7342C23.0328 19.6027 23.15 19.2811 22.9522 18.9229C22.2562 17.6513 21.5529 16.3871 20.8496 15.1228L20.8492 15.1222C20.6807 14.8298 20.4389 14.6836 20.1018 14.6836H4.01834C3.68128 14.6836 3.43948 14.8298 3.27828 15.1222C2.57486 16.3867 1.87143 17.6511 1.17534 18.9229C0.9775 19.2811 1.10206 19.6027 1.49041 19.7342C1.65161 19.7927 1.84212 19.8 2.02531 19.8ZM12.518 18.3398C12.3642 18.339 12.2103 18.3382 12.0564 18.3382C11.9028 18.3382 11.7492 18.339 11.5953 18.3398C11.2868 18.3414 10.9771 18.3431 10.6642 18.3382C10.1953 18.3309 9.87288 18.0385 9.86555 17.6219C9.85822 17.1907 10.188 16.8837 10.6789 16.8837C11.6021 16.8764 12.5327 16.8764 13.4559 16.8837C13.9249 16.891 14.2473 17.1833 14.2546 17.6C14.2619 18.0239 13.9322 18.3309 13.4413 18.3382C13.1335 18.3431 12.8258 18.3414 12.518 18.3398Z" fill="#E60000"/>
<path d="M22.6444 19.7342L22.3235 18.7871L22.3166 18.7895L22.6444 19.7342ZM22.9522 18.9229L22.0749 19.403L22.0768 19.4064L22.9522 18.9229ZM20.8496 15.1228L21.7234 14.6367L21.7226 14.6352L20.8496 15.1228ZM20.8492 15.1222L21.7223 14.6345L21.7156 14.6228L20.8492 15.1222ZM3.27828 15.1222L4.15217 15.6083L4.15399 15.605L3.27828 15.1222ZM1.17534 18.9229L2.05067 19.4064L2.05254 19.403L1.17534 18.9229ZM1.49041 19.7342L1.83141 18.7942L1.82138 18.7905L1.81128 18.7871L1.49041 19.7342ZM12.518 18.3398L12.5233 17.3398H12.5233L12.518 18.3398ZM11.5953 18.3398L11.6006 19.3398H11.6006L11.5953 18.3398ZM10.6642 18.3382L10.6798 17.3383H10.6798L10.6642 18.3382ZM9.86555 17.6219L8.86569 17.6389L8.8657 17.6395L9.86555 17.6219ZM10.6789 16.8837V17.8837L10.6868 17.8836L10.6789 16.8837ZM13.4559 16.8837L13.4715 15.8838L13.4639 15.8837L13.4559 16.8837ZM14.2546 17.6L15.2545 17.5827L15.2545 17.5824L14.2546 17.6ZM13.4413 18.3382L13.4264 17.3383L13.4255 17.3383L13.4413 18.3382ZM12.0784 4.72H19.882V2.72H12.0784V4.72ZM4.28212 4.72H12.0784V2.72H4.28212V4.72ZM4.27095 4.70673C4.27095 4.67057 4.2716 4.6386 4.27277 4.61034C4.27393 4.58207 4.27558 4.55837 4.27745 4.53867C4.27933 4.51896 4.28134 4.50423 4.28306 4.49378C4.28479 4.48333 4.28607 4.47815 4.28627 4.47737C4.28676 4.47548 4.28194 4.49526 4.26493 4.5272C4.25634 4.54334 4.245 4.5619 4.23035 4.58168C4.21565 4.60154 4.19869 4.62119 4.1796 4.63989C4.16052 4.65858 4.14086 4.67482 4.12147 4.68859C4.10218 4.7023 4.08448 4.71265 4.06961 4.72025C4.04035 4.7352 4.02399 4.73858 4.02987 4.73713C4.03258 4.73646 4.0397 4.73484 4.0521 4.73287C4.06449 4.7309 4.08116 4.72873 4.10277 4.72675C4.12436 4.72477 4.14996 4.72306 4.18011 4.72186C4.21023 4.72066 4.24409 4.72 4.28212 4.72V2.72C3.87111 2.72 3.24336 2.75726 2.77996 3.21125C2.30955 3.67211 2.27095 4.30243 2.27095 4.70673H4.27095ZM4.27095 12.966V4.70673H2.27095V12.966H4.27095ZM4.24549 12.9527C4.17629 12.9527 4.12484 12.9501 4.08735 12.9464C4.06897 12.9445 4.05535 12.9426 4.04582 12.941C4.03629 12.9394 4.03175 12.9382 4.03138 12.9381C4.0304 12.9378 4.04963 12.9427 4.08034 12.9592C4.09583 12.9674 4.11359 12.9783 4.13251 12.9923C4.15152 13.0063 4.17039 13.0225 4.18845 13.0407C4.20651 13.059 4.22235 13.0778 4.23594 13.0966C4.24948 13.1153 4.25989 13.1327 4.2677 13.1475C4.28315 13.177 4.28732 13.1946 4.28657 13.1917C4.28624 13.1903 4.28489 13.1849 4.28314 13.1744C4.28138 13.1639 4.27936 13.1493 4.27748 13.1299C4.27366 13.0905 4.27095 13.0371 4.27095 12.966H2.27095C2.27095 13.3771 2.31537 13.9917 2.76745 14.4481C3.22269 14.9078 3.83817 14.9527 4.24549 14.9527V12.9527ZM19.882 12.9527H4.24549V14.9527H19.882V12.9527ZM19.8565 12.966C19.8565 13.0371 19.8538 13.0905 19.85 13.1299C19.8481 13.1493 19.8461 13.1639 19.8443 13.1744C19.8426 13.1849 19.8413 13.1904 19.8409 13.1917C19.8402 13.1946 19.8443 13.177 19.8598 13.1475C19.8676 13.1327 19.878 13.1153 19.8915 13.0966C19.9051 13.0778 19.921 13.059 19.939 13.0407C19.9571 13.0225 19.976 13.0063 19.995 12.9923C20.0139 12.9783 20.0317 12.9674 20.0471 12.9592C20.0779 12.9427 20.0971 12.9378 20.0961 12.9381C20.0957 12.9382 20.0912 12.9394 20.0817 12.941C20.0721 12.9426 20.0585 12.9445 20.0401 12.9464C20.0026 12.9501 19.9512 12.9527 19.882 12.9527V14.9527C20.2893 14.9527 20.9048 14.9078 21.36 14.4481C21.8121 13.9917 21.8565 13.3771 21.8565 12.966H19.8565ZM19.8565 4.70673V12.966H21.8565V4.70673H19.8565ZM19.882 4.72C19.9512 4.72 20.0026 4.72267 20.0401 4.72638C20.0585 4.72819 20.0721 4.73012 20.0817 4.73174C20.0912 4.73337 20.0957 4.73453 20.0961 4.73463C20.0971 4.73488 20.0779 4.72999 20.0471 4.71357C20.0317 4.70528 20.0139 4.69441 19.995 4.68044C19.976 4.66641 19.9571 4.65024 19.939 4.632C19.921 4.61377 19.9051 4.5949 19.8915 4.57612C19.878 4.55742 19.8676 4.54007 19.8598 4.52518C19.8443 4.49574 19.8402 4.47815 19.8409 4.48107C19.8413 4.48238 19.8426 4.48788 19.8443 4.49837C19.8461 4.50887 19.8481 4.52346 19.85 4.5428C19.8538 4.5822 19.8565 4.6356 19.8565 4.70673H21.8565C21.8565 4.29558 21.8121 3.68106 21.36 3.22462C20.9048 2.76496 20.2893 2.72 19.882 2.72V4.72ZM12.0271 18.8H2.02531V20.8H12.0271V18.8ZM22.1095 18.8H12.0271V20.8H22.1095V18.8ZM22.3166 18.7895C22.3279 18.7856 22.3197 18.79 22.2795 18.7941C22.2389 18.7982 22.1868 18.8 22.1095 18.8V20.8C22.2892 20.8 22.6301 20.7977 22.9722 20.679L22.3166 18.7895ZM22.0768 19.4064C22.0763 19.4054 22.0586 19.3733 22.0505 19.3115C22.0421 19.2465 22.0459 19.158 22.0818 19.0623C22.1607 18.852 22.3141 18.7903 22.3235 18.7871L22.9653 20.6813C23.363 20.5466 23.7693 20.2582 23.9544 19.7648C24.1376 19.2763 24.0251 18.7971 23.8275 18.4394L22.0768 19.4064ZM19.9757 15.609C20.6793 16.8737 21.3809 18.135 22.075 19.403L23.8294 18.4428C23.1315 17.1677 22.4265 15.9004 21.7234 14.6367L19.9757 15.609ZM19.9762 15.6098L19.9765 15.6105L21.7226 14.6352L21.7223 14.6345L19.9762 15.6098ZM20.1018 15.6836C20.1137 15.6836 20.1093 15.6849 20.0933 15.6809C20.0764 15.6766 20.0538 15.6683 20.0299 15.6541C20.0061 15.6401 19.9898 15.6255 19.9808 15.616C19.9725 15.6072 19.9743 15.6067 19.9828 15.6216L21.7156 14.6228C21.5629 14.3578 21.3472 14.1095 21.0476 13.9324C20.7461 13.7542 20.4197 13.6836 20.1018 13.6836V15.6836ZM4.01834 15.6836H20.1018V13.6836H4.01834V15.6836ZM4.15399 15.605C4.16031 15.5936 4.15992 15.5971 4.14931 15.6086C4.13802 15.6208 4.11954 15.6373 4.09403 15.6525C4.06847 15.6677 4.04466 15.6764 4.0273 15.6808C4.0109 15.6849 4.00636 15.6836 4.01834 15.6836V13.6836C3.70125 13.6836 3.37323 13.7539 3.0707 13.9341C2.76884 14.1139 2.55271 14.3671 2.40257 14.6393L4.15399 15.605ZM2.05254 19.403C2.74671 18.1348 3.44846 16.8733 4.15216 15.6083L2.4044 14.636C1.70125 15.9 0.996157 17.1675 0.298139 18.4428L2.05254 19.403ZM1.81128 18.7871C1.81746 18.7892 1.96595 18.8472 2.04532 19.0518C2.12474 19.2564 2.05428 19.3999 2.05067 19.4064L0.300009 18.4394C0.0985557 18.8041 -0.00853872 19.2874 0.180791 19.7753C0.370067 20.2631 0.775022 20.5477 1.16955 20.6813L1.81128 18.7871ZM2.02531 18.8C1.94319 18.8 1.88975 18.7981 1.84986 18.7941C1.80983 18.79 1.8093 18.7861 1.83141 18.7942L1.14942 20.6743C1.49389 20.7992 1.84619 20.8 2.02531 20.8V18.8ZM12.0564 19.3382C12.2072 19.3382 12.3584 19.339 12.5128 19.3398L12.5233 17.3398C12.3699 17.339 12.2134 17.3382 12.0564 17.3382V19.3382ZM11.6006 19.3398C11.7549 19.339 11.9059 19.3382 12.0564 19.3382V17.3382C11.8997 17.3382 11.7435 17.339 11.5901 17.3398L11.6006 19.3398ZM10.6486 19.3381C10.9737 19.3431 11.2937 19.3414 11.6006 19.3398L11.5901 17.3398C11.2799 17.3415 10.9806 17.343 10.6798 17.3383L10.6486 19.3381ZM8.8657 17.6395C8.87407 18.1155 9.06946 18.5589 9.42293 18.8769C9.76921 19.1885 10.2108 19.3312 10.6486 19.3381L10.6798 17.3383C10.6487 17.3378 10.6946 17.3307 10.7606 17.3901C10.7926 17.4189 10.8207 17.4565 10.8401 17.4997C10.8594 17.5427 10.865 17.5802 10.8654 17.6043L8.8657 17.6395ZM10.6789 15.8837C10.226 15.8837 9.76679 16.0273 9.41056 16.3531C9.04654 16.6859 8.85738 17.1499 8.86569 17.6389L10.8654 17.6049C10.8658 17.6279 10.8616 17.6663 10.8425 17.7118C10.8233 17.7576 10.7942 17.798 10.7602 17.8291C10.6897 17.8935 10.6408 17.8837 10.6789 17.8837V15.8837ZM13.4639 15.8837C12.5353 15.8764 11.5995 15.8764 10.671 15.8837L10.6868 17.8836C11.6048 17.8764 12.5301 17.8764 13.448 17.8836L13.4639 15.8837ZM15.2545 17.5824C15.2461 17.1064 15.0507 16.6629 14.6972 16.3449C14.351 16.0334 13.9094 15.8906 13.4715 15.8838L13.4404 17.8836C13.4715 17.884 13.4255 17.8911 13.3595 17.8317C13.3276 17.803 13.2994 17.7654 13.2801 17.7222C13.2608 17.6791 13.2552 17.6417 13.2548 17.6176L15.2545 17.5824ZM13.4562 19.3381C13.905 19.3314 14.3579 19.1849 14.7096 18.8633C15.0696 18.5341 15.263 18.0738 15.2545 17.5827L13.2548 17.6172C13.2543 17.5899 13.2594 17.549 13.2791 17.5025C13.2988 17.4561 13.3279 17.4167 13.36 17.3873C13.4259 17.327 13.4685 17.3377 13.4264 17.3383L13.4562 19.3381ZM12.5128 19.3398C12.8188 19.3414 13.1371 19.3431 13.4571 19.3381L13.4255 17.3383C13.13 17.343 12.8328 17.3415 12.5233 17.3398L12.5128 19.3398Z" fill="#E60000" mask="url(#path-1-inside-1_291_5134)"/>
</g>
</g>
<defs>
<filter id="filter0_b_291_5134" x="-10.9175" y="-8.28" width="45.9644" height="40.08" filterUnits="userSpaceOnUse" color-interpolation-filters="sRGB">
<feFlood flood-opacity="0" result="BackgroundImageFix"/>
<feGaussianBlur in="BackgroundImageFix" stdDeviation="6"/>
<feComposite in2="SourceAlpha" operator="in" result="effect1_backgroundBlur_291_5134"/>
<feBlend mode="normal" in="SourceGraphic" in2="effect1_backgroundBlur_291_5134" result="shape"/>
</filter>
<clipPath id="clip0_291_5134">
<rect width="21.96" height="16.08" fill="white" transform="translate(1.08008 3.72)"/>
</clipPath>
</defs>
</svg>
