<svg width="24" height="24" viewBox="0 0 24 24" fill="none" xmlns="http://www.w3.org/2000/svg">
<g clip-path="url(#clip0_291_5106)">
<g filter="url(#filter0_b_291_5106)">
<path d="M6.2403 11.76C6.2403 8.97404 6.23356 6.18128 6.2403 3.39527C6.2403 2.24849 6.82044 1.41201 7.83905 1.08147C8.0819 1.00052 8.34499 0.96679 8.60133 0.96679C10.9556 0.960045 13.3099 0.960045 15.6574 0.96679C17.0268 0.973536 18.0252 1.96517 18.0252 3.32781C18.0319 8.9538 18.0319 14.573 18.0252 20.199C18.0252 21.5617 17.0268 22.56 15.6642 22.56C13.3369 22.5668 11.0096 22.5668 8.68228 22.56C7.22519 22.56 6.25379 21.6021 6.24705 20.1316C6.23356 17.3388 6.2403 14.5528 6.2403 11.76ZM12.1361 2.92307C11.6774 2.92307 11.2187 2.92307 10.7532 2.92307C10.389 2.92981 10.1866 3.09846 10.1798 3.39527C10.1731 3.69883 10.362 3.90795 10.7128 3.90795C11.6572 3.92144 12.5948 3.92144 13.5392 3.90795C13.8765 3.90121 14.1059 3.67185 14.0924 3.39527C14.0789 3.11195 13.8563 2.92307 13.5123 2.92307C13.0535 2.92307 12.5948 2.92307 12.1361 2.92307ZM12.1361 18.6475C11.583 18.6475 11.1445 19.086 11.1512 19.6256C11.158 20.1653 11.6099 20.6038 12.1496 20.597C12.6758 20.5903 13.1008 20.1585 13.1008 19.6256C13.1075 19.0657 12.6893 18.6475 12.1361 18.6475Z" fill="#E60000"/>
<path d="M10.7532 2.42298V2.42307H10.756H10.7587H10.7614H10.7641H10.7669H10.7696H10.7723H10.775H10.7778H10.7805H10.7832H10.7859H10.7887H10.7914H10.7941H10.7968H10.7996H10.8023H10.805H10.8077H10.8105H10.8132H10.8159H10.8186H10.8214H10.8241H10.8268H10.8295H10.8323H10.835H10.8377H10.8404H10.8432H10.8459H10.8486H10.8513H10.854H10.8568H10.8595H10.8622H10.8649H10.8676H10.8704H10.8731H10.8758H10.8785H10.8813H10.884H10.8867H10.8894H10.8921H10.8949H10.8976H10.9003H10.903H10.9057H10.9084H10.9112H10.9139H10.9166H10.9193H10.922H10.9248H10.9275H10.9302H10.9329H10.9356H10.9383H10.9411H10.9438H10.9465H10.9492H10.9519H10.9547H10.9574H10.9601H10.9628H10.9655H10.9682H10.9709H10.9737H10.9764H10.9791H10.9818H10.9845H10.9872H10.99H10.9927H10.9954H10.9981H11.0008H11.0035H11.0062H11.009H11.0117H11.0144H11.0171H11.0198H11.0225H11.0252H11.028H11.0307H11.0334H11.0361H11.0388H11.0415H11.0442H11.0469H11.0497H11.0524H11.0551H11.0578H11.0605H11.0632H11.0659H11.0686H11.0714H11.0741H11.0768H11.0795H11.0822H11.0849H11.0876H11.0903H11.093H11.0957H11.0985H11.1012H11.1039H11.1066H11.1093H11.112H11.1147H11.1174H11.1201H11.1228H11.1256H11.1283H11.131H11.1337H11.1364H11.1391H11.1418H11.1445H11.1472H11.1499H11.1526H11.1553H11.1581H11.1608H11.1635H11.1662H11.1689H11.1716H11.1743H11.177H11.1797H11.1824H11.1851H11.1878H11.1905H11.1932H11.1959H11.1987H11.2014H11.2041H11.2068H11.2095H11.2122H11.2149H11.2176H11.2203H11.223H11.2257H11.2284H11.2311H11.2338H11.2365H11.2392H11.2419H11.2446H11.2473H11.2501H11.2528H11.2555H11.2582H11.2609H11.2636H11.2663H11.269H11.2717H11.2744H11.2771H11.2798H11.2825H11.2852H11.2879H11.2906H11.2933H11.296H11.2987H11.3014H11.3041H11.3068H11.3095H11.3122H11.3149H11.3176H11.3203H11.323H11.3257H11.3284H11.3311H11.3338H11.3365H11.3392H11.3419H11.3446H11.3473H11.35H11.3527H11.3554H11.3581H11.3608H11.3635H11.3662H11.3689H11.3716H11.3743H11.377H11.3797H11.3824H11.3851H11.3878H11.3905H11.3932H11.3959H11.3986H11.4013H11.404H11.4067H11.4094H11.4121H11.4148H11.4175H11.4202H11.4229H11.4256H11.4283H11.431H11.4337H11.4364H11.4391H11.4418H11.4445H11.4472H11.4499H11.4526H11.4553H11.458H11.4607H11.4634H11.4661H11.4688H11.4715H11.4742H11.4769H11.4796H11.4823H11.485H11.4877H11.4904H11.4931H11.4958H11.4984H11.5011H11.5038H11.5065H11.5092H11.5119H11.5146H11.5173H11.52H11.5227H11.5254H11.5281H11.5308H11.5335H11.5362H11.5389H11.5416H11.5443H11.547H11.5497H11.5524H11.5551H11.5577H11.5604H11.5631H11.5658H11.5685H11.5712H11.5739H11.5766H11.5793H11.582H11.5847H11.5874H11.5901H11.5928H11.5955H11.5982H11.6009H11.6035H11.6062H11.6089H11.6116H11.6143H11.617H11.6197H11.6224H11.6251H11.6278H11.6305H11.6332H11.6359H11.6386H11.6413H11.6439H11.6466H11.6493H11.652H11.6547H11.6574H11.6601H11.6628H11.6655H11.6682H11.6709H11.6736H11.6763H11.679H11.6816H11.6843H11.687H11.6897H11.6924H11.6951H11.6978H11.7005H11.7032H11.7059H11.7086H11.7113H11.7139H11.7166H11.7193H11.722H11.7247H11.7274H11.7301H11.7328H11.7355H11.7382H11.7409H11.7435H11.7462H11.7489H11.7516H11.7543H11.757H11.7597H11.7624H11.7651H11.7678H11.7705H11.7731H11.7758H11.7785H11.7812H11.7839H11.7866H11.7893H11.792H11.7947H11.7974H11.8H11.8027H11.8054H11.8081H11.8108H11.8135H11.8162H11.8189H11.8216H11.8243H11.8269H11.8296H11.8323H11.835H11.8377H11.8404H11.8431H11.8458H11.8485H11.8512H11.8538H11.8565H11.8592H11.8619H11.8646H11.8673H11.87H11.8727H11.8754H11.878H11.8807H11.8834H11.8861H11.8888H11.8915H11.8942H11.8969H11.8996H11.9022H11.9049H11.9076H11.9103H11.913H11.9157H11.9184H11.9211H11.9238H11.9264H11.9291H11.9318H11.9345H11.9372H11.9399H11.9426H11.9453H11.948H11.9506H11.9533H11.956H11.9587H11.9614H11.9641H11.9668H11.9695H11.9722H11.9748H11.9775H11.9802H11.9829H11.9856H11.9883H11.991H11.9937H11.9963H11.999H12.0017H12.0044H12.0071H12.0098H12.0125H12.0152H12.0179H12.0205H12.0232H12.0259H12.0286H12.0313H12.034H12.0367H12.0394H12.042H12.0447H12.0474H12.0501H12.0528H12.0555H12.0582H12.0609H12.0635H12.0662H12.0689H12.0716H12.0743H12.077H12.0797H12.0824H12.0851H12.0877H12.0904H12.0931H12.0958H12.0985H12.1012H12.1039H12.1066H12.1092H12.1119H12.1146H12.1173H12.12H12.1227H12.1254H12.1281H12.1307H12.1334H12.1361H12.1388H12.1415H12.1442H12.1469H12.1496H12.1522H12.1549H12.1576H12.1603H12.163H12.1657H12.1684H12.1711H12.1737H12.1764H12.1791H12.1818H12.1845H12.1872H12.1899H12.1926H12.1952H12.1979H12.2006H12.2033H12.206H12.2087H12.2114H12.2141H12.2168H12.2194H12.2221H12.2248H12.2275H12.2302H12.2329H12.2356H12.2383H12.2409H12.2436H12.2463H12.249H12.2517H12.2544H12.2571H12.2598H12.2624H12.2651H12.2678H12.2705H12.2732H12.2759H12.2786H12.2813H12.2839H12.2866H12.2893H12.292H12.2947H12.2974H12.3001H12.3028H12.3054H12.3081H12.3108H12.3135H12.3162H12.3189H12.3216H12.3243H12.327H12.3296H12.3323H12.335H12.3377H12.3404H12.3431H12.3458H12.3485H12.3511H12.3538H12.3565H12.3592H12.3619H12.3646H12.3673H12.37H12.3726H12.3753H12.378H12.3807H12.3834H12.3861H12.3888H12.3915H12.3941H12.3968H12.3995H12.4022H12.4049H12.4076H12.4103H12.413H12.4156H12.4183H12.421H12.4237H12.4264H12.4291H12.4318H12.4345H12.4371H12.4398H12.4425H12.4452H12.4479H12.4506H12.4533H12.456H12.4587H12.4613H12.464H12.4667H12.4694H12.4721H12.4748H12.4775H12.4802H12.4828H12.4855H12.4882H12.4909H12.4936H12.4963H12.499H12.5017H12.5043H12.507H12.5097H12.5124H12.5151H12.5178H12.5205H12.5232H12.5258H12.5285H12.5312H12.5339H12.5366H12.5393H12.542H12.5447H12.5473H12.55H12.5527H12.5554H12.5581H12.5608H12.5635H12.5662H12.5689H12.5715H12.5742H12.5769H12.5796H12.5823H12.585H12.5877H12.5904H12.593H12.5957H12.5984H12.6011H12.6038H12.6065H12.6092H12.6119H12.6145H12.6172H12.6199H12.6226H12.6253H12.628H12.6307H12.6334H12.636H12.6387H12.6414H12.6441H12.6468H12.6495H12.6522H12.6549H12.6575H12.6602H12.6629H12.6656H12.6683H12.671H12.6737H12.6764H12.679H12.6817H12.6844H12.6871H12.6898H12.6925H12.6952H12.6979H12.7006H12.7032H12.7059H12.7086H12.7113H12.714H12.7167H12.7194H12.7221H12.7247H12.7274H12.7301H12.7328H12.7355H12.7382H12.7409H12.7436H12.7462H12.7489H12.7516H12.7543H12.757H12.7597H12.7624H12.7651H12.7677H12.7704H12.7731H12.7758H12.7785H12.7812H12.7839H12.7866H12.7892H12.7919H12.7946H12.7973H12.8H12.8027H12.8054H12.8081H12.8108H12.8134H12.8161H12.8188H12.8215H12.8242H12.8269H12.8296H12.8323H12.8349H12.8376H12.8403H12.843H12.8457H12.8484H12.8511H12.8538H12.8564H12.8591H12.8618H12.8645H12.8672H12.8699H12.8726H12.8753H12.8779H12.8806H12.8833H12.886H12.8887H12.8914H12.8941H12.8968H12.8994H12.9021H12.9048H12.9075H12.9102H12.9129H12.9156H12.9183H12.9209H12.9236H12.9263H12.929H12.9317H12.9344H12.9371H12.9398H12.9425H12.9451H12.9478H12.9505H12.9532H12.9559H12.9586H12.9613H12.964H12.9666H12.9693H12.972H12.9747H12.9774H12.9801H12.9828H12.9855H12.9881H12.9908H12.9935H12.9962H12.9989H13.0016H13.0043H13.007H13.0096H13.0123H13.015H13.0177H13.0204H13.0231H13.0258H13.0285H13.0311H13.0338H13.0365H13.0392H13.0419H13.0446H13.0473H13.05H13.0526H13.0553H13.058H13.0607H13.0634H13.0661H13.0688H13.0715H13.0742H13.0768H13.0795H13.0822H13.0849H13.0876H13.0903H13.093H13.0957H13.0983H13.101H13.1037H13.1064H13.1091H13.1118H13.1145H13.1172H13.1198H13.1225H13.1252H13.1279H13.1306H13.1333H13.136H13.1387H13.1413H13.144H13.1467H13.1494H13.1521H13.1548H13.1575H13.1602H13.1628H13.1655H13.1682H13.1709H13.1736H13.1763H13.179H13.1817H13.1844H13.187H13.1897H13.1924H13.1951H13.1978H13.2005H13.2032H13.2059H13.2085H13.2112H13.2139H13.2166H13.2193H13.222H13.2247H13.2274H13.23H13.2327H13.2354H13.2381H13.2408H13.2435H13.2462H13.2489H13.2515H13.2542H13.2569H13.2596H13.2623H13.265H13.2677H13.2704H13.273H13.2757H13.2784H13.2811H13.2838H13.2865H13.2892H13.2919H13.2945H13.2972H13.2999H13.3026H13.3053H13.308H13.3107H13.3134H13.3161H13.3187H13.3214H13.3241H13.3268H13.3295H13.3322H13.3349H13.3376H13.3402H13.3429H13.3456H13.3483H13.351H13.3537H13.3564H13.3591H13.3617H13.3644H13.3671H13.3698H13.3725H13.3752H13.3779H13.3806H13.3832H13.3859H13.3886H13.3913H13.394H13.3967H13.3994H13.4021H13.4047H13.4074H13.4101H13.4128H13.4155H13.4182H13.4209H13.4236H13.4262H13.4289H13.4316H13.4343H13.437H13.4397H13.4424H13.4451H13.4478H13.4504H13.4531H13.4558H13.4585H13.4612H13.4639H13.4666H13.4693H13.4719H13.4746H13.4773H13.48H13.4827H13.4854H13.4881H13.4908H13.4934H13.4961H13.4988H13.5015H13.5042H13.5069H13.5096H13.5123C13.7735 2.42307 14.0356 2.49522 14.2441 2.66696C14.4588 2.84371 14.5786 3.09583 14.5918 3.37091C14.5918 3.3711 14.5918 3.3713 14.5918 3.37149L14.0924 3.39527C14.1059 3.67185 13.8765 3.90121 13.5392 3.90795L10.7532 2.42298ZM10.7532 2.42298L10.744 2.42315C10.494 2.42778 10.2276 2.48851 10.014 2.66491C9.78691 2.85253 9.68606 3.1158 9.67997 3.38391L9.67996 3.38416C9.67421 3.64308 9.75303 3.91336 9.95867 4.119C10.1628 4.32316 10.4354 4.40714 10.7088 4.40795L10.7532 2.42298ZM6.7403 3.39648V3.39527C6.7403 2.44557 7.19892 1.81486 7.99338 1.55706L7.99339 1.55707L7.99717 1.55581C8.17863 1.49532 8.38654 1.46679 8.60133 1.46679L8.60276 1.46679C10.9559 1.46005 13.309 1.46005 15.6554 1.46679C16.7536 1.47242 17.5252 2.2447 17.5252 3.32781V3.32841C17.5319 8.954 17.5319 14.5728 17.5252 20.1984V20.199C17.5252 21.2855 16.7507 22.06 15.6642 22.06L15.6627 22.06C13.3364 22.0668 11.0101 22.0668 8.68373 22.06H8.68228C8.06552 22.06 7.59195 21.8594 7.27328 21.5427C6.95478 21.2261 6.7499 20.7525 6.74704 20.1293L6.74704 20.1291C6.73693 18.0363 6.73819 15.9477 6.73946 13.8555C6.73988 13.1575 6.7403 12.4591 6.7403 11.76C6.7403 10.8308 6.73955 9.90115 6.7388 8.97153C6.7373 7.11244 6.73581 5.2533 6.7403 3.39648ZM12.1559 21.097L12.156 21.097C12.9579 21.0867 13.5991 20.4308 13.6008 19.6287C13.6093 18.7906 12.9657 18.1475 12.1361 18.1475C11.3126 18.1475 10.6409 18.8055 10.6513 19.6319C10.6615 20.4492 11.3416 21.1072 12.1559 21.097Z" stroke="#E60000"/>
</g>
</g>
<defs>
<filter id="filter0_b_291_5106" x="-5.7627" y="-11.0383" width="35.793" height="45.6034" filterUnits="userSpaceOnUse" color-interpolation-filters="sRGB">
<feFlood flood-opacity="0" result="BackgroundImageFix"/>
<feGaussianBlur in="BackgroundImageFix" stdDeviation="6"/>
<feComposite in2="SourceAlpha" operator="in" result="effect1_backgroundBlur_291_5106"/>
<feBlend mode="normal" in="SourceGraphic" in2="effect1_backgroundBlur_291_5106" result="shape"/>
</filter>
<clipPath id="clip0_291_5106">
<rect width="11.7849" height="21.6" fill="white" transform="translate(6.24023 0.960022)"/>
</clipPath>
</defs>
</svg>
