<svg width="30" height="30" viewBox="0 0 30 30" fill="none" xmlns="http://www.w3.org/2000/svg">
<g clip-path="url(#clip0_288_4643)">
<g filter="url(#filter0_b_288_4643)">
<path d="M7.80013 14.7C7.80013 11.2175 7.7917 7.72656 7.80013 4.24404C7.80013 2.81057 8.52531 1.76497 9.79857 1.35179C10.1021 1.2506 10.431 1.20844 10.7514 1.20844C13.6943 1.20001 16.6371 1.20001 19.5715 1.20844C21.2833 1.21687 22.5312 2.45641 22.5312 4.15972C22.5397 11.1922 22.5397 18.2163 22.5312 25.2487C22.5312 26.952 21.2833 28.2 19.58 28.2C16.6708 28.2084 13.7617 28.2084 10.8526 28.2C9.03124 28.2 7.817 27.0026 7.80857 25.1644C7.7917 21.6735 7.80013 18.191 7.80013 14.7ZM15.1699 3.65379C14.5965 3.65379 14.0231 3.65379 13.4413 3.65379C12.986 3.66222 12.733 3.87303 12.7246 4.24404C12.7161 4.62349 12.9522 4.88489 13.3907 4.88489C14.5712 4.90176 15.7433 4.90176 16.9238 4.88489C17.3454 4.87646 17.6321 4.58977 17.6153 4.24404C17.5984 3.88989 17.3201 3.65379 16.8901 3.65379C16.3167 3.65379 15.7433 3.65379 15.1699 3.65379ZM15.1699 23.3093C14.4785 23.3093 13.9304 23.8574 13.9388 24.532C13.9472 25.2066 14.5122 25.7547 15.1868 25.7462C15.8445 25.7378 16.3757 25.1981 16.3757 24.532C16.3841 23.8321 15.8613 23.3093 15.1699 23.3093Z" fill="#E60000"/>
<path d="M13.4413 3.1537V3.15379H13.4447H13.4481H13.4515H13.4549H13.4583H13.4617H13.4652H13.4686H13.472H13.4754H13.4788H13.4822H13.4856H13.489H13.4924H13.4958H13.4992H13.5026H13.506H13.5094H13.5128H13.5163H13.5197H13.5231H13.5265H13.5299H13.5333H13.5367H13.5401H13.5435H13.5469H13.5503H13.5537H13.5571H13.5605H13.5639H13.5673H13.5707H13.5741H13.5775H13.5809H13.5843H13.5877H13.5911H13.5945H13.5979H13.6013H13.6047H13.6081H13.6115H13.6149H13.6183H13.6217H13.6251H13.6285H13.6319H13.6353H13.6387H13.6421H13.6455H13.6489H13.6523H13.6557H13.6591H13.6625H13.6659H13.6693H13.6727H13.6761H13.6795H13.6829H13.6863H13.6897H13.6931H13.6965H13.6999H13.7033H13.7067H13.71H13.7134H13.7168H13.7202H13.7236H13.727H13.7304H13.7338H13.7372H13.7406H13.744H13.7474H13.7508H13.7542H13.7576H13.761H13.7643H13.7677H13.7711H13.7745H13.7779H13.7813H13.7847H13.7881H13.7915H13.7949H13.7983H13.8017H13.805H13.8084H13.8118H13.8152H13.8186H13.822H13.8254H13.8288H13.8322H13.8356H13.8389H13.8423H13.8457H13.8491H13.8525H13.8559H13.8593H13.8627H13.8661H13.8694H13.8728H13.8762H13.8796H13.883H13.8864H13.8898H13.8932H13.8965H13.8999H13.9033H13.9067H13.9101H13.9135H13.9169H13.9202H13.9236H13.927H13.9304H13.9338H13.9372H13.9406H13.9439H13.9473H13.9507H13.9541H13.9575H13.9609H13.9642H13.9676H13.971H13.9744H13.9778H13.9812H13.9845H13.9879H13.9913H13.9947H13.9981H14.0015H14.0048H14.0082H14.0116H14.015H14.0184H14.0217H14.0251H14.0285H14.0319H14.0353H14.0387H14.042H14.0454H14.0488H14.0522H14.0556H14.0589H14.0623H14.0657H14.0691H14.0725H14.0758H14.0792H14.0826H14.086H14.0894H14.0927H14.0961H14.0995H14.1029H14.1063H14.1096H14.113H14.1164H14.1198H14.1231H14.1265H14.1299H14.1333H14.1367H14.14H14.1434H14.1468H14.1502H14.1535H14.1569H14.1603H14.1637H14.167H14.1704H14.1738H14.1772H14.1806H14.1839H14.1873H14.1907H14.1941H14.1974H14.2008H14.2042H14.2076H14.2109H14.2143H14.2177H14.2211H14.2244H14.2278H14.2312H14.2346H14.2379H14.2413H14.2447H14.248H14.2514H14.2548H14.2582H14.2615H14.2649H14.2683H14.2717H14.275H14.2784H14.2818H14.2852H14.2885H14.2919H14.2953H14.2986H14.302H14.3054H14.3088H14.3121H14.3155H14.3189H14.3222H14.3256H14.329H14.3324H14.3357H14.3391H14.3425H14.3458H14.3492H14.3526H14.356H14.3593H14.3627H14.3661H14.3694H14.3728H14.3762H14.3796H14.3829H14.3863H14.3897H14.393H14.3964H14.3998H14.4031H14.4065H14.4099H14.4133H14.4166H14.42H14.4234H14.4267H14.4301H14.4335H14.4368H14.4402H14.4436H14.4469H14.4503H14.4537H14.457H14.4604H14.4638H14.4671H14.4705H14.4739H14.4773H14.4806H14.484H14.4874H14.4907H14.4941H14.4975H14.5008H14.5042H14.5076H14.5109H14.5143H14.5177H14.521H14.5244H14.5278H14.5311H14.5345H14.5379H14.5412H14.5446H14.548H14.5513H14.5547H14.5581H14.5614H14.5648H14.5682H14.5715H14.5749H14.5783H14.5816H14.585H14.5883H14.5917H14.5951H14.5984H14.6018H14.6052H14.6085H14.6119H14.6153H14.6186H14.622H14.6254H14.6287H14.6321H14.6355H14.6388H14.6422H14.6455H14.6489H14.6523H14.6556H14.659H14.6624H14.6657H14.6691H14.6725H14.6758H14.6792H14.6826H14.6859H14.6893H14.6926H14.696H14.6994H14.7027H14.7061H14.7095H14.7128H14.7162H14.7196H14.7229H14.7263H14.7296H14.733H14.7364H14.7397H14.7431H14.7465H14.7498H14.7532H14.7565H14.7599H14.7633H14.7666H14.77H14.7734H14.7767H14.7801H14.7834H14.7868H14.7902H14.7935H14.7969H14.8003H14.8036H14.807H14.8103H14.8137H14.8171H14.8204H14.8238H14.8271H14.8305H14.8339H14.8372H14.8406H14.844H14.8473H14.8507H14.854H14.8574H14.8608H14.8641H14.8675H14.8708H14.8742H14.8776H14.8809H14.8843H14.8877H14.891H14.8944H14.8977H14.9011H14.9045H14.9078H14.9112H14.9145H14.9179H14.9213H14.9246H14.928H14.9313H14.9347H14.9381H14.9414H14.9448H14.9481H14.9515H14.9549H14.9582H14.9616H14.9649H14.9683H14.9717H14.975H14.9784H14.9817H14.9851H14.9885H14.9918H14.9952H14.9985H15.0019H15.0053H15.0086H15.012H15.0154H15.0187H15.0221H15.0254H15.0288H15.0322H15.0355H15.0389H15.0422H15.0456H15.049H15.0523H15.0557H15.059H15.0624H15.0658H15.0691H15.0725H15.0758H15.0792H15.0826H15.0859H15.0893H15.0926H15.096H15.0993H15.1027H15.1061H15.1094H15.1128H15.1161H15.1195H15.1229H15.1262H15.1296H15.1329H15.1363H15.1397H15.143H15.1464H15.1497H15.1531H15.1565H15.1598H15.1632H15.1665H15.1699H15.1733H15.1766H15.18H15.1833H15.1867H15.1901H15.1934H15.1968H15.2001H15.2035H15.2069H15.2102H15.2136H15.2169H15.2203H15.2237H15.227H15.2304H15.2337H15.2371H15.2405H15.2438H15.2472H15.2505H15.2539H15.2573H15.2606H15.264H15.2673H15.2707H15.2741H15.2774H15.2808H15.2841H15.2875H15.2909H15.2942H15.2976H15.3009H15.3043H15.3077H15.311H15.3144H15.3177H15.3211H15.3245H15.3278H15.3312H15.3345H15.3379H15.3412H15.3446H15.348H15.3513H15.3547H15.358H15.3614H15.3648H15.3681H15.3715H15.3748H15.3782H15.3816H15.3849H15.3883H15.3916H15.395H15.3984H15.4017H15.4051H15.4084H15.4118H15.4152H15.4185H15.4219H15.4252H15.4286H15.432H15.4353H15.4387H15.442H15.4454H15.4488H15.4521H15.4555H15.4588H15.4622H15.4656H15.4689H15.4723H15.4756H15.479H15.4824H15.4857H15.4891H15.4924H15.4958H15.4992H15.5025H15.5059H15.5092H15.5126H15.516H15.5193H15.5227H15.526H15.5294H15.5328H15.5361H15.5395H15.5428H15.5462H15.5496H15.5529H15.5563H15.5596H15.563H15.5663H15.5697H15.5731H15.5764H15.5798H15.5831H15.5865H15.5899H15.5932H15.5966H15.5999H15.6033H15.6067H15.61H15.6134H15.6167H15.6201H15.6235H15.6268H15.6302H15.6335H15.6369H15.6403H15.6436H15.647H15.6503H15.6537H15.6571H15.6604H15.6638H15.6671H15.6705H15.6739H15.6772H15.6806H15.6839H15.6873H15.6907H15.694H15.6974H15.7007H15.7041H15.7075H15.7108H15.7142H15.7175H15.7209H15.7243H15.7276H15.731H15.7343H15.7377H15.7411H15.7444H15.7478H15.7511H15.7545H15.7579H15.7612H15.7646H15.7679H15.7713H15.7747H15.778H15.7814H15.7847H15.7881H15.7915H15.7948H15.7982H15.8015H15.8049H15.8082H15.8116H15.815H15.8183H15.8217H15.825H15.8284H15.8318H15.8351H15.8385H15.8418H15.8452H15.8486H15.8519H15.8553H15.8586H15.862H15.8654H15.8687H15.8721H15.8754H15.8788H15.8822H15.8855H15.8889H15.8922H15.8956H15.899H15.9023H15.9057H15.909H15.9124H15.9158H15.9191H15.9225H15.9258H15.9292H15.9326H15.9359H15.9393H15.9426H15.946H15.9494H15.9527H15.9561H15.9594H15.9628H15.9662H15.9695H15.9729H15.9762H15.9796H15.983H15.9863H15.9897H15.993H15.9964H15.9998H16.0031H16.0065H16.0098H16.0132H16.0166H16.0199H16.0233H16.0266H16.03H16.0334H16.0367H16.0401H16.0434H16.0468H16.0501H16.0535H16.0569H16.0602H16.0636H16.0669H16.0703H16.0737H16.077H16.0804H16.0837H16.0871H16.0905H16.0938H16.0972H16.1005H16.1039H16.1073H16.1106H16.114H16.1173H16.1207H16.1241H16.1274H16.1308H16.1341H16.1375H16.1409H16.1442H16.1476H16.1509H16.1543H16.1577H16.161H16.1644H16.1677H16.1711H16.1745H16.1778H16.1812H16.1845H16.1879H16.1913H16.1946H16.198H16.2013H16.2047H16.2081H16.2114H16.2148H16.2181H16.2215H16.2249H16.2282H16.2316H16.2349H16.2383H16.2417H16.245H16.2484H16.2517H16.2551H16.2585H16.2618H16.2652H16.2685H16.2719H16.2753H16.2786H16.282H16.2853H16.2887H16.292H16.2954H16.2988H16.3021H16.3055H16.3088H16.3122H16.3156H16.3189H16.3223H16.3256H16.329H16.3324H16.3357H16.3391H16.3424H16.3458H16.3492H16.3525H16.3559H16.3592H16.3626H16.366H16.3693H16.3727H16.376H16.3794H16.3828H16.3861H16.3895H16.3928H16.3962H16.3996H16.4029H16.4063H16.4096H16.413H16.4164H16.4197H16.4231H16.4264H16.4298H16.4332H16.4365H16.4399H16.4432H16.4466H16.45H16.4533H16.4567H16.46H16.4634H16.4668H16.4701H16.4735H16.4768H16.4802H16.4836H16.4869H16.4903H16.4936H16.497H16.5004H16.5037H16.5071H16.5104H16.5138H16.5171H16.5205H16.5239H16.5272H16.5306H16.5339H16.5373H16.5407H16.544H16.5474H16.5507H16.5541H16.5575H16.5608H16.5642H16.5675H16.5709H16.5743H16.5776H16.581H16.5843H16.5877H16.5911H16.5944H16.5978H16.6011H16.6045H16.6079H16.6112H16.6146H16.6179H16.6213H16.6247H16.628H16.6314H16.6347H16.6381H16.6415H16.6448H16.6482H16.6515H16.6549H16.6583H16.6616H16.665H16.6683H16.6717H16.6751H16.6784H16.6818H16.6851H16.6885H16.6919H16.6952H16.6986H16.7019H16.7053H16.7087H16.712H16.7154H16.7187H16.7221H16.7255H16.7288H16.7322H16.7355H16.7389H16.7423H16.7456H16.749H16.7523H16.7557H16.759H16.7624H16.7658H16.7691H16.7725H16.7758H16.7792H16.7826H16.7859H16.7893H16.7926H16.796H16.7994H16.8027H16.8061H16.8094H16.8128H16.8162H16.8195H16.8229H16.8262H16.8296H16.833H16.8363H16.8397H16.843H16.8464H16.8498H16.8531H16.8565H16.8598H16.8632H16.8666H16.8699H16.8733H16.8766H16.88H16.8834H16.8867H16.8901C17.1943 3.15379 17.4918 3.23775 17.7255 3.43014C17.9653 3.62768 18.0999 3.90954 18.1147 4.22026M13.4413 3.1537L17.6153 4.24404M13.4413 3.1537L13.432 3.15387C13.1365 3.15935 12.8347 3.23104 12.5969 3.42747C12.3455 3.63511 12.2316 3.92747 12.2247 4.23268L12.2247 4.23294C12.2181 4.5298 12.3083 4.83212 12.5365 5.06032C12.7633 5.2871 13.0696 5.3841 13.3868 5.38489M13.4413 3.1537L12.7246 4.24404C12.7161 4.62349 12.9522 4.88489 13.3907 4.88489M18.1147 4.22026L17.6153 4.24404M18.1147 4.22026C18.1147 4.22007 18.1147 4.21988 18.1147 4.21968L17.6153 4.24404M18.1147 4.22026C18.1477 4.90355 17.577 5.37193 16.9338 5.38479L16.9309 5.38485C15.7468 5.40176 14.571 5.40178 13.3868 5.38489M17.6153 4.24404C17.6321 4.58977 17.3454 4.87646 16.9238 4.88489C15.7433 4.90176 14.5712 4.90176 13.3907 4.88489M13.3868 5.38489C13.3881 5.38489 13.3894 5.38489 13.3907 5.38489V4.88489M13.3868 5.38489C13.3857 5.38487 13.3846 5.38486 13.3836 5.38484L13.3907 4.88489M8.30013 4.24526V4.24404C8.30013 3.00765 8.90379 2.16782 9.9529 1.82738L9.95291 1.82739L9.95669 1.82613C10.1989 1.74541 10.4725 1.70844 10.7514 1.70844L10.7528 1.70844C13.6946 1.70001 16.6363 1.70001 19.5696 1.70844C21.0101 1.71576 22.0312 2.73595 22.0312 4.15972V4.16032C22.0397 11.1924 22.0397 18.2161 22.0312 25.2481V25.2487C22.0312 26.6759 21.0071 27.7 19.58 27.7L19.5785 27.7C16.6704 27.7084 13.7622 27.7084 10.8541 27.7H10.8526C10.0537 27.7 9.42836 27.4395 9.00323 27.0169C8.57827 26.5945 8.31226 25.9692 8.30856 25.1621L8.30856 25.162C8.29592 22.5455 8.2975 19.9343 8.29908 17.319C8.29961 16.4466 8.30013 15.5737 8.30013 14.7C8.30013 13.5386 8.2992 12.3767 8.29826 11.2147C8.29639 8.89076 8.29451 6.56647 8.30013 4.24526ZM15.193 26.2462L15.1932 26.2462C16.1266 26.2342 16.8741 25.4703 16.8757 24.535C16.886 23.557 16.1377 22.8093 15.1699 22.8093C14.2081 22.8093 13.4268 23.577 13.4388 24.5382C13.4507 25.4905 14.2439 26.2581 15.193 26.2462Z" stroke="#E60000"/>
</g>
</g>
<defs>
<filter id="filter0_b_288_4643" x="-4.20361" y="-10.7979" width="38.7412" height="51.0042" filterUnits="userSpaceOnUse" color-interpolation-filters="sRGB">
<feFlood flood-opacity="0" result="BackgroundImageFix"/>
<feGaussianBlur in="BackgroundImageFix" stdDeviation="6"/>
<feComposite in2="SourceAlpha" operator="in" result="effect1_backgroundBlur_288_4643"/>
<feBlend mode="normal" in="SourceGraphic" in2="effect1_backgroundBlur_288_4643" result="shape"/>
</filter>
<clipPath id="clip0_288_4643">
<rect width="14.7311" height="27" fill="white" transform="translate(7.80005 1.20001)"/>
</clipPath>
</defs>
</svg>
