<svg width="24" height="24" viewBox="0 0 24 24" fill="none" xmlns="http://www.w3.org/2000/svg">
<g clip-path="url(#clip0_291_5122)">
<g filter="url(#filter0_b_291_5122)">
<mask id="path-1-inside-1_291_5122" fill="white">
<path fill-rule="evenodd" clip-rule="evenodd" d="M1.68014 14.0074V14.2954C8.62469 14.2954 15.5224 14.2954 22.4468 14.2887V14.0007V4.991C22.4468 4.36133 22.1656 4.07999 21.5227 4.07999H2.60429C1.95471 4.07999 1.68014 4.36133 1.68014 4.9977V14.0074ZM11.4344 10.9784C11.1544 11.1403 10.8725 11.3035 10.5868 11.4686V7.52979C11.3116 7.95198 12.0255 8.36332 12.7476 8.77935C13.1597 9.0168 13.5745 9.25579 13.9955 9.49919C13.1276 9.99887 12.2902 10.4833 11.4344 10.9784ZM19.2063 17.8913C19.1401 17.7289 19.0723 17.5627 19.0046 17.3902H19.005C19.9089 17.3902 20.7593 17.3902 21.5962 17.3835C22.0516 17.3768 22.3999 17.1223 22.4199 16.7136C22.4431 16.3247 22.4374 15.9326 22.4317 15.5373C22.4292 15.3606 22.4266 15.1834 22.4266 15.0055H1.67334V16.4256C1.67334 17.1022 1.9546 17.3835 2.62428 17.3835H5.10878C4.90118 17.906 4.70698 18.3883 4.51277 18.8706C4.43241 19.085 4.39893 19.2993 4.6668 19.3998C4.92797 19.5003 5.05521 19.3261 5.14227 19.1118C5.20112 18.9666 5.26111 18.8219 5.32108 18.6774C5.46584 18.3284 5.61043 17.9799 5.73828 17.6247C5.81195 17.4304 5.9124 17.3835 6.1066 17.3835C10.0778 17.3902 14.049 17.3902 18.0202 17.3835C18.2278 17.3835 18.3148 17.4505 18.3818 17.638C18.5337 18.0413 18.6958 18.4344 18.8592 18.8307C18.8831 18.8886 18.907 18.9465 18.9309 19.0046C18.9477 19.0414 18.9627 19.0766 18.9778 19.1118C18.9929 19.1469 19.0079 19.1821 19.0247 19.2189C19.1117 19.4132 19.2925 19.507 19.4533 19.3931C19.5604 19.3194 19.6542 19.085 19.614 18.9644C19.4979 18.6067 19.356 18.2587 19.2063 17.8913ZM14.5914 16.3251H12.0466C11.7656 16.3251 11.4839 16.3244 11.2019 16.3236C10.6371 16.3221 10.0713 16.3206 9.50856 16.3251C9.28087 16.3251 9.05988 16.2983 9.05318 16.0103C9.04649 15.7155 9.26748 15.6552 9.51526 15.6552H14.5981C14.8392 15.6552 15.0669 15.7088 15.0669 16.0036C15.0669 16.3117 14.8258 16.3251 14.5914 16.3251Z"/>
</mask>
<path fill-rule="evenodd" clip-rule="evenodd" d="M1.68014 14.0074V14.2954C8.62469 14.2954 15.5224 14.2954 22.4468 14.2887V14.0007V4.991C22.4468 4.36133 22.1656 4.07999 21.5227 4.07999H2.60429C1.95471 4.07999 1.68014 4.36133 1.68014 4.9977V14.0074ZM11.4344 10.9784C11.1544 11.1403 10.8725 11.3035 10.5868 11.4686V7.52979C11.3116 7.95198 12.0255 8.36332 12.7476 8.77935C13.1597 9.0168 13.5745 9.25579 13.9955 9.49919C13.1276 9.99887 12.2902 10.4833 11.4344 10.9784ZM19.2063 17.8913C19.1401 17.7289 19.0723 17.5627 19.0046 17.3902H19.005C19.9089 17.3902 20.7593 17.3902 21.5962 17.3835C22.0516 17.3768 22.3999 17.1223 22.4199 16.7136C22.4431 16.3247 22.4374 15.9326 22.4317 15.5373C22.4292 15.3606 22.4266 15.1834 22.4266 15.0055H1.67334V16.4256C1.67334 17.1022 1.9546 17.3835 2.62428 17.3835H5.10878C4.90118 17.906 4.70698 18.3883 4.51277 18.8706C4.43241 19.085 4.39893 19.2993 4.6668 19.3998C4.92797 19.5003 5.05521 19.3261 5.14227 19.1118C5.20112 18.9666 5.26111 18.8219 5.32108 18.6774C5.46584 18.3284 5.61043 17.9799 5.73828 17.6247C5.81195 17.4304 5.9124 17.3835 6.1066 17.3835C10.0778 17.3902 14.049 17.3902 18.0202 17.3835C18.2278 17.3835 18.3148 17.4505 18.3818 17.638C18.5337 18.0413 18.6958 18.4344 18.8592 18.8307C18.8831 18.8886 18.907 18.9465 18.9309 19.0046C18.9477 19.0414 18.9627 19.0766 18.9778 19.1118C18.9929 19.1469 19.0079 19.1821 19.0247 19.2189C19.1117 19.4132 19.2925 19.507 19.4533 19.3931C19.5604 19.3194 19.6542 19.085 19.614 18.9644C19.4979 18.6067 19.356 18.2587 19.2063 17.8913ZM14.5914 16.3251H12.0466C11.7656 16.3251 11.4839 16.3244 11.2019 16.3236C10.6371 16.3221 10.0713 16.3206 9.50856 16.3251C9.28087 16.3251 9.05988 16.2983 9.05318 16.0103C9.04649 15.7155 9.26748 15.6552 9.51526 15.6552H14.5981C14.8392 15.6552 15.0669 15.7088 15.0669 16.0036C15.0669 16.3117 14.8258 16.3251 14.5914 16.3251Z" fill="#E60000"/>
<path d="M1.68014 14.2954H0.680138V15.2954H1.68014V14.2954ZM22.4468 14.2887L22.4478 15.2887L23.4468 15.2878V14.2887H22.4468ZM10.5868 11.4686H9.58685V13.2019L11.0874 12.3343L10.5868 11.4686ZM11.4344 10.9784L10.9337 10.1128H10.9337L11.4344 10.9784ZM10.5868 7.52979L11.0902 6.6657L9.58685 5.78998V7.52979H10.5868ZM12.7476 8.77935L12.2484 9.64582L12.7476 8.77935ZM13.9955 9.49919L14.4945 10.3658L15.9965 9.50104L14.4961 8.63349L13.9955 9.49919ZM19.0046 17.3902V16.3902H17.5375L18.0738 17.7558L19.0046 17.3902ZM19.2063 17.8913L18.2803 18.2687V18.2687L19.2063 17.8913ZM21.5962 17.3835L21.6042 18.3835L21.6109 18.3834L21.5962 17.3835ZM22.4199 16.7136L21.4217 16.6542L21.4212 16.6645L22.4199 16.7136ZM22.4317 15.5373L23.4316 15.5229V15.5228L22.4317 15.5373ZM22.4266 15.0055H23.4266V14.0055H22.4266V15.0055ZM1.67334 15.0055V14.0055H0.67334V15.0055H1.67334ZM5.10878 17.3835L6.03812 17.7527L6.58215 16.3835H5.10878V17.3835ZM4.51277 18.8706L3.58515 18.4971L3.58064 18.5083L3.57641 18.5196L4.51277 18.8706ZM4.6668 19.3998L5.02587 18.4664L5.01801 18.4635L4.6668 19.3998ZM5.14227 19.1118L6.06877 19.488L6.06904 19.4874L5.14227 19.1118ZM5.32108 18.6774L6.24475 19.0606V19.0606L5.32108 18.6774ZM5.73828 17.6247L4.80325 17.2701L4.80024 17.278L4.79736 17.286L5.73828 17.6247ZM6.1066 17.3835L6.10829 16.3835H6.1066V17.3835ZM18.0202 17.3835V16.3835L18.0185 16.3835L18.0202 17.3835ZM18.3818 17.638L17.44 17.9743L17.4429 17.9825L17.446 17.9906L18.3818 17.638ZM18.8592 18.8307L19.7837 18.4494L19.7837 18.4494L18.8592 18.8307ZM18.9309 19.0046L18.0062 19.3852L18.0131 19.4019L18.0205 19.4183L18.9309 19.0046ZM18.9778 19.1118L19.897 18.7179L19.897 18.7179L18.9778 19.1118ZM19.0247 19.2189L19.9372 18.81L19.9351 18.8052L19.0247 19.2189ZM19.4533 19.3931L18.8866 18.569L18.8751 18.5771L19.4533 19.3931ZM19.614 18.9644L18.6628 19.2731L18.6653 19.2805L19.614 18.9644ZM11.2019 16.3236L11.2045 15.3236H11.2045L11.2019 16.3236ZM9.50856 16.3251V17.3251L9.5165 17.3251L9.50856 16.3251ZM9.05318 16.0103L8.05344 16.033L8.05345 16.0335L9.05318 16.0103ZM2.68014 14.2954V14.0074H0.680138V14.2954H2.68014ZM22.4459 13.2887C15.522 13.2954 8.62477 13.2954 1.68014 13.2954V15.2954C8.62461 15.2954 15.5228 15.2954 22.4478 15.2887L22.4459 13.2887ZM21.4468 14.0007V14.2887H23.4468V14.0007H21.4468ZM21.4468 4.991V14.0007H23.4468V4.991H21.4468ZM21.5227 5.07999C21.615 5.07999 21.6477 5.09064 21.6421 5.08891C21.6376 5.08752 21.6216 5.08206 21.5988 5.0689C21.5753 5.0554 21.5487 5.03611 21.5226 5.01032C21.4965 4.9845 21.4764 4.95757 21.462 4.93304C21.4479 4.90909 21.4416 4.89155 21.4395 4.88507C21.4365 4.87544 21.4468 4.90347 21.4468 4.991H23.4468C23.4468 4.55044 23.3509 4.00564 22.9291 3.58842C22.5098 3.17364 21.965 3.07999 21.5227 3.07999V5.07999ZM2.60429 5.07999H21.5227V3.07999H2.60429V5.07999ZM2.68014 4.9977C2.68014 4.90565 2.69066 4.87446 2.68841 4.88173C2.68673 4.88717 2.6808 4.90432 2.66691 4.92834C2.65265 4.953 2.63248 4.98056 2.60583 5.00721C2.57918 5.03387 2.55174 5.05393 2.52738 5.06804C2.50364 5.08178 2.48693 5.0875 2.48211 5.089C2.47607 5.09087 2.50924 5.07999 2.60429 5.07999V3.07999C2.16155 3.07999 1.61212 3.17237 1.19141 3.5932C0.77059 4.01414 0.680138 4.56209 0.680138 4.9977H2.68014ZM2.68014 14.0074V4.9977H0.680138V14.0074H2.68014ZM11.0874 12.3343C11.3731 12.1691 11.6552 12.0059 11.9352 11.844L10.9337 10.1128C10.6537 10.2748 10.3718 10.4378 10.0863 10.6029L11.0874 12.3343ZM9.58685 7.52979V11.4686H11.5868V7.52979H9.58685ZM13.2468 7.91288C12.5244 7.49666 11.8126 7.08651 11.0902 6.6657L10.0835 8.39388C10.8107 8.81746 11.5266 9.22997 12.2484 9.64582L13.2468 7.91288ZM14.4961 8.63349C14.0743 8.38964 13.6589 8.15027 13.2468 7.91287L12.2484 9.64582C12.6606 9.88333 13.0747 10.1219 13.495 10.3649L14.4961 8.63349ZM11.9352 11.844C12.791 11.3489 13.6276 10.8649 14.4945 10.3658L13.4965 8.63257C12.6276 9.13284 11.7893 9.61781 10.9337 10.1128L11.9352 11.844ZM18.0738 17.7558C18.1443 17.9351 18.2144 18.1072 18.2803 18.2687L20.1323 17.5138C20.0658 17.3506 20.0004 17.1902 19.9354 17.0246L18.0738 17.7558ZM19.005 16.3902H19.0046V18.3902H19.005V16.3902ZM21.5882 16.3835C20.756 16.3902 19.9097 16.3902 19.005 16.3902V18.3902C19.9081 18.3902 20.7626 18.3902 21.6042 18.3835L21.5882 16.3835ZM21.4212 16.6645C21.423 16.6275 21.4337 16.5779 21.4607 16.5263C21.4873 16.4754 21.5215 16.4382 21.552 16.4141C21.6099 16.3685 21.6339 16.3828 21.5815 16.3836L21.6109 18.3834C22.4009 18.3718 23.3642 17.8713 23.4187 16.7627L21.4212 16.6645ZM21.4318 15.5517C21.4376 15.9534 21.4423 16.3084 21.4217 16.6542L23.4182 16.773C23.4439 16.341 23.4372 15.9117 23.4316 15.5229L21.4318 15.5517ZM21.4266 15.0055C21.4266 15.1918 21.4293 15.3762 21.4318 15.5517L23.4316 15.5228C23.4291 15.3451 23.4266 15.175 23.4266 15.0055H21.4266ZM1.67334 16.0055H22.4266V14.0055H1.67334V16.0055ZM2.67334 16.4256V15.0055H0.67334V16.4256H2.67334ZM2.62428 16.3835C2.57495 16.3835 2.53956 16.3809 2.51575 16.3779C2.49197 16.3749 2.48338 16.372 2.48623 16.3729C2.48954 16.3739 2.5055 16.3792 2.52889 16.3927C2.55299 16.4066 2.58032 16.4265 2.6068 16.4532C2.63327 16.4798 2.65282 16.507 2.66623 16.5305C2.67924 16.5533 2.68408 16.5684 2.68476 16.5706C2.6853 16.5724 2.68221 16.5627 2.67911 16.5377C2.676 16.5127 2.67334 16.4761 2.67334 16.4256H0.67334C0.67334 16.872 0.761348 17.4337 1.18856 17.8633C1.61716 18.2944 2.17889 18.3835 2.62428 18.3835V16.3835ZM5.10878 16.3835H2.62428V18.3835H5.10878V16.3835ZM5.44039 19.2441C5.63451 18.762 5.82954 18.2777 6.03812 17.7527L4.17945 17.0143C3.97283 17.5343 3.77945 18.0145 3.58515 18.4971L5.44039 19.2441ZM5.01801 18.4635C5.06569 18.4814 5.16803 18.5301 5.26707 18.6419C5.37189 18.7603 5.42675 18.8972 5.44631 19.0179C5.4638 19.1258 5.45051 19.2021 5.44624 19.2237C5.4417 19.2467 5.43862 19.2497 5.44913 19.2216L3.57641 18.5196C3.5302 18.6428 3.41176 18.9658 3.47208 19.3379C3.50671 19.5515 3.5984 19.7743 3.76977 19.9678C3.93536 20.1548 4.13397 20.268 4.31559 20.3361L5.01801 18.4635ZM4.21577 18.7355C4.20664 18.7579 4.20761 18.751 4.22158 18.7288C4.23502 18.7074 4.27739 18.6446 4.36129 18.5803C4.45395 18.5093 4.58033 18.4499 4.72879 18.4334C4.87041 18.4177 4.97578 18.4472 5.02586 18.4665L4.30773 20.3331C4.71473 20.4897 5.18795 20.4668 5.57837 20.1674C5.87684 19.9385 6.01245 19.6267 6.06877 19.488L4.21577 18.7355ZM4.39741 18.2942C4.3377 18.4381 4.27613 18.5865 4.21549 18.7361L6.06904 19.4874C6.1261 19.3466 6.18452 19.2057 6.24475 19.0606L4.39741 18.2942ZM4.79736 17.286C4.67895 17.615 4.54369 17.9416 4.39741 18.2942L6.24475 19.0606C6.38798 18.7153 6.54191 18.3448 6.6792 17.9633L4.79736 17.286ZM6.1066 16.3835C5.95421 16.3835 5.65226 16.3958 5.35372 16.5792C5.0337 16.7759 4.8814 17.064 4.80325 17.2701L6.67331 17.9792C6.66882 17.9911 6.60359 18.1586 6.40076 18.2832C6.21941 18.3947 6.06479 18.3835 6.1066 18.3835V16.3835ZM18.0185 16.3835C14.0484 16.3902 10.0784 16.3902 6.10829 16.3835L6.10492 18.3835C10.0772 18.3902 14.0495 18.3902 18.0219 18.3835L18.0185 16.3835ZM19.3236 17.3018C19.263 17.1321 19.1355 16.8421 18.8362 16.6276C18.5345 16.4114 18.2149 16.3835 18.0202 16.3835V18.3835C18.0197 18.3835 18.0106 18.3835 17.9948 18.382C17.9789 18.3804 17.9536 18.377 17.9216 18.3693C17.8537 18.353 17.7632 18.3192 17.6712 18.2533C17.4841 18.1192 17.4336 17.9564 17.44 17.9743L19.3236 17.3018ZM19.7837 18.4494C19.6194 18.0509 19.4632 17.672 19.3176 17.2855L17.446 17.9906C17.6042 18.4107 17.7723 18.818 17.9348 19.2119L19.7837 18.4494ZM19.8556 18.6239C19.8316 18.5655 19.8076 18.5072 19.7837 18.4494L17.9348 19.2119C17.9587 19.2699 17.9825 19.3275 18.0062 19.3852L19.8556 18.6239ZM19.897 18.7179C19.8825 18.684 19.8633 18.6391 19.8413 18.5909L18.0205 19.4183C18.0321 19.4437 18.043 19.4692 18.0586 19.5056L19.897 18.7179ZM19.9351 18.8052C19.9235 18.7798 19.9126 18.7543 19.897 18.7179L18.0586 19.5056C18.0732 19.5395 18.0924 19.5844 18.1143 19.6326L19.9351 18.8052ZM18.8751 18.5771C18.963 18.5149 19.0835 18.4613 19.2289 18.4464C19.3736 18.4316 19.5064 18.4589 19.6138 18.5061C19.818 18.5959 19.9061 18.7405 19.9372 18.81L18.1121 19.6279C18.2303 19.8916 18.4524 20.1802 18.8089 20.337C19.2079 20.5124 19.6654 20.4683 20.0314 20.209L18.8751 18.5771ZM18.6653 19.2805C18.6123 19.1214 18.6227 18.9971 18.628 18.9527C18.6346 18.8977 18.6468 18.8601 18.6553 18.8381C18.664 18.8153 18.6777 18.7859 18.7018 18.7504C18.7209 18.7222 18.7771 18.6444 18.8866 18.5691L20.0199 20.2171C20.3124 20.0159 20.4579 19.723 20.5225 19.5546C20.5814 19.401 20.6936 19.0409 20.5627 18.6482L18.6653 19.2805ZM18.2803 18.2687C18.4325 18.6423 18.56 18.9562 18.6628 19.2731L20.5651 18.6557C20.4358 18.2572 20.2796 17.8751 20.1323 17.5138L18.2803 18.2687ZM12.0466 17.3251H14.5914V15.3251H12.0466V17.3251ZM11.1992 17.3236C11.481 17.3244 11.7641 17.3251 12.0466 17.3251V15.3251C11.7672 15.3251 11.4867 15.3244 11.2045 15.3236L11.1992 17.3236ZM9.5165 17.3251C10.0731 17.3207 10.6336 17.3221 11.1992 17.3236L11.2045 15.3236C10.6406 15.3221 10.0696 15.3206 9.50063 15.3251L9.5165 17.3251ZM8.05345 16.0335C8.05806 16.2317 8.10164 16.4636 8.23245 16.6867C8.36759 16.9172 8.55712 17.0723 8.74716 17.1683C9.06932 17.331 9.40741 17.3251 9.50856 17.3251V15.3251C9.46576 15.3251 9.46107 15.3234 9.47385 15.3251C9.48508 15.3266 9.55588 15.3362 9.64885 15.3831C9.75433 15.4364 9.87313 15.5308 9.95784 15.6753C10.0382 15.8124 10.0517 15.9328 10.0529 15.987L8.05345 16.0335ZM9.51526 14.6552C9.35305 14.6552 9.00067 14.6663 8.66927 14.8678C8.23325 15.1329 8.04326 15.5849 8.05344 16.033L10.0529 15.9876C10.0541 16.0388 10.0467 16.1492 9.9814 16.2792C9.91273 16.4159 9.80972 16.515 9.70831 16.5767C9.61692 16.6323 9.54275 16.6483 9.51946 16.6526C9.49483 16.6572 9.48976 16.6552 9.51526 16.6552V14.6552ZM14.5981 14.6552H9.51526V16.6552H14.5981V14.6552ZM16.0669 16.0036C16.0669 15.8011 16.0273 15.5715 15.9073 15.3494C15.7843 15.1218 15.6077 14.9595 15.4227 14.8528C15.095 14.6636 14.7508 14.6552 14.5981 14.6552V16.6552C14.6254 16.6552 14.6227 16.6571 14.6014 16.6534C14.5814 16.6499 14.5114 16.636 14.4231 16.585C14.3251 16.5285 14.2205 16.4348 14.1478 16.3002C14.078 16.1711 14.0669 16.0587 14.0669 16.0036H16.0669ZM14.5914 17.3251C14.6683 17.3251 15.0163 17.3373 15.3405 17.1858C15.5377 17.0936 15.7426 16.9368 15.8872 16.6913C16.0266 16.4547 16.0669 16.2088 16.0669 16.0036H14.0669C14.0669 15.9525 14.0771 15.8237 14.1639 15.6763C14.256 15.52 14.3859 15.4243 14.4936 15.374C14.5866 15.3305 14.6546 15.3243 14.656 15.3241C14.659 15.3238 14.6473 15.3251 14.5914 15.3251V17.3251Z" fill="#E60000" mask="url(#path-1-inside-1_291_5122)"/>
</g>
</g>
<defs>
<filter id="filter0_b_291_5122" x="-10.3267" y="-7.92001" width="44.7734" height="39.3624" filterUnits="userSpaceOnUse" color-interpolation-filters="sRGB">
<feFlood flood-opacity="0" result="BackgroundImageFix"/>
<feGaussianBlur in="BackgroundImageFix" stdDeviation="6"/>
<feComposite in2="SourceAlpha" operator="in" result="effect1_backgroundBlur_291_5122"/>
<feBlend mode="normal" in="SourceGraphic" in2="effect1_backgroundBlur_291_5122" result="shape"/>
</filter>
<clipPath id="clip0_291_5122">
<rect width="20.76" height="15.36" fill="white" transform="translate(1.68018 4.07999)"/>
</clipPath>
</defs>
</svg>
