<svg width="30" height="30" viewBox="0 0 30 30" fill="none" xmlns="http://www.w3.org/2000/svg">
<g clip-path="url(#clip0_288_4659)">
<g filter="url(#filter0_b_288_4659)">
<mask id="path-1-inside-1_288_4659" fill="white">
<path fill-rule="evenodd" clip-rule="evenodd" d="M2.10027 17.5093V17.8693C10.781 17.8693 19.4031 17.8693 28.0586 17.8609V17.5009V6.23878C28.0586 5.45169 27.7071 5.10001 26.9034 5.10001H3.25546C2.44348 5.10001 2.10027 5.45169 2.10027 6.24715V17.5093ZM14.2932 13.7229C13.9432 13.9254 13.5907 14.1293 13.2337 14.3358V9.41226C14.1397 9.94002 15.0321 10.4542 15.9347 10.9743C16.4498 11.2711 16.9683 11.5698 17.4945 11.874C16.4097 12.4986 15.3629 13.1041 14.2932 13.7229ZM24.008 22.3642C23.9252 22.1611 23.8405 21.9534 23.7559 21.7378H23.7566C24.8864 21.7378 25.9493 21.7378 26.9954 21.7294C27.5646 21.721 27.9999 21.4028 28.0251 20.8921C28.054 20.4059 28.0469 19.9158 28.0398 19.4216C28.0366 19.2008 28.0334 18.9792 28.0334 18.7569H2.0918V20.532C2.0918 21.3777 2.44338 21.7294 3.28047 21.7294H6.3861C6.1266 22.3825 5.88384 22.9854 5.64109 23.5883C5.54064 23.8562 5.49878 24.1242 5.83362 24.2498C6.16009 24.3754 6.31914 24.1577 6.42796 23.8897C6.50151 23.7082 6.57651 23.5275 6.65146 23.3468C6.83242 22.9106 7.01316 22.4749 7.17297 22.0308C7.26505 21.788 7.39062 21.7294 7.63338 21.7294C12.5974 21.7378 17.5613 21.7378 22.5253 21.7294C22.7848 21.7294 22.8937 21.8131 22.9774 22.0476C23.1673 22.5517 23.3699 23.043 23.5742 23.5383C23.604 23.6107 23.6339 23.6832 23.6638 23.7557C23.6847 23.8018 23.7035 23.8458 23.7224 23.8897C23.7412 23.9337 23.76 23.9776 23.781 24.0237C23.8898 24.2665 24.1158 24.3837 24.3167 24.2414C24.4506 24.1493 24.5678 23.8562 24.5176 23.7055C24.3725 23.2584 24.1952 22.8234 24.008 22.3642ZM18.2394 20.4064H15.0584C14.7072 20.4064 14.355 20.4055 14.0024 20.4046C13.2965 20.4027 12.5893 20.4008 11.8858 20.4064C11.6012 20.4064 11.325 20.3729 11.3166 20.0129C11.3082 19.6444 11.5845 19.5691 11.8942 19.5691H18.2478C18.5491 19.5691 18.8337 19.6361 18.8337 20.0045C18.8337 20.3897 18.5324 20.4064 18.2394 20.4064Z"/>
</mask>
<path fill-rule="evenodd" clip-rule="evenodd" d="M2.10027 17.5093V17.8693C10.781 17.8693 19.4031 17.8693 28.0586 17.8609V17.5009V6.23878C28.0586 5.45169 27.7071 5.10001 26.9034 5.10001H3.25546C2.44348 5.10001 2.10027 5.45169 2.10027 6.24715V17.5093ZM14.2932 13.7229C13.9432 13.9254 13.5907 14.1293 13.2337 14.3358V9.41226C14.1397 9.94002 15.0321 10.4542 15.9347 10.9743C16.4498 11.2711 16.9683 11.5698 17.4945 11.874C16.4097 12.4986 15.3629 13.1041 14.2932 13.7229ZM24.008 22.3642C23.9252 22.1611 23.8405 21.9534 23.7559 21.7378H23.7566C24.8864 21.7378 25.9493 21.7378 26.9954 21.7294C27.5646 21.721 27.9999 21.4028 28.0251 20.8921C28.054 20.4059 28.0469 19.9158 28.0398 19.4216C28.0366 19.2008 28.0334 18.9792 28.0334 18.7569H2.0918V20.532C2.0918 21.3777 2.44338 21.7294 3.28047 21.7294H6.3861C6.1266 22.3825 5.88384 22.9854 5.64109 23.5883C5.54064 23.8562 5.49878 24.1242 5.83362 24.2498C6.16009 24.3754 6.31914 24.1577 6.42796 23.8897C6.50151 23.7082 6.57651 23.5275 6.65146 23.3468C6.83242 22.9106 7.01316 22.4749 7.17297 22.0308C7.26505 21.788 7.39062 21.7294 7.63338 21.7294C12.5974 21.7378 17.5613 21.7378 22.5253 21.7294C22.7848 21.7294 22.8937 21.8131 22.9774 22.0476C23.1673 22.5517 23.3699 23.043 23.5742 23.5383C23.604 23.6107 23.6339 23.6832 23.6638 23.7557C23.6847 23.8018 23.7035 23.8458 23.7224 23.8897C23.7412 23.9337 23.76 23.9776 23.781 24.0237C23.8898 24.2665 24.1158 24.3837 24.3167 24.2414C24.4506 24.1493 24.5678 23.8562 24.5176 23.7055C24.3725 23.2584 24.1952 22.8234 24.008 22.3642ZM18.2394 20.4064H15.0584C14.7072 20.4064 14.355 20.4055 14.0024 20.4046C13.2965 20.4027 12.5893 20.4008 11.8858 20.4064C11.6012 20.4064 11.325 20.3729 11.3166 20.0129C11.3082 19.6444 11.5845 19.5691 11.8942 19.5691H18.2478C18.5491 19.5691 18.8337 19.6361 18.8337 20.0045C18.8337 20.3897 18.5324 20.4064 18.2394 20.4064Z" fill="#E60000"/>
<path d="M2.10027 17.8693H1.10027V18.8693H2.10027V17.8693ZM28.0586 17.8609L28.0596 18.8609L29.0586 18.86V17.8609H28.0586ZM13.2337 14.3358H12.2337V16.0691L13.7342 15.2015L13.2337 14.3358ZM14.2932 13.7229L14.794 14.5885H14.794L14.2932 13.7229ZM13.2337 9.41226L13.737 8.54818L12.2337 7.67245V9.41226H13.2337ZM15.9347 10.9743L15.4355 11.8407L15.9347 10.9743ZM17.4945 11.874L17.9934 12.7406L19.4955 11.8759L17.995 11.0083L17.4945 11.874ZM23.7559 21.7378V20.7378H22.2888L22.8251 22.1033L23.7559 21.7378ZM24.008 22.3642L24.934 21.9867L24.934 21.9867L24.008 22.3642ZM26.9954 21.7294L27.0034 22.7294L27.0101 22.7293L26.9954 21.7294ZM28.0251 20.8921L27.0268 20.8327L27.0263 20.843L28.0251 20.8921ZM28.0398 19.4216L27.0399 19.436L27.0399 19.436L28.0398 19.4216ZM28.0334 18.7569H29.0334V17.7569H28.0334V18.7569ZM2.0918 18.7569V17.7569H1.0918V18.7569H2.0918ZM6.3861 21.7294L7.31543 22.0986L7.85947 20.7294H6.3861V21.7294ZM5.64109 23.5883L4.71347 23.2148L4.70896 23.2259L4.70473 23.2372L5.64109 23.5883ZM5.83362 24.2498L6.1927 23.3164L6.18483 23.3135L5.83362 24.2498ZM6.42796 23.8897L7.35446 24.266L7.35473 24.2653L6.42796 23.8897ZM6.65146 23.3468L7.57513 23.73L7.57514 23.7299L6.65146 23.3468ZM7.17297 22.0308L6.23794 21.6763L6.23493 21.6842L6.23206 21.6922L7.17297 22.0308ZM7.63338 21.7294L7.63506 20.7294H7.63338V21.7294ZM22.5253 21.7294V20.7294L22.5236 20.7294L22.5253 21.7294ZM22.9774 22.0476L22.0356 22.3838L22.0385 22.392L22.0416 22.4001L22.9774 22.0476ZM23.5742 23.5383L22.6497 23.9196V23.9196L23.5742 23.5383ZM23.6638 23.7557L22.7391 24.1364L22.7459 24.153L22.7534 24.1695L23.6638 23.7557ZM23.7224 23.8897L24.6416 23.4959L24.6416 23.4959L23.7224 23.8897ZM23.781 24.0237L24.6935 23.6147L24.6914 23.61L23.781 24.0237ZM24.3167 24.2414L23.75 23.4174L23.7386 23.4254L24.3167 24.2414ZM24.5176 23.7055L23.5664 24.0142L23.5689 24.0216L24.5176 23.7055ZM14.0024 20.4046L13.9998 21.4046H13.9998L14.0024 20.4046ZM11.8858 20.4064V21.4064L11.8938 21.4064L11.8858 20.4064ZM11.3166 20.0129L10.3169 20.0356L10.3169 20.0361L11.3166 20.0129ZM3.10027 17.8693V17.5093H1.10027V17.8693H3.10027ZM28.0577 16.8609C19.4027 16.8693 10.781 16.8693 2.10027 16.8693V18.8693C10.7809 18.8693 19.4035 18.8693 28.0596 18.8609L28.0577 16.8609ZM27.0586 17.5009V17.8609H29.0586V17.5009H27.0586ZM27.0586 6.23878V17.5009H29.0586V6.23878H27.0586ZM26.9034 6.10001C27.036 6.10001 27.1032 6.11506 27.1268 6.12238C27.144 6.12772 27.1161 6.1217 27.0792 6.08518C27.0419 6.04834 27.034 6.01851 27.0379 6.03084C27.0439 6.04995 27.0586 6.11189 27.0586 6.23878H29.0586C29.0586 5.71951 28.9451 5.11777 28.4856 4.66328C28.0287 4.21124 27.4261 4.10001 26.9034 4.10001V6.10001ZM3.25546 6.10001H26.9034V4.10001H3.25546V6.10001ZM3.10027 6.24715C3.10027 6.11532 3.11508 6.04991 3.12181 6.02821C3.12639 6.01342 3.11901 6.04385 3.08058 6.08229C3.04217 6.1207 3.01229 6.12757 3.02867 6.12249C3.0519 6.11529 3.11981 6.10001 3.25546 6.10001V4.10001C2.73152 4.10001 2.12433 4.20998 1.66617 4.66827C1.20788 5.12668 1.10027 5.732 1.10027 6.24715H3.10027ZM3.10027 17.5093V6.24715H1.10027V17.5093H3.10027ZM13.7342 15.2015C14.0914 14.995 14.444 14.791 14.794 14.5885L13.7925 12.8573C13.4424 13.0598 13.0901 13.2637 12.7331 13.4701L13.7342 15.2015ZM12.2337 9.41226V14.3358H14.2337V9.41226H12.2337ZM16.4339 10.1078C15.531 9.58755 14.6406 9.07454 13.737 8.54818L12.7303 10.2763C13.6387 10.8055 14.5332 11.3209 15.4355 11.8407L16.4339 10.1078ZM17.995 11.0083C17.4681 10.7036 16.949 10.4045 16.4339 10.1078L15.4355 11.8407C15.9507 12.1376 16.4685 12.4359 16.9939 12.7397L17.995 11.0083ZM14.794 14.5885C15.8637 13.9697 16.9097 13.3646 17.9934 12.7406L16.9955 11.0074C15.9097 11.6326 14.862 12.2386 13.7925 12.8573L14.794 14.5885ZM22.8251 22.1033C22.9125 22.3259 22.9995 22.5394 23.082 22.7416L24.934 21.9867C24.8509 21.7829 24.7686 21.5809 24.6866 21.3722L22.8251 22.1033ZM23.7566 20.7378H23.7559V22.7378H23.7566V20.7378ZM26.9874 20.7294C25.946 20.7378 24.8872 20.7378 23.7566 20.7378V22.7378C24.8857 22.7378 25.9526 22.7378 27.0034 22.7294L26.9874 20.7294ZM27.0263 20.843C27.0268 20.8315 27.0311 20.805 27.0475 20.7738C27.0635 20.7432 27.0828 20.7236 27.095 20.714C27.1061 20.7052 27.1061 20.7087 27.0868 20.7149C27.0675 20.7211 27.0325 20.7287 26.9807 20.7295L27.0101 22.7293C27.9139 22.716 28.9643 22.1519 29.0238 20.9412L27.0263 20.843ZM27.0399 19.436C27.0471 19.9366 27.0532 20.3896 27.0268 20.8327L29.0233 20.9515C29.0548 20.4222 29.0467 19.8949 29.0397 19.4072L27.0399 19.436ZM27.0334 18.7569C27.0334 18.9876 27.0367 19.2164 27.0399 19.436L29.0397 19.4072C29.0365 19.1852 29.0334 18.9708 29.0334 18.7569H27.0334ZM2.0918 19.7569H28.0334V17.7569H2.0918V19.7569ZM3.0918 20.532V18.7569H1.0918V20.532H3.0918ZM3.28047 20.7294C3.13592 20.7294 3.06214 20.7136 3.03465 20.7051C3.01459 20.699 3.04352 20.7047 3.08134 20.7428C3.11897 20.7806 3.12369 20.8085 3.11682 20.7858C3.10776 20.7559 3.0918 20.6794 3.0918 20.532H1.0918C1.0918 21.063 1.19738 21.6846 1.66311 22.1529C2.13021 22.6227 2.75138 22.7294 3.28047 22.7294V20.7294ZM6.3861 20.7294H3.28047V22.7294H6.3861V20.7294ZM6.56871 23.9618C6.81137 23.3591 7.05496 22.7542 7.31543 22.0986L5.45677 21.3602C5.19825 22.0108 4.95632 22.6116 4.71347 23.2148L6.56871 23.9618ZM6.18483 23.3135C6.21576 23.3251 6.30607 23.3657 6.3968 23.4681C6.4933 23.5771 6.54356 23.7033 6.56123 23.8124C6.57684 23.9087 6.56439 23.9725 6.56268 23.9812C6.56071 23.9911 6.56192 23.9807 6.57745 23.9393L4.70473 23.2372C4.64847 23.3873 4.52291 23.7371 4.58701 24.1324C4.62352 24.3576 4.71981 24.5912 4.8995 24.7941C5.07341 24.9905 5.28406 25.1117 5.48241 25.1861L6.18483 23.3135ZM5.50145 23.5134C5.48689 23.5493 5.48179 23.5551 5.48869 23.5441C5.49507 23.534 5.52939 23.4809 5.60387 23.4238C5.68711 23.36 5.80271 23.3053 5.93868 23.2903C6.06779 23.2759 6.15893 23.3035 6.19269 23.3165L5.47455 25.1831C5.91419 25.3522 6.41169 25.3247 6.82094 25.0108C7.13825 24.7675 7.28726 24.4315 7.35446 24.266L5.50145 23.5134ZM5.72779 22.9636C5.6531 23.1436 5.57653 23.3282 5.50118 23.5141L7.35473 24.2653C7.4265 24.0883 7.49992 23.9113 7.57513 23.73L5.72779 22.9636ZM6.23206 21.6922C6.08168 22.11 5.91027 22.5237 5.72779 22.9636L7.57514 23.7299C7.75456 23.2974 7.94464 22.8398 8.11389 22.3695L6.23206 21.6922ZM7.63338 20.7294C7.45671 20.7294 7.13634 20.7446 6.82315 20.937C6.48848 21.1427 6.32531 21.4459 6.23794 21.6763L8.108 22.3854C8.11272 22.373 8.05837 22.5254 7.87019 22.6411C7.7035 22.7435 7.56729 22.7294 7.63338 22.7294V20.7294ZM22.5236 20.7294C17.5608 20.7378 12.5979 20.7378 7.63506 20.7294L7.63169 22.7294C12.5968 22.7378 17.5619 22.7378 22.527 22.7294L22.5236 20.7294ZM23.9191 21.7113C23.8502 21.5182 23.7131 21.2123 23.3998 20.9877C23.084 20.7615 22.746 20.7294 22.5253 20.7294V22.7294C22.5642 22.7294 22.4103 22.7392 22.2348 22.6134C22.0617 22.4894 22.0208 22.3425 22.0356 22.3838L23.9191 21.7113ZM24.4986 23.1571C24.2934 22.6595 24.0967 22.1823 23.9132 21.6951L22.0416 22.4001C22.2378 22.921 22.4464 23.4266 22.6497 23.9196L24.4986 23.1571ZM24.5885 23.3751C24.5585 23.3021 24.5285 23.2294 24.4986 23.1571L22.6497 23.9196C22.6796 23.992 22.7093 24.0642 22.7391 24.1364L24.5885 23.3751ZM24.6416 23.4959C24.6233 23.4532 24.6003 23.3995 24.5742 23.342L22.7534 24.1695C22.7691 24.2041 22.7838 24.2383 22.8032 24.2836L24.6416 23.4959ZM24.6914 23.61C24.6756 23.5753 24.6609 23.5411 24.6416 23.4959L22.8032 24.2835C22.8215 24.3263 22.8445 24.3799 22.8706 24.4374L24.6914 23.61ZM23.7386 23.4254C23.8164 23.3703 23.9266 23.3206 24.0618 23.3068C24.1962 23.293 24.3189 23.3185 24.4168 23.3616C24.6019 23.4429 24.6733 23.5695 24.6935 23.6147L22.8684 24.4326C22.9975 24.7207 23.2363 25.0273 23.6118 25.1924C24.0299 25.3762 24.5088 25.3309 24.8948 25.0573L23.7386 23.4254ZM23.5689 24.0216C23.5184 23.87 23.5293 23.755 23.5334 23.7206C23.5388 23.6757 23.5481 23.6488 23.5526 23.6372C23.5574 23.6248 23.566 23.6054 23.5842 23.5784C23.5976 23.5588 23.6472 23.4881 23.7501 23.4174L24.8834 25.0654C25.1893 24.855 25.3473 24.5429 25.4198 24.3537C25.4867 24.1794 25.6022 23.7971 25.4663 23.3894L23.5689 24.0216ZM23.082 22.7416C23.2717 23.207 23.4346 23.6079 23.5665 24.0142L25.4688 23.3968C25.3104 22.9089 25.1187 22.4398 24.934 21.9867L23.082 22.7416ZM15.0584 21.4064H18.2394V19.4064H15.0584V21.4064ZM13.9998 21.4046C14.3521 21.4055 14.7056 21.4064 15.0584 21.4064V19.4064C14.7087 19.4064 14.3578 19.4055 14.0051 19.4046L13.9998 21.4046ZM11.8938 21.4064C12.5911 21.4008 13.293 21.4027 13.9998 21.4046L14.0051 19.4046C13.3 19.4027 12.5875 19.4008 11.8779 19.4064L11.8938 21.4064ZM10.3169 20.0361C10.3219 20.2523 10.3692 20.4981 10.5064 20.732C10.6478 20.9733 10.8462 21.1359 11.0468 21.2373C11.3901 21.4107 11.7562 21.4064 11.8858 21.4064V19.4064C11.8594 19.4064 11.8405 19.406 11.8265 19.4054C11.8124 19.4047 11.8076 19.404 11.8095 19.4042C11.8114 19.4045 11.8252 19.4064 11.8474 19.4124C11.8697 19.4186 11.9053 19.4303 11.9485 19.4521C12.0434 19.5 12.1533 19.5868 12.2317 19.7205C12.3058 19.8469 12.3155 19.9534 12.3163 19.9896L10.3169 20.0361ZM11.8942 18.5691C11.701 18.5691 11.3193 18.5839 10.9666 18.7984C10.5092 19.0764 10.3058 19.5506 10.3169 20.0356L12.3163 19.9902C12.3171 20.0229 12.3128 20.1186 12.2534 20.2368C12.1907 20.3618 12.0964 20.4521 12.0056 20.5073C11.9249 20.5564 11.8634 20.5682 11.854 20.5699C11.8432 20.5719 11.8532 20.5691 11.8942 20.5691V18.5691ZM18.2478 18.5691H11.8942V20.5691H18.2478V18.5691ZM19.8337 20.0045C19.8337 19.7836 19.7906 19.5393 19.6643 19.3056C19.5351 19.0664 19.3495 18.8955 19.1536 18.7825C18.8041 18.5808 18.4306 18.5691 18.2478 18.5691V20.5691C18.2901 20.5691 18.3023 20.5718 18.2948 20.5705C18.2886 20.5694 18.2313 20.5594 18.1539 20.5148C18.0669 20.4645 17.9713 20.3794 17.9048 20.2564C17.8413 20.1389 17.8337 20.0412 17.8337 20.0045H19.8337ZM18.2394 21.4064C18.3455 21.4064 18.7233 21.4178 19.0699 21.2558C19.2783 21.1584 19.4925 20.9939 19.6437 20.7373C19.7896 20.4895 19.8337 20.2289 19.8337 20.0045H17.8337C17.8337 19.9726 17.8401 19.8586 17.9204 19.7223C18.0059 19.5771 18.1265 19.4891 18.223 19.444C18.3048 19.4057 18.3598 19.4023 18.3472 19.4037C18.3364 19.4049 18.3099 19.4064 18.2394 19.4064V21.4064Z" fill="#E60000" mask="url(#path-1-inside-1_288_4659)"/>
</g>
</g>
<defs>
<filter id="filter0_b_288_4659" x="-9.9082" y="-6.89999" width="49.9668" height="43.203" filterUnits="userSpaceOnUse" color-interpolation-filters="sRGB">
<feFlood flood-opacity="0" result="BackgroundImageFix"/>
<feGaussianBlur in="BackgroundImageFix" stdDeviation="6"/>
<feComposite in2="SourceAlpha" operator="in" result="effect1_backgroundBlur_288_4659"/>
<feBlend mode="normal" in="SourceGraphic" in2="effect1_backgroundBlur_288_4659" result="shape"/>
</filter>
<clipPath id="clip0_288_4659">
<rect width="25.95" height="19.2" fill="white" transform="translate(2.1001 5.10001)"/>
</clipPath>
</defs>
</svg>
