<svg width="24" height="24" viewBox="0 0 24 24" fill="none" xmlns="http://www.w3.org/2000/svg">
<g clip-path="url(#clip0_291_5154)">
<g filter="url(#filter0_b_291_5154)">
<mask id="path-1-inside-1_291_5154" fill="white">
<path fill-rule="evenodd" clip-rule="evenodd" d="M11.5867 7.5565C11.7616 7.5558 11.9364 7.5551 12.1104 7.5551C12.2904 7.5551 12.4712 7.5558 12.6525 7.55649C13.0163 7.5579 13.3821 7.5593 13.7479 7.5551C14.3147 7.54251 14.6359 7.22148 14.6422 6.64866C14.6485 6.14508 14.6485 5.6415 14.6422 5.13792C14.6422 4.53991 14.3084 4.2 13.7101 4.2H10.5296C9.93755 4.20629 9.61005 4.53991 9.60375 5.14421V6.62348C9.60375 7.22777 9.92495 7.54881 10.5359 7.5551C10.8846 7.5593 11.2361 7.5579 11.5867 7.5565ZM18.6666 9.24209H12.1167H5.59822C4.40159 9.24209 3.7403 9.90304 3.7277 11.1116C3.72141 11.6404 3.60174 11.76 3.07901 11.76C3.05358 11.76 3.02886 11.7593 3.00438 11.7586C2.9561 11.7572 2.90872 11.7558 2.85858 11.76C2.39252 11.7915 2.05243 12.1188 2.04613 12.5909C2.03983 13.7114 2.03983 14.8381 2.05243 15.9586C2.05243 16.4433 2.39882 16.7706 2.89007 16.7958H3.20497C3.57025 16.8084 3.71511 16.9469 3.734 17.312V17.5952C3.7529 18.615 4.45198 19.3074 5.47226 19.3137C6.291 19.32 7.10975 19.32 7.92849 19.3137C8.66536 19.3137 9.33295 19.0934 9.92497 18.659C10.136 18.5017 10.3454 18.3443 10.5548 18.1869C10.7642 18.0295 10.9736 17.8722 11.1846 17.7148C11.8459 17.2238 12.4253 17.2238 13.0866 17.7211C13.275 17.8596 13.4621 18.0004 13.6496 18.1416C13.8885 18.3214 14.128 18.5016 14.3714 18.6779C14.8059 18.999 15.2909 19.2382 15.8388 19.2633C16.66 19.3019 17.486 19.3067 18.3126 19.3115C18.4306 19.3122 18.5486 19.3129 18.6666 19.3137C19.8255 19.32 20.512 18.6402 20.5183 17.4882C20.5246 16.8965 20.6253 16.7958 21.2173 16.7958C21.8786 16.7958 22.2061 16.4748 22.2061 15.8201V12.7357C22.2061 12.081 21.8786 11.76 21.2173 11.76C20.6253 11.7537 20.5246 11.6593 20.5183 11.0676C20.5057 9.91563 19.8255 9.24209 18.6666 9.24209Z"/>
</mask>
<path fill-rule="evenodd" clip-rule="evenodd" d="M11.5867 7.5565C11.7616 7.5558 11.9364 7.5551 12.1104 7.5551C12.2904 7.5551 12.4712 7.5558 12.6525 7.55649C13.0163 7.5579 13.3821 7.5593 13.7479 7.5551C14.3147 7.54251 14.6359 7.22148 14.6422 6.64866C14.6485 6.14508 14.6485 5.6415 14.6422 5.13792C14.6422 4.53991 14.3084 4.2 13.7101 4.2H10.5296C9.93755 4.20629 9.61005 4.53991 9.60375 5.14421V6.62348C9.60375 7.22777 9.92495 7.54881 10.5359 7.5551C10.8846 7.5593 11.2361 7.5579 11.5867 7.5565ZM18.6666 9.24209H12.1167H5.59822C4.40159 9.24209 3.7403 9.90304 3.7277 11.1116C3.72141 11.6404 3.60174 11.76 3.07901 11.76C3.05358 11.76 3.02886 11.7593 3.00438 11.7586C2.9561 11.7572 2.90872 11.7558 2.85858 11.76C2.39252 11.7915 2.05243 12.1188 2.04613 12.5909C2.03983 13.7114 2.03983 14.8381 2.05243 15.9586C2.05243 16.4433 2.39882 16.7706 2.89007 16.7958H3.20497C3.57025 16.8084 3.71511 16.9469 3.734 17.312V17.5952C3.7529 18.615 4.45198 19.3074 5.47226 19.3137C6.291 19.32 7.10975 19.32 7.92849 19.3137C8.66536 19.3137 9.33295 19.0934 9.92497 18.659C10.136 18.5017 10.3454 18.3443 10.5548 18.1869C10.7642 18.0295 10.9736 17.8722 11.1846 17.7148C11.8459 17.2238 12.4253 17.2238 13.0866 17.7211C13.275 17.8596 13.4621 18.0004 13.6496 18.1416C13.8885 18.3214 14.128 18.5016 14.3714 18.6779C14.8059 18.999 15.2909 19.2382 15.8388 19.2633C16.66 19.3019 17.486 19.3067 18.3126 19.3115C18.4306 19.3122 18.5486 19.3129 18.6666 19.3137C19.8255 19.32 20.512 18.6402 20.5183 17.4882C20.5246 16.8965 20.6253 16.7958 21.2173 16.7958C21.8786 16.7958 22.2061 16.4748 22.2061 15.8201V12.7357C22.2061 12.081 21.8786 11.76 21.2173 11.76C20.6253 11.7537 20.5246 11.6593 20.5183 11.0676C20.5057 9.91563 19.8255 9.24209 18.6666 9.24209Z" fill="#E60000"/>
<path d="M11.5867 7.5565L11.5907 8.55649L11.5867 7.5565ZM12.6525 7.55649L12.6563 6.5565H12.6563L12.6525 7.55649ZM13.7479 7.5551L13.7593 8.55509L13.7701 8.55485L13.7479 7.5551ZM14.6422 6.64866L13.6423 6.63615L13.6422 6.63766L14.6422 6.64866ZM14.6422 5.13792H13.6421L13.6423 5.15042L14.6422 5.13792ZM10.5296 4.2V3.19994L10.5189 3.20005L10.5296 4.2ZM9.60375 5.14421L8.60375 5.13379V5.14421H9.60375ZM10.5359 7.5551L10.5479 6.55517L10.5462 6.55515L10.5359 7.5551ZM3.7277 11.1116L4.72763 11.1235L4.72765 11.1221L3.7277 11.1116ZM3.00438 11.7586L3.03321 10.759L3.03319 10.759L3.00438 11.7586ZM2.85858 11.76L2.92595 12.7577L2.93377 12.7572L2.94158 12.7565L2.85858 11.76ZM2.04613 12.5909L1.04619 12.5776L1.04614 12.5853L2.04613 12.5909ZM2.05243 15.9586H3.05249L3.05236 15.9474L2.05243 15.9586ZM2.89007 16.7958L2.83888 17.7945L2.86445 17.7958H2.89007V16.7958ZM3.20497 16.7958L3.23941 15.7964L3.22219 15.7958H3.20497V16.7958ZM3.734 17.312H4.734V17.2861L4.73267 17.2603L3.734 17.312ZM3.734 17.5952H2.734V17.6045L2.73417 17.6138L3.734 17.5952ZM5.47226 19.3137L5.47995 18.3137L5.47843 18.3137L5.47226 19.3137ZM7.92849 19.3137V18.3137L7.9208 18.3137L7.92849 19.3137ZM9.92497 18.659L10.5165 19.4653L10.5228 19.4606L9.92497 18.659ZM10.5548 18.1869L11.1556 18.9863L11.1556 18.9863L10.5548 18.1869ZM11.1846 17.7148L10.5884 16.9119L10.5867 16.9133L11.1846 17.7148ZM13.0866 17.7211L12.4855 18.5204L12.4944 18.5269L13.0866 17.7211ZM13.6496 18.1416L13.0483 18.9406L13.6496 18.1416ZM14.3714 18.6779L14.9656 17.8736L14.958 17.868L14.3714 18.6779ZM15.8388 19.2633L15.8857 18.2644L15.8847 18.2644L15.8388 19.2633ZM18.3126 19.3115L18.3067 20.3115H18.3068L18.3126 19.3115ZM18.6666 19.3137L18.66 20.3137L18.6612 20.3137L18.6666 19.3137ZM20.5183 17.4882L19.5183 17.4776L19.5183 17.4828L20.5183 17.4882ZM21.2173 11.76L21.2067 12.76H21.2173V11.76ZM20.5183 11.0676L21.5182 11.0569L21.5182 11.0566L20.5183 11.0676ZM12.1104 6.5551C11.934 6.5551 11.7573 6.55581 11.5827 6.55651L11.5907 8.55649C11.766 8.55579 11.9387 8.5551 12.1104 8.5551V6.5551ZM12.6563 6.5565C12.4754 6.55581 12.2927 6.5551 12.1104 6.5551V8.5551C12.2882 8.5551 12.467 8.55579 12.6486 8.55649L12.6563 6.5565ZM13.7364 6.55517C13.3796 6.55927 13.0215 6.55791 12.6563 6.5565L12.6486 8.55649C13.0112 8.55788 13.3846 8.55934 13.7593 8.55504L13.7364 6.55517ZM13.6422 6.63766C13.6417 6.68986 13.6341 6.70386 13.6385 6.69183C13.6439 6.67684 13.66 6.64331 13.6947 6.60833C13.7293 6.57337 13.7626 6.55686 13.7777 6.55126C13.7899 6.54675 13.7765 6.55422 13.7257 6.55535L13.7701 8.55485C14.2352 8.54452 14.7334 8.40176 15.1158 8.0156C15.4984 7.62917 15.637 7.12847 15.6421 6.65965L13.6422 6.63766ZM13.6423 5.15042C13.6484 5.64566 13.6484 6.14091 13.6423 6.63615L15.6421 6.66116C15.6485 6.14924 15.6485 5.63733 15.6421 5.12541L13.6423 5.15042ZM13.7101 5.2C13.7664 5.2 13.7828 5.20814 13.7719 5.20423C13.766 5.20214 13.7541 5.19719 13.7386 5.18751C13.7229 5.17771 13.7061 5.1647 13.6901 5.14849C13.674 5.13229 13.6614 5.11568 13.6522 5.10057C13.6431 5.08565 13.6386 5.07459 13.637 5.06984C13.6339 5.0612 13.6422 5.07986 13.6422 5.13792H15.6422C15.6422 4.65703 15.5052 4.1389 15.1109 3.74092C14.7152 3.34149 14.1961 3.2 13.7101 3.2V5.2ZM10.5296 5.2H13.7101V3.2H10.5296V5.2ZM10.6037 5.15463C10.6044 5.09114 10.6133 5.06838 10.6114 5.0738C10.6102 5.07703 10.6064 5.087 10.5977 5.1012C10.589 5.11562 10.5768 5.13191 10.5609 5.14808C10.5451 5.16426 10.5283 5.17741 10.5125 5.18742C10.4969 5.19731 10.4848 5.20245 10.4787 5.20465C10.4675 5.20876 10.4835 5.20054 10.5402 5.19994L10.5189 3.20005C10.0395 3.20515 9.5254 3.34764 9.13309 3.74763C8.7436 4.14474 8.60876 4.65864 8.6038 5.13379L10.6037 5.15463ZM10.6038 6.62348V5.14421H8.60375V6.62348H10.6038ZM10.5462 6.55515C10.4778 6.55445 10.4544 6.54507 10.4615 6.54754C10.4658 6.54902 10.4776 6.55364 10.494 6.56369C10.5108 6.57392 10.5294 6.58802 10.5476 6.60625C10.5659 6.62449 10.5804 6.64351 10.5912 6.66116C10.6018 6.67855 10.607 6.69165 10.609 6.69753C10.6126 6.70793 10.6038 6.68817 10.6038 6.62348H8.60375C8.60375 7.09611 8.73164 7.61889 9.13379 8.02083C9.53416 8.42099 10.0553 8.5502 10.5256 8.55505L10.5462 6.55515ZM11.5827 6.55651C11.2307 6.55791 10.8873 6.55926 10.5479 6.55517L10.5238 8.55503C10.8819 8.55934 11.2415 8.55788 11.5907 8.55649L11.5827 6.55651ZM12.1167 10.2421H18.6666V8.24209H12.1167V10.2421ZM5.59822 10.2421H12.1167V8.24209H5.59822V10.2421ZM4.72765 11.1221C4.73212 10.6926 4.84795 10.5088 4.92587 10.4309C5.00228 10.3546 5.18013 10.2421 5.59822 10.2421V8.24209C4.81968 8.24209 4.06857 8.4601 3.51203 9.01635C2.95699 9.5711 2.73588 10.322 2.72776 11.1012L4.72765 11.1221ZM3.07901 12.76C3.31733 12.76 3.88506 12.76 4.30394 12.3414C4.71872 11.9268 4.72479 11.3623 4.72763 11.1235L2.72777 11.0997C2.7265 11.2068 2.71904 11.227 2.72413 11.2055C2.73178 11.1732 2.76779 11.049 2.8901 10.9268C3.01325 10.8037 3.13945 10.7668 3.17625 10.7584C3.20103 10.7527 3.18389 10.76 3.07901 10.76V12.76ZM2.97554 12.7582C2.99796 12.7588 3.03687 12.76 3.07901 12.76V10.76C3.07028 10.76 3.05975 10.7598 3.03321 10.759L2.97554 12.7582ZM2.94158 12.7565C2.93176 12.7574 2.92737 12.7572 2.93245 12.7572C2.93508 12.7572 2.93945 12.7572 2.94677 12.7574C2.95452 12.7576 2.96288 12.7578 2.97556 12.7582L3.03319 10.759C2.99206 10.7578 2.89008 10.7539 2.77557 10.7634L2.94158 12.7565ZM3.04604 12.6042C3.04602 12.6058 3.04528 12.6217 3.03528 12.6461C3.02526 12.6705 3.00934 12.6949 2.98879 12.7156C2.94516 12.7594 2.91081 12.7587 2.92595 12.7577L2.7912 10.7623C1.8504 10.8258 1.06005 11.5405 1.04622 12.5776L3.04604 12.6042ZM3.05236 15.9474C3.03985 14.8342 3.03984 13.7134 3.04611 12.5965L1.04614 12.5853C1.03983 13.7093 1.03981 14.842 1.05249 15.9698L3.05236 15.9474ZM2.94125 15.7971C2.90518 15.7953 2.93849 15.7876 2.98824 15.8366C3.01175 15.8597 3.03 15.8875 3.04123 15.9153C3.05234 15.9427 3.05243 15.9596 3.05243 15.9586H1.05243C1.05243 16.4508 1.23407 16.9165 1.58582 17.2625C1.93157 17.6025 2.3837 17.7712 2.83888 17.7945L2.94125 15.7971ZM3.20497 15.7958H2.89007V17.7958H3.20497V15.7958ZM4.73267 17.2603C4.71832 16.9831 4.64934 16.5475 4.29618 16.2044C3.94566 15.8639 3.51121 15.8058 3.23941 15.7964L3.17052 17.7952C3.26401 17.7984 3.08463 17.8158 2.90258 17.639C2.7179 17.4595 2.73079 17.2758 2.73534 17.3636L4.73267 17.2603ZM4.734 17.5952V17.312H2.734V17.5952H4.734ZM5.47843 18.3137C5.1988 18.312 5.0291 18.2207 4.93085 18.1236C4.83245 18.0262 4.73902 17.8569 4.73383 17.5767L2.73417 17.6138C2.74788 18.3533 3.01344 19.0401 3.52437 19.5455C4.03546 20.051 4.72544 20.3091 5.46609 20.3137L5.47843 18.3137ZM7.9208 18.3137C7.10718 18.32 6.29357 18.32 5.47995 18.3137L5.46457 20.3137C6.28844 20.32 7.11231 20.32 7.93618 20.3137L7.9208 18.3137ZM9.33343 17.8528C8.912 18.162 8.4514 18.3137 7.92849 18.3137V20.3137C8.87932 20.3137 9.75391 20.0248 10.5165 19.4653L9.33343 17.8528ZM9.95406 17.3875C9.74439 17.545 9.5364 17.7013 9.32708 17.8575L10.5228 19.4606C10.7355 19.302 10.9464 19.1435 11.1556 18.9863L9.95406 17.3875ZM10.5867 16.9133C10.374 17.0719 10.1632 17.2303 9.95406 17.3875L11.1556 18.9863C11.3652 18.8288 11.5732 18.6725 11.7825 18.5164L10.5867 16.9133ZM13.6876 16.9219C13.2479 16.5913 12.7321 16.3489 12.1381 16.3474C11.5443 16.3459 11.0281 16.5855 10.5884 16.9119L11.7807 18.5177C12.0023 18.3532 12.1065 18.3473 12.133 18.3474C12.1594 18.3474 12.264 18.3537 12.4856 18.5204L13.6876 16.9219ZM14.251 17.3426C14.0643 17.2021 13.8725 17.0577 13.6788 16.9153L12.4944 18.5269C12.6774 18.6614 12.8599 18.7988 13.0483 18.9406L14.251 17.3426ZM14.958 17.868C14.7232 17.698 14.4911 17.5233 14.251 17.3426L13.0483 18.9406C13.2859 19.1194 13.5327 19.3052 13.7848 19.4878L14.958 17.868ZM15.8847 18.2644C15.6084 18.2517 15.3126 18.13 14.9656 17.8736L13.7772 19.4823C14.2993 19.868 14.9734 20.2246 15.7929 20.2623L15.8847 18.2644ZM18.3184 18.3116C17.4883 18.3067 16.6829 18.3019 15.8857 18.2644L15.7919 20.2622C16.6371 20.3019 17.4837 20.3067 18.3067 20.3115L18.3184 18.3116ZM18.6733 18.3137C18.5548 18.3129 18.4364 18.3122 18.3184 18.3116L18.3068 20.3115C18.4248 20.3122 18.5424 20.3129 18.66 20.3137L18.6733 18.3137ZM19.5183 17.4828C19.5162 17.8613 19.4069 18.04 19.3222 18.1236C19.2372 18.2075 19.0553 18.3158 18.6721 18.3137L18.6612 20.3137C19.4368 20.3179 20.1776 20.0895 20.7271 19.547C21.277 19.0043 21.514 18.2671 21.5182 17.4937L19.5183 17.4828ZM21.2173 15.7958C21.0558 15.7958 20.8564 15.8013 20.6618 15.8405C20.4563 15.8818 20.1808 15.9753 19.944 16.21C19.7075 16.4446 19.6117 16.7191 19.5685 16.9236C19.5276 17.1173 19.52 17.3163 19.5183 17.4776L21.5182 17.4989C21.5196 17.3642 21.5271 17.3288 21.5253 17.3372C21.5212 17.3564 21.4889 17.4948 21.3523 17.6302C21.2155 17.7658 21.0765 17.7971 21.0567 17.8011C21.0477 17.8029 21.0829 17.7958 21.2173 17.7958V15.7958ZM21.2061 15.8201C21.2061 15.8607 21.2036 15.8894 21.2009 15.908C21.1982 15.9265 21.1958 15.933 21.1967 15.9303C21.1977 15.9272 21.2021 15.9152 21.2127 15.8977C21.2236 15.8799 21.2386 15.8601 21.2579 15.8411C21.2772 15.822 21.2967 15.8078 21.3133 15.798C21.3296 15.7885 21.34 15.7849 21.3409 15.7847C21.3415 15.7845 21.3327 15.7874 21.3118 15.7903C21.2909 15.7932 21.2599 15.7958 21.2173 15.7958V17.7958C21.6948 17.7958 22.241 17.6801 22.6615 17.2658C23.0848 16.8488 23.2061 16.3017 23.2061 15.8201H21.2061ZM21.2061 12.7357V15.8201H23.2061V12.7357H21.2061ZM21.2173 12.76C21.2599 12.76 21.2909 12.7626 21.3118 12.7655C21.3327 12.7684 21.3415 12.7713 21.3409 12.7711C21.34 12.7708 21.3296 12.7673 21.3133 12.7578C21.2967 12.748 21.2772 12.7338 21.2579 12.7147C21.2386 12.6957 21.2236 12.6759 21.2127 12.6581C21.2021 12.6406 21.1977 12.6286 21.1967 12.6255C21.1958 12.6228 21.1982 12.6293 21.2009 12.6478C21.2036 12.6664 21.2061 12.6951 21.2061 12.7357H23.2061C23.2061 12.2541 23.0848 11.707 22.6615 11.29C22.241 10.8757 21.6948 10.76 21.2173 10.76V12.76ZM19.5183 11.0782C19.52 11.2392 19.5275 11.4384 19.5687 11.6324C19.6124 11.8379 19.7091 12.1123 19.9469 12.3462C20.1833 12.5788 20.4573 12.6709 20.6588 12.7121C20.8502 12.7512 21.0473 12.7582 21.2067 12.7599L21.228 10.7601C21.0914 10.7586 21.0539 10.7515 21.0596 10.7526C21.0755 10.7559 21.213 10.7862 21.3494 10.9204C21.4872 11.056 21.5205 11.1954 21.5251 11.2167C21.5271 11.2262 21.5196 11.1917 21.5182 11.0569L19.5183 11.0782ZM18.6666 10.2421C19.0531 10.2421 19.235 10.3509 19.3198 10.4346C19.4043 10.518 19.5141 10.6967 19.5183 11.0785L21.5182 11.0566C21.5098 10.2865 21.2732 9.55247 20.7248 9.01115C20.1766 8.47008 19.439 8.24209 18.6666 8.24209V10.2421Z" fill="#E60000" mask="url(#path-1-inside-1_291_5154)"/>
</g>
</g>
<defs>
<filter id="filter0_b_291_5154" x="-9.95801" y="-7.8" width="44.1641" height="39.1184" filterUnits="userSpaceOnUse" color-interpolation-filters="sRGB">
<feFlood flood-opacity="0" result="BackgroundImageFix"/>
<feGaussianBlur in="BackgroundImageFix" stdDeviation="6"/>
<feComposite in2="SourceAlpha" operator="in" result="effect1_backgroundBlur_291_5154"/>
<feBlend mode="normal" in="SourceGraphic" in2="effect1_backgroundBlur_291_5154" result="shape"/>
</filter>
<clipPath id="clip0_291_5154">
<rect width="20.16" height="15.12" fill="white" transform="translate(2.04004 4.2)"/>
</clipPath>
</defs>
</svg>
