<svg width="30" height="30" viewBox="0 0 30 30" fill="none" xmlns="http://www.w3.org/2000/svg">
<g clip-path="url(#clip0_288_4691)">
<g filter="url(#filter0_b_288_4691)">
<mask id="path-1-inside-1_288_4691" fill="white">
<path fill-rule="evenodd" clip-rule="evenodd" d="M14.4836 9.44563C14.7023 9.44475 14.9207 9.44388 15.1382 9.44388C15.3633 9.44388 15.5893 9.44475 15.8158 9.44562C16.2707 9.44737 16.7279 9.44913 17.1851 9.44388C17.8936 9.42814 18.2951 9.02685 18.303 8.31082C18.3108 7.68135 18.3108 7.05187 18.303 6.4224C18.303 5.6749 17.8857 5.25 17.1378 5.25H13.1622C12.4222 5.25787 12.0128 5.6749 12.0049 6.43027V8.27935C12.0049 9.03472 12.4064 9.43601 13.1701 9.44388C13.606 9.44913 14.0454 9.44738 14.4836 9.44563ZM23.3335 11.5526H15.1461H6.99802C5.50224 11.5526 4.67562 12.3788 4.65987 13.8895C4.652 14.5505 4.50242 14.7 3.849 14.7C3.81721 14.7 3.78632 14.6991 3.75571 14.6982C3.69536 14.6965 3.63615 14.6948 3.57346 14.7C2.9909 14.7393 2.56578 15.1485 2.55791 15.7386C2.55003 17.1392 2.55003 18.5477 2.56578 19.9482C2.56578 20.5541 2.99877 20.9633 3.61283 20.9948H4.00645C4.46306 21.0105 4.64413 21.1836 4.66775 21.64V21.994C4.69136 23.2687 5.56522 24.1343 6.84057 24.1421C7.864 24.15 8.88743 24.15 9.91086 24.1421C10.8319 24.1421 11.6664 23.8667 12.4065 23.3238C12.6702 23.1271 12.9319 22.9304 13.1937 22.7337C13.4555 22.537 13.7172 22.3403 13.981 22.1435C14.8076 21.5298 15.5318 21.5298 16.3585 22.1514C16.5939 22.3245 16.8279 22.5005 17.0623 22.677C17.3608 22.9017 17.6602 23.127 17.9645 23.3474C18.5077 23.7487 19.1139 24.0477 19.7988 24.0792C20.8253 24.1274 21.8578 24.1334 22.8911 24.1394C23.0386 24.1403 23.186 24.1411 23.3335 24.1421C24.7821 24.15 25.6402 23.3002 25.6481 21.8603C25.6559 21.1206 25.7819 20.9948 26.5219 20.9948C27.3485 20.9948 27.7579 20.5935 27.7579 19.7751V15.9196C27.7579 15.1013 27.3485 14.7 26.5219 14.7C25.7819 14.6921 25.6559 14.5741 25.6481 13.8345C25.6323 12.3945 24.7821 11.5526 23.3335 11.5526Z"/>
</mask>
<path fill-rule="evenodd" clip-rule="evenodd" d="M14.4836 9.44563C14.7023 9.44475 14.9207 9.44388 15.1382 9.44388C15.3633 9.44388 15.5893 9.44475 15.8158 9.44562C16.2707 9.44737 16.7279 9.44913 17.1851 9.44388C17.8936 9.42814 18.2951 9.02685 18.303 8.31082C18.3108 7.68135 18.3108 7.05187 18.303 6.4224C18.303 5.6749 17.8857 5.25 17.1378 5.25H13.1622C12.4222 5.25787 12.0128 5.6749 12.0049 6.43027V8.27935C12.0049 9.03472 12.4064 9.43601 13.1701 9.44388C13.606 9.44913 14.0454 9.44738 14.4836 9.44563ZM23.3335 11.5526H15.1461H6.99802C5.50224 11.5526 4.67562 12.3788 4.65987 13.8895C4.652 14.5505 4.50242 14.7 3.849 14.7C3.81721 14.7 3.78632 14.6991 3.75571 14.6982C3.69536 14.6965 3.63615 14.6948 3.57346 14.7C2.9909 14.7393 2.56578 15.1485 2.55791 15.7386C2.55003 17.1392 2.55003 18.5477 2.56578 19.9482C2.56578 20.5541 2.99877 20.9633 3.61283 20.9948H4.00645C4.46306 21.0105 4.64413 21.1836 4.66775 21.64V21.994C4.69136 23.2687 5.56522 24.1343 6.84057 24.1421C7.864 24.15 8.88743 24.15 9.91086 24.1421C10.8319 24.1421 11.6664 23.8667 12.4065 23.3238C12.6702 23.1271 12.9319 22.9304 13.1937 22.7337C13.4555 22.537 13.7172 22.3403 13.981 22.1435C14.8076 21.5298 15.5318 21.5298 16.3585 22.1514C16.5939 22.3245 16.8279 22.5005 17.0623 22.677C17.3608 22.9017 17.6602 23.127 17.9645 23.3474C18.5077 23.7487 19.1139 24.0477 19.7988 24.0792C20.8253 24.1274 21.8578 24.1334 22.8911 24.1394C23.0386 24.1403 23.186 24.1411 23.3335 24.1421C24.7821 24.15 25.6402 23.3002 25.6481 21.8603C25.6559 21.1206 25.7819 20.9948 26.5219 20.9948C27.3485 20.9948 27.7579 20.5935 27.7579 19.7751V15.9196C27.7579 15.1013 27.3485 14.7 26.5219 14.7C25.7819 14.6921 25.6559 14.5741 25.6481 13.8345C25.6323 12.3945 24.7821 11.5526 23.3335 11.5526Z" fill="#E60000"/>
<path d="M14.4836 9.44563L14.4876 10.4456H14.4876L14.4836 9.44563ZM15.8158 9.44562L15.812 10.4456L15.8158 9.44562ZM17.1851 9.44388L17.1966 10.4439L17.2073 10.4436L17.1851 9.44388ZM18.303 8.31082L17.303 8.29832L17.303 8.29983L18.303 8.31082ZM18.303 6.4224H17.3029L17.303 6.4349L18.303 6.4224ZM13.1622 5.25V4.24994L13.1516 4.25006L13.1622 5.25ZM12.0049 6.43027L11.0049 6.41984V6.43027H12.0049ZM13.1701 9.44388L13.1821 8.44395L13.1804 8.44393L13.1701 9.44388ZM4.65987 13.8895L5.6598 13.9015L5.65982 13.9L4.65987 13.8895ZM3.75571 14.6982L3.72689 15.6978L3.7269 15.6978L3.75571 14.6982ZM3.57346 14.7L3.64084 15.6977L3.64866 15.6972L3.65647 15.6965L3.57346 14.7ZM2.55791 15.7386L1.55796 15.7253L1.55792 15.733L2.55791 15.7386ZM2.56578 19.9482H3.56584L3.56571 19.937L2.56578 19.9482ZM3.61283 20.9948L3.56164 21.9934L3.58722 21.9948H3.61283V20.9948ZM4.00645 20.9948L4.0409 19.9953L4.02368 19.9948H4.00645V20.9948ZM4.66775 21.64H5.66775V21.6141L5.66641 21.5883L4.66775 21.64ZM4.66775 21.994H3.66775V22.0033L3.66792 22.0126L4.66775 21.994ZM6.84057 24.1421L6.84825 23.1422L6.84674 23.1421L6.84057 24.1421ZM9.91086 24.1421V23.1421L9.90317 23.1422L9.91086 24.1421ZM12.4065 23.3238L12.998 24.1301L13.0043 24.1254L12.4065 23.3238ZM13.1937 22.7337L13.7945 23.5331L13.7945 23.5331L13.1937 22.7337ZM13.981 22.1435L13.3848 21.3406L13.3831 21.342L13.981 22.1435ZM16.3585 22.1514L15.7574 22.9507L15.7663 22.9572L16.3585 22.1514ZM17.0623 22.677L16.4609 23.476H16.4609L17.0623 22.677ZM17.9645 23.3474L18.5587 22.5431L18.551 22.5375L17.9645 23.3474ZM19.7988 24.0792L19.8457 23.0803L19.8447 23.0802L19.7988 24.0792ZM22.8911 24.1394L22.8969 23.1394H22.8969L22.8911 24.1394ZM23.3335 24.1421L23.3269 25.1421L23.3281 25.1421L23.3335 24.1421ZM25.6481 21.8603L24.6481 21.8496L24.6481 21.8548L25.6481 21.8603ZM26.5219 14.7L26.5113 15.7H26.5219V14.7ZM25.6481 13.8345L26.648 13.8238L26.648 13.8235L25.6481 13.8345ZM15.1382 8.44388C14.9184 8.44388 14.698 8.44476 14.4796 8.44563L14.4876 10.4456C14.7066 10.4447 14.923 10.4439 15.1382 10.4439V8.44388ZM15.8197 8.44563C15.5934 8.44476 15.3655 8.44388 15.1382 8.44388V10.4439C15.3611 10.4439 15.5851 10.4447 15.812 10.4456L15.8197 8.44563ZM17.1736 8.44395C16.7253 8.4491 16.2758 8.44739 15.8197 8.44563L15.812 10.4456C16.2656 10.4474 16.7304 10.4492 17.1966 10.4438L17.1736 8.44395ZM17.303 8.29983C17.3021 8.38783 17.2892 8.43369 17.2836 8.44938C17.279 8.4621 17.2806 8.45213 17.2962 8.43632C17.3118 8.42055 17.3218 8.41884 17.3094 8.42344C17.2941 8.42913 17.2492 8.44221 17.1629 8.44413L17.2073 10.4436C17.7433 10.4317 18.2969 10.2681 18.7173 9.8436C19.138 9.4188 19.297 8.86224 19.3029 8.32182L17.303 8.29983ZM17.303 6.4349C17.3108 7.05604 17.3108 7.67718 17.303 8.29832L19.3029 8.32333C19.3109 7.68552 19.3109 7.0477 19.3029 6.40989L17.303 6.4349ZM17.1378 6.25C17.2316 6.25 17.2812 6.26345 17.2992 6.26985C17.3139 6.27511 17.3051 6.27447 17.2904 6.25967C17.2759 6.24502 17.2763 6.23732 17.2824 6.25461C17.2895 6.27496 17.303 6.32697 17.303 6.4224H19.303C19.303 5.86677 19.1451 5.29001 18.7113 4.8521C18.276 4.41274 17.6986 4.25 17.1378 4.25V6.25ZM13.1622 6.25H17.1378V4.25H13.1622V6.25ZM13.0049 6.44069C13.007 6.236 13.0599 6.22232 13.0229 6.26004C13.0084 6.27491 12.9991 6.27602 13.013 6.27096C13.0302 6.26466 13.0792 6.25094 13.1728 6.24994L13.1516 4.25006C12.5981 4.25594 12.0266 4.41968 11.5951 4.8596C11.1664 5.29664 11.0107 5.86916 11.005 6.41984L13.0049 6.44069ZM13.0049 8.27935V6.43027H11.0049V8.27935H13.0049ZM13.1804 8.44393C13.0738 8.44284 13.0168 8.42815 12.9949 8.4205C12.9768 8.41421 12.9886 8.4152 13.0081 8.43464C13.0277 8.45427 13.03 8.46762 13.0251 8.45331C13.0188 8.43492 13.0049 8.38181 13.0049 8.27935H11.0049C11.0049 8.82752 11.1529 9.40814 11.5942 9.84922C12.0337 10.2885 12.6132 10.4382 13.1598 10.4438L13.1804 8.44393ZM14.4796 8.44563C14.04 8.44739 13.6086 8.44909 13.1821 8.44395L13.158 10.4438C13.6033 10.4492 14.0508 10.4474 14.4876 10.4456L14.4796 8.44563ZM15.1461 12.5526H23.3335V10.5526H15.1461V12.5526ZM6.99802 12.5526H15.1461V10.5526H6.99802V12.5526ZM5.65982 13.9C5.66587 13.3195 5.82382 13.0188 5.98085 12.8618C6.13638 12.7064 6.43035 12.5526 6.99802 12.5526V10.5526C6.0699 10.5526 5.20267 10.8119 4.56701 11.4473C3.93286 12.0811 3.66962 12.9489 3.65993 13.8791L5.65982 13.9ZM3.849 15.7C4.15267 15.7 4.76055 15.6926 5.20344 15.2499C5.64223 14.8114 5.65617 14.2063 5.6598 13.9015L3.65994 13.8776C3.65917 13.9429 3.65673 13.99 3.65367 14.0236C3.65058 14.0577 3.64763 14.0689 3.64867 14.0645C3.65126 14.0536 3.6793 13.9456 3.7896 13.8353C3.90074 13.7242 4.01091 13.6952 4.0265 13.6917C4.03272 13.6902 4.02323 13.6929 3.99067 13.6955C3.95854 13.6981 3.91292 13.7 3.849 13.7V15.7ZM3.7269 15.6978C3.75544 15.6986 3.80052 15.7 3.849 15.7V13.7C3.83391 13.7 3.8172 13.6996 3.78453 13.6986L3.7269 15.6978ZM3.65647 15.6965C3.65292 15.6968 3.65461 15.6965 3.66573 15.6965C3.67896 15.6965 3.69435 15.6969 3.72689 15.6978L3.78454 13.6986C3.73135 13.6971 3.61751 13.6929 3.49045 13.7034L3.65647 15.6965ZM3.55782 15.752C3.55819 15.724 3.56306 15.7127 3.56307 15.7127C3.56328 15.7122 3.56299 15.7129 3.562 15.7144C3.56101 15.7159 3.55992 15.7172 3.55902 15.7181C3.55678 15.7204 3.5587 15.7174 3.56955 15.7127C3.58062 15.7078 3.60344 15.7002 3.64084 15.6977L3.50608 13.7023C2.44877 13.7737 1.5734 14.5702 1.55799 15.7253L3.55782 15.752ZM3.56571 19.937C3.55005 18.5438 3.55004 17.1412 3.55789 15.7443L1.55792 15.733C1.55003 17.1372 1.55001 18.5516 1.56584 19.9595L3.56571 19.937ZM3.66401 19.9961C3.56654 19.9911 3.54749 19.9614 3.56024 19.9739C3.56525 19.9789 3.56884 19.9849 3.57004 19.9879C3.5711 19.9905 3.56578 19.9795 3.56578 19.9482H1.56578C1.56578 20.5011 1.76907 21.0175 2.15782 21.3999C2.54058 21.7763 3.04505 21.967 3.56164 21.9934L3.66401 19.9961ZM4.00645 19.9948H3.61283V21.9948H4.00645V19.9948ZM5.66641 21.5883C5.6497 21.2654 5.57048 20.7984 5.19627 20.4349C4.82469 20.0739 4.35836 20.0063 4.0409 19.9953L3.97201 21.9942C4.03101 21.9962 4.03197 22.0023 3.99989 21.9922C3.96039 21.9798 3.88163 21.9461 3.80267 21.8694C3.63905 21.7104 3.66217 21.5581 3.66908 21.6916L5.66641 21.5883ZM5.66775 21.994V21.64H3.66775V21.994H5.66775ZM6.84674 23.1421C6.43957 23.1396 6.16241 23.0047 5.988 22.8322C5.81343 22.6595 5.67513 22.3832 5.66757 21.9755L3.66792 22.0126C3.68398 22.8796 3.99442 23.6734 4.58152 24.2541C5.16877 24.835 5.96621 25.1368 6.8344 25.1421L6.84674 23.1421ZM9.90317 23.1422C8.88486 23.15 7.86656 23.15 6.84825 23.1422L6.83288 25.1421C7.86143 25.15 8.88999 25.15 9.91854 25.1421L9.90317 23.1422ZM11.8149 22.5175C11.2455 22.9353 10.618 23.1421 9.91086 23.1421V25.1421C11.0459 25.1421 12.0874 24.7982 12.998 24.1301L11.8149 22.5175ZM12.5929 21.9342C12.3309 22.1311 12.0706 22.3268 11.8086 22.5222L13.0043 24.1254C13.2697 23.9274 13.5329 23.7296 13.7945 23.5331L12.5929 21.9342ZM13.3831 21.342C13.1177 21.5399 12.8545 21.7377 12.5929 21.9342L13.7945 23.5331C14.0565 23.3362 14.3168 23.1406 14.5788 22.9451L13.3831 21.342ZM16.9595 21.3522C16.4371 20.9594 15.8438 20.6859 15.1722 20.6842C14.5009 20.6825 13.9072 20.9528 13.3848 21.3407L14.5771 22.9464C14.8814 22.7205 15.0631 22.684 15.1672 22.6842C15.2711 22.6845 15.4532 22.7218 15.7574 22.9506L16.9595 21.3522ZM17.6637 21.878C17.43 21.7022 17.1915 21.5226 16.9507 21.3456L15.7663 22.9572C15.9963 23.1263 16.2257 23.2989 16.4609 23.476L17.6637 21.878ZM18.551 22.5375C18.2554 22.3234 17.9634 22.1037 17.6637 21.878L16.4609 23.476C16.7583 23.6998 17.0649 23.9306 17.3779 24.1573L18.551 22.5375ZM19.8447 23.0802C19.4314 23.0612 19.0143 22.8797 18.5587 22.5431L17.3703 24.1517C18.001 24.6177 18.7963 25.0342 19.7529 25.0781L19.8447 23.0802ZM22.8969 23.1394C21.8601 23.1334 20.8482 23.1274 19.8457 23.0803L19.7519 25.0781C20.8023 25.1274 21.8555 25.1334 22.8852 25.1394L22.8969 23.1394ZM23.3402 23.1422C23.1922 23.1412 23.0443 23.1403 22.8969 23.1394L22.8852 25.1394C23.0328 25.1403 23.1799 25.1411 23.3269 25.1421L23.3402 23.1422ZM24.6481 21.8548C24.6452 22.3774 24.4926 22.6705 24.3286 22.8324C24.1643 22.9946 23.8671 23.145 23.339 23.1421L23.3281 25.1421C24.2485 25.1471 25.1047 24.8766 25.7335 24.2558C26.3627 23.6348 26.643 22.7831 26.648 21.8657L24.6481 21.8548ZM26.5219 19.9948C26.3233 19.9948 26.0946 20.0018 25.8769 20.0457C25.6482 20.0917 25.3555 20.1929 25.1063 20.4401C24.8573 20.687 24.7536 20.9786 24.7055 21.2062C24.6596 21.4231 24.6502 21.6514 24.6481 21.8496L26.648 21.8709C26.6489 21.791 26.6512 21.7315 26.6546 21.6865C26.6563 21.6646 26.6581 21.6483 26.6596 21.6368C26.6604 21.6311 26.661 21.6268 26.6615 21.624C26.662 21.6211 26.6623 21.6197 26.6622 21.6198C26.6622 21.6199 26.6619 21.6215 26.6611 21.6246C26.6603 21.6277 26.6589 21.6324 26.657 21.6386C26.653 21.6507 26.6463 21.6693 26.6352 21.6924C26.612 21.741 26.5736 21.8017 26.5146 21.8602C26.4555 21.9188 26.3944 21.9568 26.3453 21.9797C26.322 21.9906 26.3032 21.9972 26.2909 22.0011C26.2787 22.0049 26.2717 22.0063 26.2717 22.0063C26.2717 22.0063 26.2768 22.0053 26.2883 22.0039C26.2998 22.0025 26.316 22.0009 26.3379 21.9994C26.3827 21.9965 26.4421 21.9948 26.5219 21.9948V19.9948ZM26.7579 19.7751C26.7579 20.03 26.695 20.0318 26.7481 19.9794C26.7984 19.9299 26.7884 19.9948 26.5219 19.9948V21.9948C27.082 21.9948 27.69 21.859 28.1517 21.4042C28.6161 20.9466 28.7579 20.3386 28.7579 19.7751H26.7579ZM26.7579 15.9196V19.7751H28.7579V15.9196H26.7579ZM26.5219 15.7C26.7884 15.7 26.7984 15.7649 26.7481 15.7153C26.695 15.663 26.7579 15.6647 26.7579 15.9196H28.7579C28.7579 15.3562 28.6161 14.7481 28.1517 14.2905C27.69 13.8358 27.082 13.7 26.5219 13.7V15.7ZM24.6481 13.8451C24.6502 14.0431 24.6596 14.2715 24.7057 14.4885C24.7543 14.717 24.8589 15.0083 25.1091 15.2545C25.3581 15.4994 25.6492 15.5992 25.8739 15.6452C26.0884 15.6891 26.3149 15.6979 26.5113 15.6999L26.5325 13.7001C26.4516 13.6992 26.3912 13.6969 26.3451 13.6935C26.2983 13.6901 26.2778 13.6864 26.2747 13.6857C26.2718 13.6851 26.2997 13.6904 26.344 13.711C26.3917 13.7332 26.4525 13.7705 26.5117 13.8288C26.5711 13.8872 26.6102 13.9481 26.634 13.9977C26.6453 14.0211 26.6523 14.0402 26.6564 14.0528C26.6604 14.0653 26.662 14.0725 26.662 14.0728C26.6621 14.0731 26.661 14.0682 26.6595 14.0568C26.658 14.0455 26.6563 14.0294 26.6546 14.0077C26.6512 13.9631 26.6489 13.9038 26.648 13.8238L24.6481 13.8451ZM23.3335 12.5526C23.8649 12.5526 24.1617 12.7035 24.3256 12.8653C24.4893 13.0268 24.6424 13.3196 24.6481 13.8454L26.648 13.8235C26.638 12.9094 26.3581 12.0613 25.7306 11.4419C25.1033 10.8227 24.2507 10.5526 23.3335 10.5526V12.5526Z" fill="#E60000" mask="url(#path-1-inside-1_288_4691)"/>
</g>
</g>
<defs>
<filter id="filter0_b_288_4691" x="-9.44727" y="-6.75" width="49.2051" height="42.898" filterUnits="userSpaceOnUse" color-interpolation-filters="sRGB">
<feFlood flood-opacity="0" result="BackgroundImageFix"/>
<feGaussianBlur in="BackgroundImageFix" stdDeviation="6"/>
<feComposite in2="SourceAlpha" operator="in" result="effect1_backgroundBlur_288_4691"/>
<feBlend mode="normal" in="SourceGraphic" in2="effect1_backgroundBlur_288_4691" result="shape"/>
</filter>
<clipPath id="clip0_288_4691">
<rect width="25.2" height="18.9" fill="white" transform="translate(2.55005 5.25)"/>
</clipPath>
</defs>
</svg>
